<svg width="14" height="14" viewBox="0 0 14 14" fill="none" xmlns="http://www.w3.org/2000/svg">
<path d="M9.33337 4.66669C10.2616 4.66669 11.1519 5.03544 11.8082 5.69181C12.4646 6.34819 12.8334 7.23843 12.8334 8.16669V12.25H10.5V8.16669C10.5 7.85727 10.3771 7.56052 10.1583 7.34173C9.93954 7.12294 9.64279 7.00002 9.33337 7.00002C9.02396 7.00002 8.72721 7.12294 8.50842 7.34173C8.28962 7.56052 8.16671 7.85727 8.16671 8.16669V12.25H5.83337V8.16669C5.83337 7.23843 6.20212 6.34819 6.8585 5.69181C7.51488 5.03544 8.40512 4.66669 9.33337 4.66669Z" fill="#101010"/>
<path d="M1.16669 5.25H3.50002V12.25H1.16669V5.25Z" fill="#101010"/>
<path d="M2.33335 3.50002C2.97769 3.50002 3.50002 2.97769 3.50002 2.33335C3.50002 1.68902 2.97769 1.16669 2.33335 1.16669C1.68902 1.16669 1.16669 1.68902 1.16669 2.33335C1.16669 2.97769 1.68902 3.50002 2.33335 3.50002Z" fill="#101010"/>
</svg>
