<svg width="72" height="85" viewBox="0 0 72 85" fill="none" xmlns="http://www.w3.org/2000/svg">
<path d="M36.0682 0.127441C27.5926 0.127441 11.9643 2.32793 4.00544 6.97232C-6.47325 44.2538 7.77772 69.6061 36.0682 83.9956C64.3589 69.6061 78.6099 44.1283 68.1309 6.97254C60.1641 2.32793 44.5435 0.127441 36.0682 0.127441Z" fill="#9C824A" stroke="#9C824A" stroke-width="0.175173" stroke-miterlimit="282"/>
<path d="M36.0675 2.52466C27.7408 2.52466 18.3653 3.59348 6.08635 8.62291C-3.05428 41.1657 7.54988 67.2489 36.0675 81.4651C64.5851 67.2489 75.1813 41.1655 66.0407 8.62291C53.7617 3.59348 44.3942 2.52466 36.0675 2.52466Z" fill="#023474" stroke="#023474" stroke-width="0.175173" stroke-miterlimit="282"/>
<path d="M36.0291 2.49292C27.7414 2.49292 18.8434 3.7266 10.8139 6.77595C2.48717 40.0968 8.63061 64.4272 36.0761 81.4414L36.0291 2.49292ZM36.0761 81.4414C63.5213 64.4272 69.6571 40.0968 61.3301 6.77595C53.3009 3.7266 44.4105 2.49292 36.123 2.49292L36.0761 81.4414Z" fill="white" stroke="white" stroke-width="0.175173" stroke-miterlimit="282"/>
<path d="M36.0754 2.48511C27.7407 2.48511 19.3044 3.75021 12.4489 6.14698C3.82474 41.0711 10.7506 64.6548 36.0831 80.773L36.0754 2.48511Z" fill="#EF0107" stroke="#EF0107" stroke-width="0.175173" stroke-miterlimit="282"/>
<path d="M36.0909 2.48511C44.4254 2.48511 52.8619 3.75021 59.7251 6.14698C68.3493 41.0711 61.4233 64.6548 36.0832 80.773L36.0909 2.48511Z" fill="#DB0007" stroke="#DB0007" stroke-width="0.175173" stroke-miterlimit="282"/>
<path d="M25.3071 55.1853C21.629 57.7162 18.7021 58.6276 15.3056 59.5314L13.2553 56.3329C16.3779 54.7456 19.61 52.5371 22.8656 49.3389C23.1395 52.4427 24.5792 54.6429 25.3071 55.1853Z" fill="white"/>
<path d="M24.8066 55.0519C21.3164 57.4564 16.4563 59.1304 10.8921 59.9477L9.75739 58.219C14.5233 56.4267 19.1249 53.7551 22.6937 49.9988C23.2337 52.4033 24.0553 53.9988 24.8066 55.0519Z" fill="#9C824A"/>
<path d="M15.5085 40.3642C15.5085 41.7081 14.4287 42.7926 13.0904 42.7926C11.7521 42.7926 10.6644 41.7081 10.6644 40.3642C10.6644 39.0203 11.7521 37.936 13.0904 37.936C14.4287 37.936 15.5085 39.0203 15.5085 40.3642Z" fill="white"/>
<path d="M15.2504 35.5779V44.7412H22.4424C22.9119 41.6684 24.6493 38.407 28.5856 35.5779H15.2504Z" fill="white"/>
<path d="M15.5402 44.7412C13.9357 44.7646 12.6133 42.745 12.5897 40.2145C12.5741 37.6839 13.8577 35.6093 15.4698 35.5779C15.4855 35.5779 15.5011 35.5779 15.5247 35.5779" fill="white"/>
<path d="M14.4915 40.364C14.4915 41.4014 13.7403 42.2345 12.8167 42.2345C11.8932 42.2345 11.142 41.4016 11.142 40.364C11.142 39.3266 11.8932 38.4937 12.8167 38.4937C13.7403 38.4934 14.4915 39.3266 14.4915 40.364Z" fill="#9C824A"/>
<path d="M15.4464 36.0576V44.2933H22.5837C23.1471 41.5586 24.5323 38.6509 27.9913 36.0576H15.4464Z" fill="#9C824A"/>
<path d="M15.7116 44.2933C14.2011 44.3249 12.9647 42.5017 12.9413 40.2304C12.9256 37.9594 14.1387 36.0888 15.649 36.0576C15.6646 36.0576 15.6803 36.0576 15.6959 36.0576" fill="#9C824A"/>
<path d="M49.7241 46.8865C49.7241 54.5333 43.5575 60.7256 35.9428 60.7256C28.3361 60.7256 22.1615 54.5333 22.1615 46.8865C22.1615 39.2401 28.3361 33.0474 35.9428 33.0474C43.5575 33.0474 49.7241 39.2401 49.7241 46.8865Z" fill="white"/>
<path d="M49.0054 46.8867C49.0054 54.1326 43.1592 60.0027 35.9439 60.0027C28.7362 60.0027 22.8903 54.1326 22.8903 46.8867C22.8903 39.649 28.7362 33.7708 35.9439 33.7708C43.1592 33.7705 49.0054 39.6411 49.0054 46.8867Z" fill="#9C824A"/>
<path d="M46.8362 46.8869C46.8362 52.9302 41.9605 57.8265 35.9425 57.8265C29.9323 57.8265 25.0568 52.9302 25.0568 46.8869C25.0568 40.8435 29.9323 35.9475 35.9425 35.9475C41.9605 35.9475 46.8362 40.8435 46.8362 46.8869Z" fill="white"/>
<path d="M46.1164 46.8869C46.1164 52.5293 41.5615 57.0954 35.9424 57.0954C30.3313 57.0954 25.7766 52.5293 25.7766 46.8869C25.7766 41.2445 30.3313 36.6787 35.9424 36.6787C41.5615 36.6785 46.1164 41.2445 46.1164 46.8869Z" fill="#9C824A"/>
<path d="M40.1833 46.8868C40.1912 49.2367 38.2895 51.1464 35.9495 51.1541C33.6019 51.1541 31.7 49.2446 31.7 46.8948V46.8868C31.7 44.537 33.594 42.6275 35.9415 42.6275C38.2814 42.6197 40.1831 44.5294 40.1831 46.8791C40.1833 46.8868 40.1833 46.8868 40.1833 46.8868Z" fill="white"/>
<path d="M39.683 46.8867C39.683 48.9618 38.0157 50.6433 35.9499 50.6433C33.884 50.6433 32.2092 48.9697 32.2012 46.8949V46.887C32.2012 44.8124 33.876 43.1304 35.942 43.1304C38.008 43.1304 39.683 44.8044 39.683 46.879V46.8867Z" fill="#9C824A"/>
<path d="M37.8684 46.8866C37.8684 47.9474 37.0076 48.8118 35.9434 48.8195C34.8869 48.8195 34.026 47.9554 34.026 46.8866C34.026 45.818 34.8869 44.9614 35.9434 44.9536C37.0073 44.9534 37.8684 45.818 37.8684 46.8866Z" fill="white"/>
<path d="M37.3349 46.8866C37.3349 47.6567 36.7166 48.2853 35.9419 48.2853C35.175 48.2853 34.549 47.6644 34.549 46.8866C34.549 46.1167 35.175 45.488 35.9419 45.488C36.7086 45.4878 37.3349 46.1085 37.3349 46.8866Z" fill="#9C824A"/>
<path d="M37.3745 36.4429H34.479V43.2247H37.3745V36.4429Z" fill="white"/>
<path d="M36.9274 35.468H34.932V44.089H36.9274V35.468Z" fill="#9C824A"/>
<path d="M44.011 40.2695L45.5918 42.7057L39.926 46.3996L38.3531 43.9633L44.011 40.2695Z" fill="white"/>
<path d="M45.0675 40.1204L46.1553 41.8022L38.9554 46.5016L37.8676 44.8121L45.0675 40.1204Z" fill="#9C824A"/>
<path d="M31.8805 47.4368L33.43 49.8886L27.725 53.5195L26.1754 51.0597L31.8805 47.4368Z" fill="white"/>
<path d="M32.8512 47.2952L33.9233 48.9927L26.6766 53.6056L25.6043 51.9081L32.8512 47.2952Z" fill="#9C824A"/>
<path d="M37.3745 50.7769H34.479V57.5584H37.3745V50.7769Z" fill="white"/>
<path d="M36.9274 49.8103H34.932V58.4233H36.9274V49.8103Z" fill="#9C824A"/>
<path d="M33.1171 50.0537C33.5085 50.3837 33.9387 50.6824 34.4787 50.9103L34.4631 56.9614C31.7318 56.6078 29.6659 55.2562 28.1007 53.331L33.125 50.0537" fill="#EF0107"/>
<path d="M33.1171 50.0537C33.5085 50.3837 33.9387 50.6824 34.4787 50.9103L34.4631 56.9614C31.7318 56.6078 29.6659 55.2562 28.1007 53.331L33.125 50.0537" stroke="#EF0107" stroke-width="0.0688101" stroke-miterlimit="282"/>
<path d="M38.7595 50.0774C38.3604 50.3996 37.9377 50.7061 37.3979 50.926L37.4056 56.9774C40.1369 56.6238 42.203 55.2721 43.7682 53.3467L38.7518 50.0776" fill="#DB0007"/>
<path d="M38.7595 50.0774C38.3604 50.3996 37.9377 50.7061 37.3979 50.926L37.4056 56.9774C40.1369 56.6238 42.203 55.2721 43.7682 53.3467L38.7518 50.0776" stroke="#DB0007" stroke-width="0.0688101" stroke-miterlimit="282"/>
<path d="M40.1298 47.5391L46.1087 46.8159C46.1557 48.3167 45.7956 49.6371 45.2868 50.9024L40.1139 47.5391" fill="#DB0007"/>
<path d="M40.1375 47.5153C40.1609 47.421 40.1532 47.3347 40.1924 47.0596L46.0933 46.2896C46.1167 46.5646 46.101 46.6666 46.0933 46.7923L40.1375 47.5153Z" fill="white" stroke="white" stroke-width="0.0688101" stroke-miterlimit="282"/>
<path d="M48.8694 42.5254H56.6094C56.3666 43.4446 56.1318 44.3798 55.0204 44.7965C53.2439 45.4648 49.5581 46.1089 49.5581 46.1089C49.4875 45.095 49.2606 43.7195 48.8694 42.5254Z" fill="white"/>
<path d="M43.4788 35.4446L63.7008 35.468L62.9888 42.8865L49.1759 43.6097C48.4324 40.2932 45.9201 37.1264 43.4788 35.4446Z" fill="white"/>
<path d="M44.1987 35.9712L70.0164 35.9946L69.0302 42.0382L48.9959 43.0285C48.2054 40.0263 46.3979 37.8338 44.1987 35.9712Z" fill="#9C824A"/>
<path d="M48.8694 42.5254H55.9986C55.7639 43.3424 55.5994 44.089 54.5509 44.4583C52.8841 45.0556 49.5268 45.5272 49.5268 45.5272C49.3859 44.5451 49.1824 43.5469 48.8694 42.5254Z" fill="#9C824A"/>
<path d="M41.0436 24.6704C41.0436 25.0006 40.9732 25.9043 40.9342 26.1557H44.9411C44.6981 25.0867 44.5885 23.6016 44.5574 22.4542C44.5574 22.5328 44.4871 20.1515 44.4871 20.1515C44.4871 19.9864 44.5574 19.7351 44.6591 19.6565C44.8002 19.4914 44.9411 19.4914 45.1133 19.4914C45.2853 19.4129 45.5984 19.4129 45.6375 20.0652L45.7394 22.5328C45.7784 23.6879 45.7784 25.252 45.6375 26.1557H49.4958C49.4642 25.8256 49.3549 25.0004 49.3235 24.7567C49.8087 25.8256 50.8574 26.3991 52.2504 26.3991C53.0799 26.3991 53.7137 26.0767 54.199 25.7468C54.199 25.8253 54.4026 26.1557 54.4026 26.1557H61.5712C61.258 25.0867 61.0545 23.6016 60.9451 22.4542L59.9354 14.3912L56.2494 13.7311C56.5627 14.7999 56.7739 16.3637 56.9067 17.4326L57.4701 22.6193C57.572 23.5231 57.6425 24.5133 57.6425 25.5819V25.6605L57.5014 25.3303C57.2198 24.6702 57.0866 23.853 56.977 22.6191L56.8441 20.9687C56.6328 18.3361 55.2085 17.1885 52.0702 17.1885C51.5538 17.1885 50.2312 17.267 49.4252 17.5186L49.6364 20.4735L50.4739 19.9862C51.1705 19.5698 51.687 19.4047 52.3128 19.4047C52.8061 19.4047 53.119 19.57 53.2599 19.8999C52.6654 19.9862 52.0076 20.1513 51.2722 20.4735C50.1608 20.9685 49.4642 21.7149 49.1513 22.5324V22.4538L49.0417 19.7346C48.9793 18.0057 47.8602 16.8583 46.1539 16.8583C45.3949 16.8583 44.6981 17.102 44.0723 17.5184C44.0333 17.4319 44.0019 17.3531 43.9627 17.2668L43.8218 16.9367L40.6208 16.7716C40.7618 17.3531 40.9732 18.9957 41.0045 19.5695C40.8321 18.7521 40.3783 17.8484 39.5408 17.1883C38.8837 16.7718 38.0462 16.5282 37.1776 16.5282C35.9956 16.5282 34.7749 17.0232 33.9766 17.8484C33.1394 18.6656 32.7243 19.8209 32.6853 21.1334C32.3724 20.8032 31.9576 20.481 31.4723 20.3162L30.0088 19.5695H29.9384C29.5942 19.4042 29.5549 19.3257 29.5549 19.2471C29.5942 19.082 29.9384 18.917 30.3924 18.917C31.0185 18.917 31.8873 19.2471 32.5837 19.6558L32.654 17.0232C32.1296 16.7716 31.4019 16.6145 30.3532 16.6145C29.7975 16.6145 28.7567 16.693 27.8488 17.188C27.6061 17.3531 27.3948 17.5182 27.1915 17.6833L27.2228 16.9364C26.3855 16.7793 25.4854 16.7793 24.374 17.8481C24.335 17.7616 24.2644 17.3529 24.1941 17.188L20.7508 17.3531C20.9934 18.3356 21.0324 19.7344 20.9621 20.9683L20.8917 22.2885V22.4536C20.8525 23.1137 20.8214 23.8523 20.7508 24.5124C20.469 23.6007 20.1638 22.3671 19.9133 21.3848L18.2074 13.6519L13.3397 14.3905C13.371 14.4691 13.4413 14.7207 13.4806 14.9641C13.5121 15.2943 13.5121 15.9544 13.0581 17.3531C12.2598 19.5695 11.1484 22.9486 10.0686 25.3297C9.9277 25.6598 9.6461 26.1548 9.6461 26.1548H13.4415C13.5121 25.581 13.7547 24.591 13.9972 23.8521C14.5216 23.8521 15.8755 23.8521 16.5014 23.7656C16.6423 24.3471 16.7832 25.0858 16.8224 25.5808L16.885 26.1546H24.4761C24.3039 24.9207 24.3743 23.2781 24.4371 22.3666C24.5074 21.2978 24.7187 20.5591 25.1727 20.1504C25.5169 19.734 25.9004 19.6554 26.1822 19.6554C26.1432 21.1327 27.0824 21.793 27.9196 22.2015L29.4143 22.9479C29.9386 23.2781 29.9386 23.3567 29.9386 23.5217C29.9073 23.7654 29.4846 23.8519 29.1014 23.8519C28.3031 23.8519 27.223 23.3567 26.0413 22.0444L25.971 25.4943C26.9101 25.9893 28.0919 26.233 29.1406 26.233C30.878 26.233 32.7248 25.4155 33.2101 23.8517C34.0787 25.4941 35.7848 26.233 37.4596 26.233C38.954 26.2343 40.0652 25.7468 41.0436 24.6704ZM14.9051 21.2989C15.1163 20.7253 15.2883 20.2301 15.6014 19.3263C15.8127 20.2301 15.9144 20.8039 16.0162 21.2203C15.6014 21.2989 15.3902 21.2989 14.9051 21.2989ZM36.2071 20.3952C36.2071 19.2478 36.6219 18.7528 37.0369 18.7528C37.1778 18.7528 37.4907 18.6662 37.6314 19.2478C37.7017 19.4914 37.733 19.6565 37.733 19.7351C37.733 20.0652 37.561 20.1515 37.3498 20.1515V20.2301C37.3498 20.2301 36.7628 20.3952 36.2071 20.6465C36.2071 20.5602 36.2071 20.4817 36.2071 20.3952ZM40.1748 22.7842C39.4389 23.4365 38.9148 23.853 38.0462 23.853C37.3498 23.7665 36.9348 23.3578 36.6922 22.7842C37.4201 22.5328 40.2374 21.464 41.0434 21.1338C41.0434 21.7939 41.0749 22.5326 41.0749 22.5326V23.9316L40.1748 22.7842ZM53.1501 23.9318C52.4929 23.9318 52.3518 23.4365 52.3205 23.1143C52.3518 22.7842 52.4535 22.2892 53.502 21.9592C53.5335 22.3679 53.5723 22.6979 53.5723 22.6979V23.0278C53.6039 23.2792 53.6039 23.5228 53.635 23.7665C53.5022 23.853 53.3302 23.853 53.1501 23.9318Z" fill="#9C824A"/>
<path d="M32.0602 17.4324C31.716 17.3538 31.1916 17.1887 30.3543 17.1887C29.697 17.1887 28.8282 17.3538 28.1629 17.684C27.396 18.179 26.8403 18.8313 26.809 19.578C26.7386 20.7253 27.3333 21.2204 28.2019 21.6291C28.7889 21.9592 29.3523 22.2892 29.6968 22.4543C30.1506 22.6979 30.5654 22.9493 30.5341 23.5231C30.495 24.0969 29.9707 24.5134 29.1021 24.5134C28.3742 24.5134 27.3333 24.0183 26.5977 23.358L26.5664 25.0869C27.1924 25.4171 28.2019 25.582 29.1411 25.582C30.7376 25.582 32.7253 24.8433 32.7566 23.0278C32.7956 21.6291 31.8177 21.1338 31.2307 20.8116C30.6359 20.5603 30.041 20.2303 29.7673 20.1515C29.4855 19.9865 28.9298 19.8216 28.9691 19.1613C29.0317 18.5877 29.697 18.3361 30.3934 18.3361C30.9804 18.3361 31.5751 18.5012 32.0289 18.7526" fill="white"/>
<path d="M17.7632 14.3909L14.0694 14.8859C14.14 15.3811 13.9991 16.3634 13.6156 17.5186C12.8566 19.7348 11.6044 23.436 10.6259 25.5814H12.927C13.0599 24.835 13.2322 24.1826 13.5843 23.2789L16.9965 23.1924C17.1295 23.8525 17.38 24.9213 17.4113 25.5814H20.5104C20.1269 24.6699 19.6418 22.7837 19.3289 21.4635L17.7632 14.3909ZM14.0694 21.8724L15.7442 17.0235L16.7539 21.7938" fill="white"/>
<path d="M26.5975 17.4324L26.5271 19.0827C25.9714 18.9964 25.2751 19.1613 24.7194 19.7351C24.234 20.2301 23.9211 20.969 23.8508 22.2892C23.7802 23.358 23.7489 24.5919 23.8115 25.582H21.2053C21.3775 24.5919 21.4481 23.4443 21.4792 22.368L21.5495 21.0555C21.6199 19.9867 21.6199 18.9179 21.4479 17.9278L23.7487 17.8493C23.8506 18.1794 23.9209 18.753 23.8819 19.3266C24.8914 17.7623 25.8696 17.4324 26.5975 17.4324Z" fill="white"/>
<path d="M59.4203 14.8859L57.049 14.4695C57.2917 15.5463 57.3621 16.2849 57.503 17.3535L58.0589 22.5325C58.1683 23.6014 58.2701 24.5916 58.2386 25.5817H60.8135C60.563 24.5916 60.4614 23.6014 60.3595 22.5325" fill="white"/>
<path d="M48.8001 25.5817C48.6669 24.5917 48.5964 23.6014 48.5571 22.5326L48.4554 19.8214C48.3851 18.3361 47.5478 17.5189 46.1546 17.5189C45.3956 17.5189 44.4876 17.7625 43.7209 18.7526C43.6895 18.5012 43.5799 17.8488 43.4393 17.5189L41.3576 17.4324C41.5296 18.4226 41.6002 19.4049 41.6313 20.4738L41.6705 22.5326C41.7019 23.6014 41.6705 24.5917 41.6002 25.5817H44.2062C44.073 24.5917 44.0027 23.6014 43.9634 22.5326L43.8931 20.2301C43.8618 19.4049 44.4878 18.8311 45.114 18.8311C45.8417 18.8311 46.1939 19.3262 46.2254 20.065L46.3348 22.5326C46.3663 23.6014 46.3663 24.5917 46.2958 25.5817" fill="white"/>
<path d="M56.9483 25.5814C56.6354 24.7562 56.4631 23.7662 56.3926 22.6973L56.2514 21.0547C56.1105 19.0822 55.2814 17.762 52.0725 17.762C51.5168 17.762 50.7186 17.8485 50.0615 18.0056L50.1631 19.4909C50.8203 19.0822 51.4858 18.7522 52.323 18.7522C53.1916 18.7522 53.9195 19.1609 53.9901 20.3946C53.1526 20.4811 52.3857 20.6383 51.5171 21.0547C50.5468 21.4634 49.5371 22.2886 49.6388 23.6009C49.7404 25.0862 50.8595 25.7463 52.2527 25.7463C53.3325 25.7463 54.0604 25.2512 54.4752 24.7562C54.5456 25.0862 54.6552 25.3298 54.7568 25.5814H56.9483ZM53.1526 24.5126C52.3854 24.5126 51.7599 24.0961 51.7283 23.1924C51.7283 22.2886 52.284 21.55 54.0604 21.2984L54.1623 22.6973C54.2014 23.1924 54.2014 23.5225 54.2717 23.9313C54.0216 24.2612 53.6066 24.4263 53.1526 24.5126Z" fill="white"/>
<path d="M39.1975 17.6834C38.603 17.2669 37.9064 17.1018 37.1787 17.1018C35.4726 17.1018 33.2108 18.3357 33.2812 21.4634C33.3125 24.6699 35.7542 25.6599 37.4603 25.6599C38.9549 25.6599 39.863 25.0861 40.5905 24.3474L40.0661 23.6008C39.6828 23.931 39.0566 24.426 38.0471 24.426C36.967 24.3474 36.2784 23.6008 35.8949 22.4534L40.6218 20.7245C40.4809 19.1609 39.9254 18.2572 39.1975 17.6834ZM37.562 20.7247L35.6836 21.4634C35.6446 21.1335 35.6133 20.8033 35.6133 20.3946C35.6133 18.5006 36.6541 18.1706 37.006 18.1706C37.562 18.0921 38.0471 18.422 38.2268 19.0821C38.4305 19.821 38.3602 20.4811 37.562 20.7247Z" fill="white"/>
<path d="M26.4246 42.1477L28.0132 39.7192L33.6635 43.4285L32.0747 45.8646L26.4246 42.1477Z" fill="white"/>
<path d="M25.9027 41.3148L26.9984 39.6331L34.1747 44.356L33.079 46.038L25.9027 41.3148Z" fill="#9C824A"/>
<path d="M38.4861 49.8807L40.0746 47.4443L45.7248 51.1615L44.1362 53.5979L38.4861 49.8807Z" fill="white"/>
<path d="M37.9612 49.0478L39.0569 47.3662L46.2334 52.0892L45.1377 53.7632L37.9612 49.0478Z" fill="#9C824A"/>
</svg>
