<svg width="85" height="84" viewBox="0 0 85 84" fill="none" xmlns="http://www.w3.org/2000/svg">
<ellipse cx="42.3235" cy="42.0613" rx="41.9825" ry="41.9341" fill="white"/>
<path d="M37.8805 0.318242C43.8423 -0.22095 49.9303 0.359722 55.6005 2.33748C63.2094 4.90901 70.0067 9.77701 74.9697 16.1011C79.8784 22.3116 82.9529 29.9498 83.7318 37.8368C84.0865 42.1023 83.9559 46.4333 83.066 50.6289C81.8258 56.6496 79.2387 62.3864 75.5442 67.2937C71.7321 72.369 66.7669 76.5712 61.1227 79.455C55.2698 82.4522 48.7031 84.061 42.1277 83.9933C35.226 84.0631 28.3351 82.2819 22.2689 78.9965C15.2279 75.1873 9.32273 69.2999 5.46928 62.2663C2.80178 57.4027 1.11984 51.9977 0.541026 46.4748C0.0210366 40.679 0.480085 34.7479 2.32309 29.2097C4.83618 21.2638 9.8275 14.1495 16.3702 9.01953C22.5257 4.14934 30.0845 1.11284 37.8805 0.318242ZM36.34 1.58436C26.6663 2.95962 17.5583 7.96297 11.2178 15.42C6.65511 20.7704 3.45009 27.2953 2.13593 34.2218C1.30911 38.0114 1.47885 41.9189 1.57021 45.7697C2.12505 52.7333 4.62504 59.5049 8.56984 65.2505C15.2344 75.0825 26.3986 81.723 38.2178 82.7469C40.1717 82.8538 42.1299 82.8254 44.0838 82.8145C46.9059 82.8188 49.7062 82.3386 52.4303 81.6314C58.0614 80.1753 63.3552 77.4597 67.8591 73.7727C76.3318 66.9007 81.9128 56.4749 82.707 45.5536C82.7484 41.9713 82.9551 38.3411 82.2305 34.809C81.1448 28.5396 78.5316 22.5452 74.6869 17.4851C70.6203 11.9774 65.0762 7.60715 58.8686 4.77366C53.8925 2.55796 48.4616 1.21543 42.9981 1.30712C40.7765 1.31367 38.542 1.25473 36.34 1.58436ZM15.576 66.7458C16.1635 65.7001 17.1231 64.9448 17.9782 64.1306C18.8202 64.8116 19.536 65.628 20.3172 66.3747C20.0865 66.6497 19.8494 66.9204 19.6079 67.1867C19.0726 66.8898 18.5874 66.3135 17.9194 66.4357C18.2176 66.9248 18.5483 67.3898 18.879 67.8591C18.5874 68.0774 18.2893 68.2869 17.976 68.4724C17.6387 68.2148 17.3668 67.7782 16.9338 67.6997C16.3899 68.0904 15.9917 68.6821 15.3455 68.9222L15.4629 68.7869C15.9329 68.2564 16.4464 67.7673 16.9511 67.2697C17.3668 67.6233 17.7802 67.9769 18.2022 68.324C18.3285 68.1101 18.4547 67.8983 18.5809 67.6845C18.2523 67.3352 17.9259 66.9837 17.5995 66.6322C17.8346 66.3943 18.0717 66.1564 18.3067 65.9184C18.6897 66.2742 19.0748 66.6257 19.4642 66.9728C19.6318 66.8047 19.8015 66.6366 19.9712 66.4707C19.3946 65.7241 18.7158 65.0649 17.9803 64.4776C17.1578 65.2089 16.3985 66.0123 15.576 66.7458ZM65.7943 64.1481C66.1946 64.1786 66.595 64.1677 66.9975 64.172C67.6611 64.3554 67.8308 65.1413 68.3617 65.508C68.7164 65.794 69.1842 65.997 69.3757 66.438C69.5476 66.975 69.541 67.6364 69.1233 68.062C68.5249 68.7628 67.8439 69.3915 67.152 69.9984C66.2577 69.1841 65.4353 68.2957 64.5627 67.4574C64.2059 67.0797 63.8512 66.6999 63.4922 66.3245C64.2712 65.6128 64.9609 64.803 65.7943 64.1481ZM65.7725 64.4776C65.0762 65.0256 64.4996 65.7067 63.8774 66.3354C64.9 67.5251 66.0597 68.5904 67.1781 69.6862C67.9766 68.8326 69.4105 68.0904 69.2038 66.7327C69.1494 66.1039 68.4401 65.9511 68.0223 65.6193C67.709 65.2744 67.5327 64.8226 67.1803 64.5147C66.7821 64.2157 66.1642 64.1262 65.7725 64.4776ZM20.1432 67.4901C20.8002 67.4508 21.4595 67.453 22.1188 67.4901C21.4617 67.5687 20.798 67.5709 20.1432 67.4901ZM21.1092 68.7869C21.5444 68.6602 22.01 68.8349 22.2384 69.2344C22.5866 70.4 21.4747 71.8276 20.2563 71.6443C19.1357 70.8803 20.0996 69.1841 21.1092 68.7869ZM21.3028 68.9986C20.5979 69.1426 20.1997 69.8674 19.9408 70.4808C19.7298 70.9807 20.252 71.5832 20.7872 71.3976C21.416 71.1663 21.8881 70.5921 22.1188 69.9721C22.3451 69.4745 21.8359 68.8524 21.3028 68.9986ZM57.0648 71.3824C56.6666 70.6183 57.7546 70.4023 58.2137 70.0726C58.9252 71.0506 59.3756 72.1923 60.1001 73.1571C60.6571 73.3557 61.1576 72.8275 61.6645 72.6528C61.8386 73.0064 62.2694 73.4147 62.0518 73.8316C61.2272 74.4603 60.2851 74.9144 59.3712 75.399C58.6445 74.0347 57.7785 72.7511 57.0648 71.3824ZM57.154 70.913C57.7981 72.3647 58.6532 73.7225 59.5105 75.0563C60.3416 74.6372 61.138 74.1547 61.9322 73.6722C61.8125 73.4278 61.6906 73.1833 61.5666 72.9432C61.1119 73.1876 60.6745 73.4714 60.1915 73.6636C59.9369 73.5958 59.8782 73.2815 59.7302 73.0982C59.2254 72.2032 58.7272 71.3037 58.1854 70.4284C57.8416 70.5856 57.4978 70.7493 57.154 70.913ZM24.8756 70.5376C26.0853 70.2974 27.6345 70.579 28.1154 71.8713C28.3417 72.5917 28.3199 73.3623 28.1001 74.0805C28.0262 74.3926 27.7411 74.587 27.5431 74.8205C28.0457 73.8448 28.4483 72.5655 27.7107 71.5963C27.1275 70.7034 25.9918 70.6402 25.0366 70.5506L24.8756 70.5376ZM29.0706 72.1005C29.1619 72.0984 29.3447 72.094 29.4361 72.0918C30.2412 72.3931 31.0353 72.7271 31.8643 72.9607C32.0819 73.0305 32.2973 73.1026 32.5149 73.1746C32.4975 73.5762 32.4409 73.9757 32.2407 74.3316C31.9231 74.2814 31.6054 74.2202 31.2856 74.2334C30.9396 74.5302 30.8613 75.017 30.6981 75.4252C30.4761 76.1783 30.2259 76.9227 29.88 77.63C29.4274 77.5056 28.7616 77.5515 28.4983 77.1258C28.5048 76.3529 28.8225 75.5932 29.175 74.9165C29.2947 74.7375 29.4143 74.5608 29.5362 74.3862C29.2272 75.2615 28.9226 76.139 28.6354 77.021C29.0009 77.1672 29.3665 77.3134 29.732 77.4597C30.2216 76.2765 30.6154 75.0563 31.0658 73.86C31.4248 73.9342 31.7838 74.0041 32.1428 74.0761C32.1885 73.8382 32.2364 73.6024 32.2821 73.3666C31.3008 72.9737 30.3043 72.6114 29.2881 72.3167C29.2033 72.4498 29.0336 72.7162 28.9487 72.8515C29.2599 73.0632 29.5754 73.2728 29.8778 73.4998C29.8539 73.5653 29.8103 73.6963 29.7864 73.7618C29.4426 73.5391 29.0967 73.323 28.7485 73.1091C28.8573 72.7729 28.9639 72.4368 29.0706 72.1005ZM20.1518 72.9366C20.7132 72.8973 21.2789 72.8799 21.8381 72.9454C21.2854 73.0764 20.7088 72.9934 20.1518 72.9366ZM56.782 74.4189C57.1736 74.4626 57.5631 74.5106 57.9526 74.5673C57.822 75.5693 57.3303 76.6586 56.2968 76.986C55.496 77.2022 54.4821 77.2284 53.8772 76.5647C54.7236 76.8616 55.7245 77.1431 56.5491 76.628C57.2389 76.2526 57.5609 75.4995 57.711 74.7637C57.4848 74.7419 57.2563 74.7201 57.03 74.7027C56.8581 74.9646 56.6862 75.2244 56.51 75.4841C56.5927 75.1261 56.6841 74.7725 56.782 74.4189Z" fill="#BB8A1A"/>
<path d="M36.3402 1.58407C38.5421 1.25444 40.7767 1.31338 42.9982 1.30683C48.4618 1.21514 53.8926 2.55767 58.8688 4.77337C65.0764 7.60686 70.6204 11.9771 74.6871 17.4848C78.5318 22.5449 81.1449 28.5393 82.2307 34.8087C82.9552 38.3408 82.7485 41.971 82.7072 45.5533C81.913 56.4746 76.332 66.9004 67.8593 73.7724C63.3553 77.4594 58.0615 80.1751 52.4305 81.6311C49.7063 82.3383 46.906 82.8186 44.084 82.8142C42.1301 82.8251 40.1718 82.8535 38.2179 82.7466C26.3988 81.7227 15.2346 75.0822 8.57002 65.2502C4.62522 59.5046 2.12523 52.733 1.57039 45.7694C1.47903 41.9186 1.30929 38.0111 2.13611 34.2215C3.45027 27.295 6.65529 20.7701 11.218 15.4197C17.5584 7.96268 26.6664 2.95934 36.3402 1.58407ZM40.248 3.06412C40.248 5.92816 40.2415 8.79002 40.2502 11.6541C42.1693 11.7654 44.0992 11.8003 46.0183 11.6606C46.175 10.8966 46.1619 10.1107 46.0227 9.34449C45.1937 9.25718 44.3603 9.2288 43.5291 9.2157C43.3464 7.16808 43.6053 5.10737 43.3855 3.06194C42.339 3.03574 41.2924 3.03573 40.248 3.06412ZM32.1452 4.21672C32.0908 4.77119 32.1604 5.32566 32.2844 5.86486C32.7566 8.1133 33.1113 10.388 33.6704 12.6189C35.4699 12.3788 37.2693 12.0405 39.0186 11.5515C38.9403 10.9184 38.8076 10.2963 38.6444 9.68067C38.3833 9.70031 38.1222 9.73743 37.8655 9.78982C37.2627 9.77235 36.6622 9.75926 36.0595 9.72215C36.0965 9.50603 36.1313 9.28992 36.1683 9.07599C36.4903 8.95375 36.8341 8.8446 37.0756 8.58483C37.4499 8.51279 37.8241 8.45385 38.2005 8.39491C38.2158 7.692 38.0983 6.99345 37.8111 6.34947C37.4564 6.42151 37.1017 6.49791 36.7471 6.57431C36.2336 6.54594 35.707 6.51538 35.2414 6.27744C35.6309 6.0264 36.066 5.84739 36.4229 5.54615C36.8493 5.46756 37.2758 5.36714 37.6849 5.21652C37.4847 4.61838 37.5913 3.7823 37.1083 3.35445C35.4438 3.56838 33.8206 4.05081 32.1452 4.21672ZM49.3517 4.54852C48.1571 5.08335 47.7938 6.62452 48.2224 7.77931C48.6032 8.62848 49.4257 9.1262 50.0697 9.75271C49.9261 10.1784 49.6498 10.532 49.2973 10.8049C49.0623 10.3574 48.8338 9.90551 48.6162 9.44709C48.0048 9.53441 47.413 9.72215 46.8582 9.98847C47.0105 10.532 47.1715 11.093 47.537 11.5362C48.4117 12.6866 50.0893 12.9944 51.4013 12.5207C52.5023 12.1278 53.2094 10.914 53.0571 9.76144C52.9266 9.10219 52.5589 8.49314 52.0606 8.04782C52.6394 7.89501 53.2116 7.70291 53.7425 7.42131C54.1907 5.12264 51.2512 3.47233 49.3517 4.54852ZM26.2465 6.52411C26.4663 7.27941 26.8557 7.96486 27.2104 8.66123C27.0624 8.91445 27.045 9.2921 26.7665 9.44055C26.5054 9.47111 26.2422 9.44927 25.9811 9.43836C25.6112 8.69179 25.3044 7.91465 24.9127 7.17899C24.0489 7.51298 23.1568 7.82734 22.4236 8.41456C23.1111 9.94481 23.84 11.4554 24.5646 12.9682C25.0454 13.9658 25.4349 15.0115 26.0376 15.9458C26.908 15.6904 27.7217 15.2756 28.4876 14.7975C28.2135 14.0444 27.8305 13.3437 27.4737 12.632C27.5085 12.3526 27.5455 12.0754 27.5846 11.796C27.8849 11.6606 28.1874 11.5209 28.4833 11.3768C28.9315 12.2893 29.3079 13.2389 29.7866 14.1383C30.6896 13.9353 31.4968 13.4637 32.2931 13.0119C31.2096 10.436 29.9106 7.95831 28.7531 5.41517C27.8414 5.58762 27.0472 6.08315 26.2465 6.52411ZM56.7147 7.35582C55.7051 9.48639 54.5454 11.5449 53.5793 13.6951C55.1285 14.6556 56.7821 15.4459 58.4445 16.1815C58.8013 15.6227 59.0994 15.0267 59.2757 14.3871C58.6838 14.075 58.0789 13.7868 57.4849 13.4834C57.498 13.1385 57.5198 12.7958 57.5459 12.453C58.0202 12.5534 58.4967 12.6539 58.9732 12.7455C59.2387 12.8853 59.5041 13.0228 59.7739 13.1581C60.183 12.6058 60.5028 11.9881 60.6573 11.3135C60.1177 11.0057 59.5672 10.7176 59.0124 10.436C58.9884 10.2068 58.9667 9.97537 58.9471 9.74397C59.3779 9.79855 59.8087 9.85094 60.2417 9.90551C60.5681 10.0758 60.8966 10.2373 61.2317 10.3923C61.606 9.8182 61.9519 9.21788 62.1195 8.54553C60.5986 7.77931 59.1038 6.95634 57.5567 6.25123C57.0933 6.39095 56.9584 6.98035 56.7147 7.35582ZM18.0001 11.5493C15.9157 12.2631 14.5601 14.743 15.265 16.8757C15.6959 18.1091 16.5467 19.218 17.6759 19.8838C20.0106 21.1609 23.5006 19.8467 23.9967 17.1027L24.2382 17.1486C24.2883 16.4107 24.6625 15.3062 23.9945 14.8019C23.9532 14.7015 23.8705 14.4963 23.827 14.3959C23.1916 14.4679 22.5585 14.5858 21.9514 14.791C22.0885 15.8432 22.1037 17.1617 20.9766 17.6812C20.7242 17.4302 20.2151 17.452 19.9714 17.7052C19.1598 17.3843 18.4526 16.8037 18.0437 16.0244C17.6324 15.3367 17.6759 14.3522 18.3112 13.8087C19.0228 13.8108 19.7364 13.7475 20.424 13.5576C20.4893 13.5663 20.622 13.586 20.6873 13.5947C20.8222 12.8809 20.9658 12.1605 20.9222 11.4314C19.954 11.3332 18.9444 11.2393 18.0001 11.5493ZM65.3506 13.407C63.3945 14.4788 61.3601 15.4066 59.4367 16.5374C59.8479 17.0001 60.2287 17.5852 60.8444 17.7816C61.223 17.6878 61.5603 17.4848 61.9106 17.321C62.2783 17.3931 62.72 17.3494 63.0094 17.631C63.3793 17.9563 63.24 18.4998 63.2727 18.9342C63.2074 19.2311 62.8767 19.5891 63.1486 19.8707C63.6969 20.5256 64.3432 21.1063 65.0829 21.5385C65.727 19.5935 66.3776 17.6528 66.9933 15.6991C67.3632 14.4919 67.8789 13.324 68.103 12.0732C67.1239 12.3788 66.2535 12.9311 65.3506 13.407ZM41.3207 12.8547C36.5513 12.9311 31.821 14.2911 27.6804 16.6596C21.6446 20.1065 16.9057 25.7844 14.6211 32.3704C13.1218 36.5748 12.6976 41.124 13.1871 45.5511C13.9117 51.742 16.6772 57.6862 20.9853 62.1831C25.4871 67.0293 31.7187 70.1901 38.2571 71.0481C43.2985 71.6899 48.5183 71.0851 53.2225 69.1249C59.1821 66.6778 64.2627 62.17 67.459 56.5663C71.432 49.6769 72.3394 41.1284 70.0199 33.5317C68.053 26.9086 63.5947 21.1019 57.7961 17.3931C52.9287 14.2583 47.1019 12.6495 41.3207 12.8547ZM7.60178 29.2509C5.79151 29.7683 4.52086 31.6784 4.72757 33.5535C4.86245 35.0729 5.92206 36.4547 7.34501 36.9873C8.87464 37.5876 10.7415 37.1249 11.8229 35.8871C13.1023 34.514 13.1871 32.235 12.0688 30.7397C11.094 29.3601 9.20323 28.7619 7.60178 29.2509ZM74.3999 29.2466C72.6505 29.7377 71.3319 31.5015 71.4951 33.3418C71.4777 35.6514 73.7841 37.5702 76.0404 37.2165C78.1314 37.0266 79.8286 34.9987 79.6023 32.8921C79.5588 30.3577 76.7802 28.4585 74.3999 29.2466ZM6.8076 47.6576C6.29195 47.6358 5.60223 47.6074 5.37377 48.1881C5.1039 48.9347 4.82326 49.6769 4.4991 50.4038C4.24666 50.9561 4.72102 51.4189 5.08869 51.7638C5.0213 52.1502 4.88199 52.5409 4.96036 52.9382C5.09746 53.353 5.5152 53.5538 5.83069 53.8158C6.30505 54.1432 6.6836 54.5907 7.16006 54.916C7.63663 55.1758 8.14362 54.8789 8.60488 54.7348C9.0204 55.0011 9.5426 55.3635 10.0366 55.0492C10.7002 54.6191 11.3594 54.1825 12.0448 53.7852C12.5844 53.4556 12.43 52.757 12.3886 52.2309C12.7955 51.9668 13.3025 51.5957 13.1719 51.0325C12.9587 50.2292 12.7281 49.4324 12.5497 48.6225C12.3974 48.0659 11.7424 48.0047 11.2768 47.8869C11.0897 47.4153 10.8852 46.7845 10.2781 46.7604C9.4317 46.7473 8.59178 46.6448 7.74754 46.6142C7.18837 46.6186 7.00775 47.2429 6.8076 47.6576ZM74.117 46.874C73.7254 47.053 73.6884 47.5289 73.5556 47.8869C73.0574 48.0069 72.3437 48.0331 72.2001 48.6443C72.0217 49.4542 71.7867 50.251 71.5865 51.0565C71.4908 51.6219 71.9847 51.9908 72.3676 52.3052C72.3372 52.757 72.1805 53.3137 72.5635 53.6673C72.9682 54.0035 73.4643 54.1978 73.8885 54.5056C74.3433 54.7981 74.7937 55.2653 75.3877 55.1627C75.6771 55.0557 75.9012 54.833 76.1449 54.6497C76.5996 54.9335 77.2067 55.2456 77.7006 54.8527C78.2881 54.3462 78.8843 53.8463 79.4957 53.3683C80.0048 52.9688 79.7568 52.2812 79.6414 51.7572C80.057 51.4451 80.5053 50.9452 80.2442 50.3863C79.9156 49.6551 79.6523 48.8976 79.3542 48.1532C79.0997 47.5987 78.4447 47.6402 77.9356 47.6445C77.7702 47.2538 77.6201 46.7212 77.1371 46.636C76.5583 46.5705 75.9839 46.7343 75.4073 46.7299C74.9765 46.7561 74.513 46.6622 74.117 46.874ZM65.7944 64.1478C64.9611 64.8027 64.2714 65.6125 63.4924 66.3242C63.2944 66.5075 63.0986 66.693 62.9049 66.8829C62.6482 67.1428 62.3849 67.3959 62.1216 67.6492C62.5764 68.8848 64.0538 69.6335 64.0298 71.0328C63.8928 71.0153 63.6164 70.9826 63.4772 70.9673C62.6895 70.1553 62.1151 69.162 61.408 68.2823C60.8749 68.4722 60.4419 68.8433 60.0133 69.2013C60.6573 70.1749 61.2948 71.1856 62.1782 71.9606C62.2174 72.0347 62.2979 72.1788 62.3392 72.253C63.3009 72.9516 65.0155 72.6591 65.3593 71.393C65.8249 71.3057 65.8293 70.2229 65.3702 70.1225C65.3005 69.7842 65.1047 69.4938 64.9024 69.2253C64.7305 68.6511 64.4498 68.0727 64.5629 67.4571C65.4354 68.2954 66.2579 69.1838 67.1522 69.9981C67.8441 69.3912 68.5251 68.7625 69.1235 68.0617C69.5412 67.6361 69.5478 66.9747 69.3759 66.4377C69.1844 65.9967 68.7166 65.7937 68.3619 65.5077C67.831 65.141 67.6613 64.3552 66.9977 64.1717C66.9455 63.6915 65.875 63.6937 65.7944 64.1478ZM15.5762 66.7455C15.2106 67.086 14.8713 67.4527 14.534 67.8216C14.8408 68.1447 15.1519 68.4656 15.4631 68.7866L15.3456 68.9219C15.9918 68.6818 16.39 68.0901 16.934 67.6994C17.3669 67.778 17.6389 68.2145 17.9762 68.4722L17.8608 68.5399C18.0589 68.6621 18.2568 68.7843 18.4549 68.9066C18.2568 69.6925 17.9653 70.5525 18.4136 71.3122L18.5115 71.0808C19.0727 72.4954 20.9092 73.2201 22.2321 72.4365C22.3888 72.4604 22.6977 72.5085 22.8522 72.5325C22.8892 73.3926 22.9958 74.3727 23.8226 74.8486C24.7909 75.8549 26.6099 75.8942 27.5433 74.8202C27.7413 74.5867 28.0263 74.3923 28.1003 74.0803C28.3832 73.6917 28.7726 73.3817 29.2405 73.6807C29.2035 74.0912 29.1795 74.5037 29.1752 74.9162C28.8227 75.593 28.505 76.3526 28.4985 77.1255C28.7618 77.5512 29.4276 77.5053 29.8801 77.6297C30.2261 76.9224 30.4763 76.178 30.6983 75.4249C31.1291 74.8879 31.7035 74.519 32.3715 74.3531L32.2409 74.3313C32.4411 73.9754 32.4977 73.5759 32.5151 73.1743C32.2975 73.1023 32.0821 73.0302 31.8645 72.9604C31.3227 72.2159 30.2914 72.0806 29.4363 72.0915C29.3449 72.0938 29.1621 72.0981 29.0707 72.1002C28.7465 72.0413 28.4289 71.9628 28.1155 71.871C27.6347 70.5787 26.0855 70.2972 24.8757 70.5373C24.5472 70.5373 24.2447 70.701 23.9401 70.8036C23.9271 70.188 23.9118 69.5527 23.6181 68.9961C23.5833 69.09 23.5137 69.2799 23.481 69.376C23.159 68.6905 22.6912 68.005 21.9144 67.8107C21.2334 67.6623 20.424 67.5969 19.817 68.016C19.5471 67.957 19.2751 67.898 19.0054 67.8391C19.2055 67.6208 19.4057 67.4025 19.608 67.1864C19.8496 66.9201 20.0867 66.6494 20.3174 66.3744C19.5362 65.6277 18.8204 64.8114 17.9784 64.1303C17.1233 64.9446 16.1637 65.6998 15.5762 66.7455ZM20.1433 67.4898C20.7982 67.5706 21.4619 67.5685 22.119 67.4898C21.4597 67.4527 20.8004 67.4505 20.1433 67.4898ZM57.065 71.3821C57.7787 72.7508 58.6447 74.0344 59.3714 75.3987C60.2852 74.9141 61.2274 74.46 62.052 73.8313C62.2696 73.4144 61.8388 73.0061 61.6647 72.6525C61.1577 72.8272 60.6573 73.3554 60.1003 73.1568C59.3757 72.192 58.9253 71.0503 58.2138 70.0723C57.7547 70.402 56.6668 70.618 57.065 71.3821ZM52.4958 74.1522C52.4696 74.9098 52.7721 75.7196 53.4248 76.1453C53.5663 76.2937 53.7164 76.4334 53.8774 76.5644C54.4823 77.2281 55.4962 77.2019 56.2969 76.9857C57.3305 76.6583 57.8222 75.569 57.9527 74.567C57.5633 74.5103 57.1738 74.4623 56.7821 74.4186C56.6842 74.7722 56.5929 75.1258 56.5102 75.4838C56.4579 75.5602 56.3535 75.7152 56.3013 75.7916C55.9205 75.6759 55.5289 75.593 55.1611 75.4446C54.7173 75.0778 54.5954 74.4775 54.3953 73.9666C54.6041 73.6851 54.7978 73.386 55.0632 73.1568C55.5419 73.1634 56.0054 73.3008 56.4667 73.4166C56.7582 73.0652 56.9889 72.6678 57.028 72.205C56.4471 71.9235 55.8422 71.6113 55.1807 71.6615C53.8644 71.7575 52.6894 72.8424 52.4958 74.1522ZM20.152 72.9363C20.709 72.9931 21.2856 73.0761 21.8383 72.9451C21.2791 72.8796 20.7134 72.897 20.152 72.9363ZM33.157 73.3817L33.3267 73.4254C33.1918 73.8684 33.0677 74.3159 32.9807 74.77C32.613 75.2437 32.4455 75.8178 32.5978 76.4116C32.3976 77.0927 32.1909 77.7825 32.1996 78.5029C32.1626 78.8762 32.811 78.9701 32.9698 78.6688C33.2505 78.778 33.5442 78.8631 33.8423 78.9176C34.2601 79.4263 35.1631 79.363 35.6309 78.9526C36.3445 78.3566 36.4642 77.4202 36.3184 76.5491C36.3402 76.4793 36.3815 76.3396 36.4033 76.2719C36.486 76.2369 36.6513 76.1671 36.7362 76.1322C37.08 75.3114 36.7057 74.2308 35.8289 73.9427C35.0608 73.3729 34.0795 73.2856 33.157 73.3817ZM39.3646 73.9077C38.7293 75.0647 38.1984 76.2741 37.5848 77.442C37.2715 78.0642 36.8842 78.6732 36.8015 79.3804C36.8559 79.8083 37.8328 79.804 37.8306 79.3521C38.1026 79.0181 38.3702 78.6797 38.6422 78.3457C39.3146 78.4155 39.456 79.1556 39.7019 79.6621C40.2154 79.7123 40.7288 79.745 41.2467 79.7669C41.0269 78.6841 40.6244 77.6515 40.3176 76.5928C40.0326 75.6868 39.8433 74.7395 39.3646 73.9077ZM45.6897 74.2504C45.396 74.8006 45.6745 75.4228 45.7507 75.9947C46.0074 77.0621 45.8508 78.2366 46.4339 79.2146L46.4491 79.4285L46.5731 79.5922C47.4282 79.7646 48.3203 79.435 49.1102 79.112C49.3386 79.0661 49.5649 79.0115 49.7912 78.9504C49.7324 78.5181 49.6693 78.0881 49.5975 77.6581C49.108 77.5489 48.6075 77.5512 48.1115 77.5576C47.9853 76.9224 47.9265 76.2762 47.8656 75.6345C47.7916 75.3528 47.8765 74.8595 47.4826 74.8093C47.45 74.5605 47.4195 74.3138 47.3891 74.0649C46.8408 73.7856 46.1924 73.9514 45.6897 74.2504ZM41.9604 74.3989C41.943 75.1368 41.8559 75.9074 42.1497 76.608C42.1562 77.0555 42.1714 77.5053 42.2019 77.9528C41.882 78.5269 42.0757 79.2146 42.1431 79.8279C43.3116 79.9436 44.4822 79.7865 45.6397 79.6205C45.668 79.1709 45.6745 78.7234 45.6615 78.2759C45.087 78.2475 44.5148 78.2257 43.9404 78.2104C43.9208 76.9355 44.0274 75.6541 43.8446 74.388C43.2202 74.2723 42.5827 74.2745 41.9604 74.3989ZM45.6288 19.4538C46.0814 19.9973 46.2707 20.7352 46.8451 21.1849C48.1484 22.4532 50.0654 22.5383 51.7625 22.7806C52.1172 23.5054 52.796 23.9507 53.4031 24.444C52.9744 25.5377 52.1716 26.4109 51.5188 27.367C51.1293 27.1138 50.7507 26.5222 50.2307 26.7711C49.5127 27.116 49.1189 27.963 49.2842 28.7423C49.7564 28.7838 50.2307 28.7947 50.7029 28.7641C50.6942 29.1243 50.6811 29.4823 50.6855 29.8425C50.7072 30.2856 50.7616 30.7244 50.8138 31.1654C50.098 30.7462 49.2646 30.0564 48.3943 30.4559C47.4282 30.9493 47.4631 32.2678 47.7242 33.1715C47.8743 33.8504 48.4444 34.2957 49.0471 34.5664C49.6998 34.5402 50.2111 34.132 50.6876 33.7304C50.8334 34.0949 50.977 34.4595 51.1097 34.8306C51.0989 35.5007 51.0815 36.2735 50.544 36.7581C49.8739 37.4829 48.8295 37.4741 47.9243 37.5265C47.7263 38.8057 48.6859 39.7881 48.8382 41.0018C49.1885 43.1607 49.4996 45.3895 50.5984 47.3193C51.1924 48.5832 52.35 49.5896 53.7382 49.8493C54.8 50.0676 56.0445 49.7533 56.6864 48.8255C57.2804 47.924 57.2739 46.7364 56.9519 45.7366C56.3013 43.8637 54.5715 42.663 53.7577 40.8839C53.2812 39.8405 53.3139 38.5394 53.9819 37.5855C54.8848 36.2495 56.2578 35.3545 57.4088 34.2564C57.9789 33.6998 58.5272 33.0318 58.6381 32.2154C58.7796 30.8117 57.2956 29.4779 55.9162 29.8949C55.1938 30.0717 54.8761 30.803 54.5497 31.3946C54.4127 31.6238 54.2712 31.853 54.1298 32.0779C54.1298 31.4317 54.1429 30.7812 54.2669 30.1459C54.4714 29.836 54.6933 29.5391 54.9436 29.2618C56.582 27.8473 59.4454 28.1944 60.6377 30.039C61.0838 31.1719 61.0859 32.5123 60.4288 33.5666C59.354 35.3217 57.4436 36.2582 55.9727 37.6182C55.4919 38.0483 55.1742 38.618 54.9022 39.1943C55.927 38.4543 57.0737 37.7601 58.3923 37.8474C59.4106 37.9631 60.2787 38.6093 60.8597 39.4322C61.4232 40.718 61.0033 42.2112 59.948 43.0974L59.7848 43.2655C59.9197 42.4207 60.2308 41.4166 59.5955 40.6962C58.8688 39.6025 57.102 39.5392 56.2948 40.5652C55.8748 41.0324 55.8748 41.696 55.8814 42.2854C56.8866 43.6999 58.2595 44.942 58.6664 46.6993C59.1125 48.1423 58.562 49.9017 57.1912 50.6265C55.5659 51.5018 53.5924 51.1548 51.9496 50.5042C51.8278 50.4344 51.5841 50.2968 51.4622 50.227C51.0031 49.9323 50.544 49.6376 50.0654 49.3713C50.2851 50.716 50.9814 52.0039 52.1324 52.7614C53.216 53.5167 54.5954 53.4731 55.8313 53.2067C55.5115 53.6193 55.172 54.0188 54.8848 54.4576C53.3269 56.6231 53.4118 59.4063 53.5706 61.9429C53.6555 62.6655 52.9396 62.886 52.3761 62.9929C51.8648 63.0388 51.7081 63.5758 51.4644 63.9382L51.3317 63.7919L51.2272 63.674C51.1272 63.3968 51.0379 63.1152 50.9487 62.8358C50.7986 62.8205 50.5005 62.7899 50.3504 62.7746C49.6737 62.7288 49.3647 63.34 49.1058 63.8552C48.9927 63.9469 48.7642 64.1281 48.6511 64.2197C48.6206 63.6828 48.5945 63.1479 48.5706 62.6131C48.1528 62.6437 47.7329 62.6764 47.3195 62.7419C46.9496 62.7834 46.6188 62.9602 46.3077 63.1523C46.1358 63.5496 46.0052 63.9643 45.8464 64.3704C45.7768 64.2613 45.6397 64.0451 45.5701 63.9382C45.5744 62.9034 44.9326 61.4998 45.9878 60.7794C47.2128 59.9848 48.7468 60.2795 50.1241 60.1376C50.7856 59.0265 51.3752 57.7931 51.3404 56.4703C51.3077 55.7237 51.0815 54.9073 50.4744 54.4248C49.7781 54.1498 48.9796 54.3004 48.2855 54.0079C47.6698 53.5691 47.5697 52.7068 47.0214 52.2135C46.4861 52.0236 45.9052 52.0432 45.346 52.0389C43.9578 52.2135 42.426 52.8662 41.8081 54.2065C41.4295 55.0753 42.1801 55.9005 42.9417 56.2105C43.3181 56.3786 43.7076 56.5117 44.0927 56.658C43.9164 56.7388 43.7358 56.8152 43.5574 56.8916C42.8416 57.1928 42.0496 57.4548 41.5557 58.0922C40.7506 59.1138 40.7615 60.5197 40.0587 61.5959C39.5887 62.2682 38.6531 62.0499 37.9808 62.3402C37.5913 62.7244 37.5587 63.3269 37.3563 63.8159C37.2214 63.2855 37.0887 62.7528 36.9603 62.2224C36.5121 62.2136 36.066 62.2027 35.62 62.218C35.0782 62.5323 34.6605 63.017 34.4994 63.6304C34.4581 63.7439 34.3732 63.9687 34.3319 64.0823C34.2732 63.9884 34.1557 63.8006 34.0969 63.7068C34.1143 63.1981 34.1622 62.6917 34.2122 62.1874C33.6574 62.194 33.1026 62.194 32.5499 62.2355C32.4324 62.3097 32.1952 62.4581 32.0756 62.5345C31.6078 62.7463 31.8558 63.7111 31.2618 63.5998L31.227 63.4536C31.1639 62.5782 31.0268 61.7072 30.9855 60.8296C30.9398 60.3625 31.2292 59.9041 31.6622 59.7382C33.3049 59.1116 35.2088 60.0896 36.7754 59.1771C38.4355 58.173 38.8424 56.0948 39.2428 54.3419C38.5965 53.8725 37.6196 53.4709 37.6261 52.5278C37.526 51.7834 37.8633 51.0543 38.4377 50.5894C40.3938 48.8495 43.0679 48.3387 45.2132 46.9067C45.9226 46.4483 46.5362 45.6166 46.2751 44.7303C46.1032 43.8811 45.2916 43.4642 44.5779 43.1455C44.641 43.772 44.8129 44.4072 44.6997 45.0381C44.2211 45.7279 43.2637 45.6821 42.5413 45.944C42.3868 45.7126 42.2302 45.4812 42.0779 45.2498C41.7123 44.6888 41.4077 44.0951 41.09 43.5078C39.7693 45.1472 38.1614 46.7102 36.0421 47.1905C35.6069 46.8609 35.2088 46.4396 34.6757 46.2737C33.2179 46.0597 31.5011 47.0835 31.536 48.6946C31.4054 48.7295 31.1465 48.795 31.0159 48.8299L31.0072 48.6422C30.9789 48.1161 30.9354 47.5922 30.8897 47.0682C30.3632 47.2276 29.8519 47.4372 29.3536 47.6707C29.4167 47.1643 29.4972 46.66 29.5842 46.158C29.2927 46.2256 29.0011 46.2955 28.7139 46.3806C28.5594 46.4636 28.2526 46.6295 28.1003 46.7124C28.2156 46.123 28.4593 45.5729 28.7618 45.0577C28.3418 45.097 27.9219 45.1254 27.515 45.2389L27.2343 45.3393C27.3627 44.4749 28.1634 43.9204 28.9337 43.6606C30.4829 43.2895 32.1931 43.748 33.6487 42.9621C34.8215 42.329 35.9442 41.6021 37.1126 40.9581C38.5073 40.1286 39.9695 39.4126 41.2859 38.4565C40.3611 38.3888 39.4277 38.3189 38.5421 38.0264C38.3615 37.6968 38.1744 37.3715 37.9851 37.0485C37.5413 37.544 37.0952 38.0679 36.4838 38.3582C35.8572 38.6791 35.1348 38.6638 34.4494 38.6857C34.0577 38.3997 33.6813 38.0985 33.3332 37.7623C33.9316 37.5789 34.9934 37.8147 35.1283 36.9852C35.348 36.2626 34.6822 35.7605 34.1121 35.5007C33.1374 35.1144 32.1126 34.8851 31.0943 34.6516C31.0921 37.2275 31.0769 39.8034 31.1095 42.3792C30.8636 42.4185 30.6178 42.4578 30.3741 42.4928C30.2087 39.8274 30.3762 37.1532 30.3001 34.4835C29.9889 34.4507 29.6756 34.4202 29.3667 34.3831C28.975 34.3307 28.529 34.2761 28.2592 33.9552C28.0329 33.4771 27.8914 32.9663 27.6934 32.4773C27.4062 31.9316 28.0394 31.4077 27.824 30.8554C27.7522 30.4821 27.6173 30.063 27.8566 29.7203C28.1264 29.1789 28.7988 29.1003 29.3362 29.1461C29.6691 29.1527 30.002 29.1658 30.3349 29.1767C30.3349 29.0217 30.3371 28.7095 30.3371 28.5546C30.0042 28.5349 29.6713 28.5174 29.3405 28.4956C28.8553 28.4738 28.3766 28.3865 27.9088 28.262C28.1917 28.0656 28.5007 27.9149 28.8183 27.7861C28.5942 27.6181 28.3679 27.4543 28.1591 27.2688C27.428 26.2581 26.9428 25.0072 27.143 23.7411C27.2539 22.5711 28.0612 21.6498 28.8423 20.8422C30.5285 19.9384 32.6565 20.8836 33.5747 22.4575C34.3254 24.1646 33.8793 26.3345 32.3932 27.4936C31.9385 27.9171 31.2074 28.0961 31.0029 28.7401C31.0769 29.0959 31.0747 29.4954 31.2836 29.8076C31.7884 30.1743 32.415 30.3075 32.9981 30.5061C33.801 30.8248 34.643 31.1064 35.3654 31.5932C36.2031 32.3529 37.0887 33.0864 37.7458 34.0185C38.1984 34.6581 38.194 35.4767 38.3202 36.2233C39.3167 36.0508 39.9064 35.086 39.9782 34.1342C39.9804 33.6016 39.6801 33.0231 40.0217 32.5385C40.6875 31.3116 41.4926 30.0957 41.6449 28.6724C40.6135 28.1987 39.3929 27.7076 39.0556 26.496L38.9751 26.3083C39.4473 26.5681 39.8585 26.9632 40.3916 27.0942C40.855 27.1509 41.3033 26.9719 41.7363 26.8278C43.0135 26.52 43.8555 24.9592 43.1919 23.7673C42.8198 22.9924 41.8538 23.1692 41.1531 23.1452C41.7341 22.2436 42.8699 22.1236 43.8446 22.1366C44.245 22.1301 44.6475 22.1214 45.0501 22.1126C45.0609 21.1958 45.2285 20.2833 45.6288 19.4538ZM29.754 22.9858C29.5538 23.2631 29.3275 23.525 29.1752 23.8328C28.9968 24.2978 29.3144 24.7366 29.4798 25.1513C30.0303 25.5792 30.5503 26.0747 30.6874 26.7929C31.8602 26.2253 32.7675 24.7213 32.1648 23.4486C31.71 22.558 30.5155 22.4008 29.754 22.9858ZM47.2259 24.3938C47.7437 25.0269 48.6837 25.7232 49.5127 25.2714C49.0928 24.9265 48.6728 24.5576 48.5118 24.0162C48.0701 24.0751 47.3325 23.7695 47.2259 24.3938ZM49.034 23.9856C48.9622 24.4593 49.2233 24.7889 49.6955 24.8413C49.8151 24.5357 49.9348 24.2323 50.0523 23.9267C49.7129 23.9441 49.3734 23.9638 49.034 23.9856ZM28.4354 29.8381C28.4093 30.2071 28.3875 30.576 28.3766 30.9471C29.123 31.0431 29.8801 31.0366 30.6243 30.9187C30.0607 30.314 29.3514 29.5587 28.4354 29.8381ZM28.6682 31.4666C28.2243 31.5976 28.418 32.1324 28.3462 32.473C29.1164 32.7327 29.9824 32.497 30.646 32.0669C30.0346 31.7439 29.371 31.4579 28.6682 31.4666ZM28.6377 33.0995C28.6399 33.2719 28.6443 33.6212 28.6465 33.7958C29.2448 33.798 29.8388 33.6911 30.398 33.4684C29.9041 33.0711 29.2513 32.8048 28.6377 33.0995Z" fill="#00318A"/>
<path d="M40.2486 3.06407C41.293 3.03569 42.3396 3.03569 43.3861 3.06189C43.6059 5.10732 43.347 7.16803 43.5297 9.21565C44.3609 9.22875 45.1943 9.25713 46.0232 9.34445C46.1625 10.1107 46.1756 10.8965 46.0189 11.6606C44.0998 11.8003 42.1698 11.7653 40.2508 11.654C40.2421 8.78997 40.2486 5.92811 40.2486 3.06407ZM40.4509 3.21906C40.4488 5.98705 40.4466 8.75287 40.4509 11.5209C42.2591 11.6518 44.0781 11.5907 45.8883 11.5514C45.9188 10.9991 45.9101 10.4447 45.8057 9.90328C45.8274 9.80723 45.8731 9.61732 45.8949 9.52345C45.0071 9.50162 44.1194 9.5038 43.2338 9.5038C43.1142 7.43217 43.3013 5.35181 43.1511 3.28454C43.0793 3.24743 42.9401 3.16885 42.8683 3.13174C42.0611 3.14484 41.2538 3.1361 40.4509 3.21906ZM35.1267 5.84734C35.5531 5.72727 35.9861 5.62469 36.4235 5.5461C36.0666 5.84734 35.6315 6.02635 35.242 6.27739C35.7076 6.51533 36.2342 6.54589 36.7477 6.57427C36.282 6.67032 35.8186 6.76418 35.353 6.86241C35.2768 6.52406 35.2007 6.1857 35.1267 5.84734ZM27.211 8.66118C27.3111 8.87511 27.4068 9.09122 27.5047 9.30516C27.0913 9.52563 26.6736 9.73956 26.2536 9.94913C26.1622 9.77885 26.0709 9.60858 25.9817 9.43831C26.2428 9.44923 26.506 9.47106 26.7671 9.4405C27.0456 9.29205 27.063 8.91441 27.211 8.66118ZM58.9172 9.28332C59.3655 9.47543 59.8093 9.68063 60.2423 9.90547C59.8093 9.85089 59.3785 9.7985 58.9477 9.74393C58.9673 9.97532 58.989 10.2067 59.013 10.4359C58.8367 10.3464 58.6627 10.2547 58.4908 10.1609C58.6322 9.86836 58.7736 9.57584 58.9172 9.28332ZM61.9112 17.321C62.1331 17.214 62.355 17.1114 62.577 17.0088C62.9338 17.2992 63.2885 17.5939 63.641 17.8907C63.5235 18.24 63.4038 18.5893 63.2732 18.9342C63.2406 18.4998 63.3799 17.9562 63.01 17.631C62.7206 17.3494 62.2789 17.393 61.9112 17.321ZM17.9201 66.4354C18.5882 66.3132 19.0733 66.8895 19.6086 67.1864C19.4063 67.4025 19.2061 67.6208 19.006 67.8391C19.2757 67.898 19.5477 67.957 19.8176 68.0159C18.8122 68.6926 18.3793 69.8954 18.5121 71.0808L18.4141 71.3122C17.9659 70.5525 18.2574 69.6925 18.4554 68.9066C18.2574 68.7843 18.0595 68.662 17.8614 68.5398L17.9768 68.4721C18.29 68.2866 18.5882 68.0771 18.8797 67.8588C18.549 67.3894 18.2183 66.9244 17.9201 66.4354ZM52.4964 74.1522C52.69 72.8424 53.8649 71.7575 55.1813 71.6615C55.8428 71.6112 56.4477 71.9234 57.0286 72.205C56.9894 72.6677 56.7588 73.0651 56.4672 73.4165C56.006 73.3008 55.5425 73.1634 55.0638 73.1568C54.7984 73.386 54.6047 73.6851 54.3959 73.9666C54.596 74.4775 54.7179 75.0778 55.1617 75.4446C55.5295 75.5929 55.9211 75.6759 56.3019 75.7916C55.7797 75.7916 55.0943 75.9903 54.7527 75.4619C54.3306 74.8529 53.9172 73.9011 54.4981 73.2616C54.979 72.6896 55.7993 73.0324 56.439 73.017C56.5543 72.8032 56.6696 72.5913 56.7871 72.3796C56.1604 72.1679 55.5012 71.7684 54.8245 71.9955C53.7583 72.2225 52.7792 73.2266 52.9011 74.3727C52.9011 75.0014 53.1796 75.582 53.4254 76.1452C52.7727 75.7195 52.4702 74.9097 52.4964 74.1522ZM33.1575 73.3817C34.0801 73.2855 35.0614 73.3729 35.8295 73.9427C35.0005 73.7483 34.1519 73.648 33.3273 73.4253L33.1575 73.3817ZM45.6903 74.2504C46.193 73.9513 46.8414 73.7855 47.3897 74.0648C46.8631 74.1828 46.3344 74.2854 45.8057 74.3902C45.8862 76.0142 46.3083 77.5948 46.4345 79.2145C45.8514 78.2365 46.008 77.0621 45.7513 75.9946C45.6751 75.4227 45.3966 74.8006 45.6903 74.2504ZM41.961 74.3989C42.5833 74.2744 43.2208 74.2722 43.8452 74.3879C44.028 75.6541 43.9214 76.9354 43.941 78.2104C44.5154 78.2256 45.0876 78.2474 45.6621 78.2758C45.6751 78.7233 45.6686 79.1709 45.6403 79.6205C44.4828 79.7864 43.3122 79.9436 42.1437 79.8279C42.0763 79.2145 41.8826 78.5269 42.2025 77.9527L42.4005 77.8502C42.407 78.3566 42.4135 78.863 42.4375 79.3694C42.5898 79.9916 43.434 79.6402 43.8539 79.5049C44.3304 79.4874 44.8048 79.4721 45.2835 79.4765L45.538 79.4874C45.5119 79.1315 45.488 78.7779 45.4662 78.4264C44.9005 78.4155 44.3348 78.4112 43.7713 78.4068C43.7582 77.1232 43.7582 75.8353 43.6015 74.5582C43.1185 74.5517 42.6376 74.5539 42.1546 74.5669C42.1503 75.2459 42.1503 75.9269 42.1503 76.608C41.8565 75.9073 41.9436 75.1367 41.961 74.3989ZM34.463 74.674C34.8612 74.7024 35.4226 74.9403 35.3073 75.4336C35.3508 75.9553 34.6785 75.796 34.3564 75.8855C34.3869 75.4794 34.4239 75.0756 34.463 74.674Z" fill="#2B2F36"/>
<path d="M40.4489 3.21916C41.2518 3.1362 42.059 3.14494 42.8662 3.13184C42.851 3.35886 42.838 3.58807 42.8271 3.81728C42.2048 3.58153 41.539 3.57934 40.8884 3.63828C40.8775 6.10721 40.8906 8.57833 40.8775 11.0473L40.8862 11.2525C42.4071 11.3441 43.9716 11.51 45.4664 11.128C45.5817 10.7198 45.697 10.3138 45.8036 9.90338C45.9081 10.4448 45.9168 10.9992 45.8863 11.5515C44.076 11.5908 42.257 11.6519 40.4489 11.521C40.4445 8.75296 40.4467 5.98715 40.4489 3.21916Z" fill="#9E8644"/>
<path d="M42.8669 3.13199C42.9387 3.1691 43.078 3.24768 43.1498 3.28479C43.2999 5.35206 43.1128 7.43242 43.2325 9.50405C44.118 9.50405 45.0058 9.50187 45.8935 9.5237C45.8717 9.61756 45.8261 9.80748 45.8043 9.90353C45.6977 10.3139 45.5824 10.72 45.467 11.1282C45.4301 10.7505 45.3952 10.3707 45.3582 9.99303C44.5031 9.94719 43.6459 9.93191 42.7908 9.92973C42.7211 7.89302 42.7146 5.85195 42.8278 3.81743C42.8386 3.58822 42.8517 3.35901 42.8669 3.13199Z" fill="#A29165"/>
<path d="M32.1457 4.21749C33.8211 4.05159 35.4443 3.56915 37.1088 3.35522C37.5919 3.78309 37.4852 4.61916 37.6854 5.21729C37.2764 5.36792 36.8499 5.46833 36.4234 5.54692C35.9861 5.62551 35.5531 5.7281 35.1266 5.84817C35.2006 6.18652 35.2768 6.52488 35.3529 6.86324C35.8186 6.76501 36.282 6.67114 36.7476 6.57509C37.1023 6.49869 37.457 6.42229 37.8116 6.35025C38.0988 6.99422 38.2163 7.69277 38.2011 8.39568C37.8247 8.45463 37.4504 8.51356 37.0762 8.5856C36.6301 8.66419 36.1884 8.76241 35.7489 8.87156C35.8099 9.29069 35.8708 9.70982 35.9317 10.1268C36.5866 10.0875 37.2285 9.94559 37.866 9.7906C38.1228 9.7382 38.3839 9.70109 38.645 9.68145C38.8082 10.297 38.9409 10.9192 39.0192 11.5522C37.2698 12.0412 35.4704 12.3796 33.671 12.6197C33.1118 10.3887 32.7572 8.11408 32.285 5.86563C32.161 5.32644 32.0914 4.77197 32.1457 4.21749ZM32.6179 4.665C32.6462 5.1125 32.6984 5.56001 32.7963 5.99879C33.2315 8.01585 33.5687 10.0526 34.0365 12.0631C35.4465 11.9212 36.8347 11.5959 38.2185 11.2925C38.6994 11.1811 38.3186 10.559 38.3382 10.2359C37.433 10.2949 36.5605 10.5765 35.6554 10.6398C35.4965 9.93248 35.3486 9.22303 35.2311 8.5092C36.0644 8.32146 36.8999 8.14683 37.7311 7.94817C37.6658 7.612 37.5984 7.27364 37.5309 6.93528C36.6802 7.0226 35.8447 7.19287 35.0004 7.3173C34.8286 6.70171 34.7176 6.06865 34.7067 5.42904C35.5161 5.27841 36.3212 5.10377 37.1219 4.90512C37.0523 4.5624 36.9783 4.21967 36.9021 3.87914C35.4617 4.07779 34.0474 4.41396 32.6179 4.665ZM56.7153 7.3566C56.9589 6.98112 57.0939 6.39172 57.5573 6.25201C59.1043 6.95711 60.5991 7.78009 62.12 8.54631C61.9525 9.21866 61.6065 9.81897 61.2323 10.3931C60.8972 10.2381 60.5687 10.0766 60.2423 9.90629C59.8093 9.68145 59.3654 9.47625 58.9172 9.28415C58.7736 9.57666 58.6322 9.86918 58.4907 10.1617C58.6626 10.2556 58.8367 10.3473 59.0129 10.4368C59.5678 10.7184 60.1183 11.0065 60.6579 11.3143C60.5034 11.9888 60.1835 12.6066 59.7745 13.1589C59.5047 13.0236 59.2392 12.886 58.9738 12.7463C58.5016 12.4931 58.0273 12.2486 57.5464 12.015C57.3419 12.4058 57.1395 12.8009 56.9437 13.196C57.1221 13.2921 57.3027 13.3881 57.4855 13.4842C58.0795 13.7876 58.6844 14.0757 59.2762 14.3879C59.1 15.0275 58.8019 15.6235 58.445 16.1823C56.7827 15.4466 55.1291 14.6564 53.5799 13.6959C54.546 11.5457 55.7057 9.48716 56.7153 7.3566ZM57.5878 6.76501C56.4324 8.99599 55.2705 11.2248 54.1891 13.4929C55.4881 14.2962 56.885 14.9227 58.2383 15.6257C58.3972 15.3026 58.5451 14.9729 58.6779 14.6368C57.9207 14.2307 57.1635 13.8247 56.3976 13.4318C56.6217 12.7245 56.9698 12.0674 57.3811 11.4518C58.1557 11.8077 58.902 12.2268 59.694 12.5455C59.8332 12.2159 59.9747 11.8862 60.1161 11.5566C59.3915 11.1549 58.6539 10.7817 57.925 10.3931C58.1426 9.79933 58.4189 9.22958 58.7279 8.67947C59.5395 8.98945 60.2945 9.41949 61.0843 9.77531C61.241 9.44569 61.3759 9.10733 61.4803 8.75805C60.1901 8.08134 58.8802 7.43955 57.5878 6.76501ZM65.3511 13.4078C66.2541 12.9319 67.1244 12.3796 68.1036 12.074C67.8795 13.3248 67.3638 14.4927 66.9939 15.6999C66.3781 17.6536 65.7276 19.5943 65.0835 21.5393C64.3437 21.1071 63.6975 20.5264 63.1492 19.8715C62.8772 19.5899 63.2079 19.2319 63.2732 18.935C63.4038 18.5901 63.5234 18.2408 63.6409 17.8916C63.2884 17.5947 62.9338 17.3 62.577 17.0096C62.355 17.1122 62.1331 17.2148 61.9111 17.3218C61.5608 17.4855 61.2236 17.6885 60.845 17.7824C60.2292 17.5859 59.8485 17.0009 59.4372 16.5381C61.3607 15.4074 63.3951 14.4796 65.3511 13.4078ZM65.9821 13.5977C64.0674 14.6259 62.1396 15.6235 60.2075 16.6123C60.4163 16.8765 60.6405 17.1275 60.8755 17.3698C61.4608 17.121 62.0352 16.8481 62.5965 16.549C63.1318 16.918 63.6148 17.3567 64.0522 17.8392C63.8563 18.4046 63.6692 18.9699 63.4777 19.5331C63.8933 19.9807 64.3437 20.4063 64.8964 20.6836C65.6797 18.1033 66.6414 15.5776 67.3681 12.9821C66.8916 13.1524 66.426 13.3532 65.9821 13.5977ZM33.3272 73.4261C34.1519 73.6488 35.0004 73.7491 35.8294 73.9435C36.7063 74.2316 37.0805 75.3122 36.7368 76.133C36.6519 76.1679 36.4865 76.2377 36.4039 76.2727C36.5649 75.6855 36.715 74.8974 36.158 74.4695C35.3703 73.9456 34.3956 73.8671 33.4861 73.723C33.1619 75.2423 32.6767 76.7289 32.4852 78.2744C33.4077 78.4906 34.3586 78.9709 35.3203 78.7351C36.1906 78.3705 36.0057 77.2791 36.319 76.5499C36.4648 77.421 36.3451 78.3574 35.6314 78.9534C35.0353 78.9227 34.4391 78.9315 33.8429 78.9184C33.5448 78.8638 33.2511 78.7787 32.9704 78.6696C32.731 78.5561 32.4699 78.4163 32.2001 78.5036C32.1914 77.7833 32.3981 77.0935 32.5983 76.4123C32.7572 75.8732 32.8768 75.3231 32.9813 74.7708C33.0683 74.3167 33.1923 73.8692 33.3272 73.4261Z" fill="#A48C4C"/>
<path d="M40.8885 3.63854C41.5391 3.5796 42.2049 3.58179 42.8271 3.81755C42.714 5.85206 42.7205 7.89313 42.7902 9.92984C43.6453 9.93202 44.5025 9.9473 45.3576 9.99315C45.3946 10.3708 45.4294 10.7506 45.4664 11.1283C43.939 11.0366 42.4072 11.0977 40.8776 11.0475C40.8907 8.57859 40.8776 6.10747 40.8885 3.63854ZM32.616 4.66454C34.0455 4.41349 35.4598 4.07732 36.9002 3.87867C36.9763 4.21921 37.0503 4.56194 37.1199 4.90466C36.3192 5.10331 35.5142 5.27795 34.7048 5.42857C34.7156 6.06818 34.8266 6.70124 34.9985 7.31683C35.8427 7.1924 36.6782 7.02213 37.529 6.93482C37.5964 7.27317 37.6639 7.61154 37.7292 7.94771C36.898 8.14636 36.0625 8.321 35.2291 8.50873C35.3466 9.22256 35.4946 9.93202 35.6534 10.6393C36.5586 10.576 37.4311 10.2944 38.3362 10.2355C38.3166 10.5585 38.6974 11.1807 38.2166 11.292C36.8327 11.5954 35.4445 11.9207 34.0346 12.0626C33.5668 10.0521 33.2295 8.01538 32.7944 5.99833C32.6965 5.55955 32.6442 5.11204 32.616 4.66454ZM49.4003 5.05965C50.8407 4.16901 53.0405 5.03127 53.356 6.75363C53.0644 6.87151 52.7707 6.98066 52.4704 7.07889C52.2333 6.52005 52.0135 5.7451 51.2737 5.73201C50.51 5.54645 50.0357 6.48294 50.3969 7.09199C50.819 7.82546 51.6458 8.19657 52.1484 8.86892C52.849 9.66788 52.6619 11.0017 51.8677 11.6697C51.0039 12.4381 49.6658 12.4097 48.6823 11.9011C48.0187 11.5561 47.6466 10.8751 47.3725 10.2093C47.6727 10.17 47.9839 10.0084 48.2885 10.0957C48.6693 10.5673 48.9935 11.2964 49.718 11.2265C50.4948 11.268 50.9756 10.2529 50.5361 9.64387C49.9182 8.84927 48.8781 8.36684 48.5692 7.34958C48.4103 6.51569 48.617 5.51371 49.4003 5.05965ZM57.5858 6.76454C58.8783 7.43908 60.1881 8.08087 61.4784 8.75759C61.3739 9.10686 61.239 9.44522 61.0824 9.77485C60.2926 9.41903 59.5375 8.98898 58.726 8.679C58.417 9.22911 58.1407 9.79886 57.9231 10.3926C58.652 10.7812 59.3896 11.1545 60.1141 11.5561C59.9727 11.8858 59.8313 12.2154 59.692 12.545C58.9 12.2263 58.1537 11.8072 57.3791 11.4514C56.9679 12.067 56.6198 12.724 56.3956 13.4313C57.1615 13.8242 57.9187 14.2303 58.6759 14.6363C58.5432 14.9725 58.3952 15.3021 58.2364 15.6252C56.883 14.9223 55.4861 14.2958 54.1872 13.4924C55.2686 11.2243 56.4305 8.99553 57.5858 6.76454ZM16.0884 13.7588C16.9021 12.2089 18.7559 11.543 20.4204 11.8705C20.3921 12.235 20.3595 12.5996 20.329 12.9642C19.5371 12.9751 18.6362 12.9227 18.0052 13.4946C17.2981 14.0775 17.0632 15.1253 17.4787 15.9483C17.9922 17.0245 18.9365 18.0483 20.168 18.2098C20.9557 18.3321 21.7781 17.9326 22.1654 17.234C22.5527 16.6403 22.4439 15.9024 22.5397 15.2344C22.7464 14.9004 23.2447 15.086 23.5776 15.0009C23.6232 15.85 23.682 16.7363 23.3665 17.544C22.8443 18.9346 21.3952 19.8558 19.9353 19.8863C16.9435 20.181 14.4456 16.3477 16.0884 13.7588ZM65.9802 13.5972C66.4241 13.3527 66.8897 13.1519 67.3662 12.9816C66.6395 15.5772 65.6777 18.1028 64.8944 20.6831C64.3418 20.4059 63.8914 19.9802 63.4758 19.5327C63.6673 18.9695 63.8544 18.4041 64.0502 17.8387C63.6129 17.3563 63.1298 16.9175 62.5946 16.5486C62.0332 16.8476 61.4588 17.1205 60.8735 17.3694C60.6385 17.1271 60.4144 16.876 60.2055 16.6119C62.1377 15.623 64.0655 14.6254 65.9802 13.5972ZM63.4062 16.1033C63.7064 16.3783 64.0198 16.6381 64.3418 16.8869C64.5507 16.4089 64.7095 15.9133 64.8139 15.4025C64.3222 15.5881 63.8522 15.826 63.4062 16.1033Z" fill="#FFFFFA"/>
<path d="M49.3501 4.54876C51.2496 3.47257 54.1891 5.12289 53.7409 7.42154C53.173 7.44119 52.6073 7.47393 52.0394 7.50668C51.898 7.10283 51.7522 6.70335 51.6064 6.30168C51.3344 6.28859 51.0603 6.27549 50.7883 6.26457C50.7209 7.12684 51.5063 7.55252 52.059 8.04805C52.5573 8.49338 52.925 9.10242 53.0555 9.76168C53.2078 10.9143 52.5007 12.128 51.3997 12.5209C50.0877 12.9946 48.4101 12.6868 47.5354 11.5364C47.1699 11.0933 47.0089 10.5323 46.8566 9.98871C47.4114 9.72239 48.0032 9.53465 48.6147 9.44733C48.8322 9.90575 49.0607 10.3576 49.2957 10.8051C49.72 10.8139 50.1008 10.6501 50.4206 10.3751C50.3053 10.1655 50.1921 9.95596 50.0681 9.75295C49.4241 9.12644 48.6016 8.62872 48.2208 7.77955C47.7922 6.62476 48.1556 5.08359 49.3501 4.54876ZM49.4001 5.05958C48.6168 5.51364 48.4101 6.51561 48.569 7.3495C48.8779 8.36676 49.918 8.8492 50.5359 9.6438C50.9754 10.2528 50.4946 11.2679 49.7178 11.2264C48.9933 11.2963 48.6691 10.5672 48.2883 10.0957C47.9837 10.0084 47.6725 10.1699 47.3723 10.2092C47.6464 10.875 48.0185 11.5561 48.6821 11.901C49.6656 12.4096 51.0037 12.438 51.8675 11.6696C52.6617 11.0016 52.8488 9.66781 52.1482 8.86885C51.6456 8.1965 50.8188 7.82539 50.3967 7.09191C50.0355 6.48287 50.5098 5.54638 51.2735 5.73193C52.0133 5.74503 52.2331 6.51998 52.4702 7.07882C52.7705 6.98059 53.0642 6.87143 53.3558 6.75356C53.0403 5.0312 50.8405 4.16893 49.4001 5.05958Z" fill="#A28C51"/>
<path d="M26.2459 6.52438C27.0466 6.08342 27.8408 5.5879 28.7524 5.41544C29.91 7.95859 31.209 10.4363 32.2925 13.0121C31.4962 13.464 30.6889 13.9355 29.786 14.1386C29.3073 13.2392 28.9309 12.2896 28.4826 11.3771C27.9778 11.1959 27.5274 11.5539 27.0879 11.746C27.2141 12.0429 27.3381 12.3398 27.4731 12.6323C27.8299 13.344 28.2128 14.0447 28.487 14.7978C27.7211 15.2759 26.9073 15.6906 26.037 15.946C25.4343 15.0117 25.0448 13.9661 24.564 12.9685C23.8394 11.4557 23.1105 9.94508 22.4229 8.41483C23.1562 7.82761 24.0483 7.51326 24.9121 7.17927C25.3037 7.91493 25.6105 8.69206 25.9804 9.43864C26.0696 9.60891 26.161 9.77918 26.2524 9.94945C26.6723 9.73989 27.0901 9.52596 27.5035 9.30548C27.4056 9.09155 27.3099 8.87543 27.2098 8.6615C26.8551 7.96514 26.4656 7.27969 26.2459 6.52438ZM26.8551 6.7274C27.1771 7.69227 27.6972 8.57419 28.0475 9.52814C27.3991 9.90797 26.7202 10.2267 26.0196 10.493C25.517 9.62201 25.1449 8.68333 24.6684 7.79924C24.1005 8.00443 23.5544 8.26202 23.0169 8.53489C24.0222 10.8576 25.1645 13.1235 26.2633 15.4069C26.8225 15.1733 27.3664 14.9048 27.8821 14.5882C27.4578 13.5644 26.9356 12.5843 26.5135 11.5583C27.188 11.2025 27.8756 10.8641 28.5936 10.6043C29.1267 11.5845 29.4944 12.6541 30.1167 13.5863C30.6541 13.3461 31.1807 13.0864 31.6898 12.7873C30.6498 10.5039 29.5945 8.22055 28.4304 5.99829C27.8908 6.20786 27.3643 6.45016 26.8551 6.7274Z" fill="#A48C49"/>
<path d="M26.8558 6.72753C27.365 6.45029 27.8915 6.20798 28.4311 5.99842C29.5952 8.22067 30.6505 10.5041 31.6905 12.7874C31.1814 13.0865 30.6548 13.3463 30.1174 13.5864C29.4951 12.6543 29.1274 11.5846 28.5943 10.6045C27.8763 10.8642 27.1887 11.2026 26.5142 11.5584C26.9363 12.5844 27.4585 13.5646 27.8828 14.5884C27.3672 14.9049 26.8232 15.1734 26.264 15.407C25.1652 13.1236 24.0229 10.8577 23.0177 8.53502C23.5551 8.26215 24.1012 8.00456 24.6691 7.79936C25.1456 8.68346 25.5177 9.62213 26.0203 10.4931C26.7209 10.2268 27.3998 9.9081 28.0482 9.52827C27.6979 8.57431 27.1779 7.69239 26.8558 6.72753Z" fill="#FFFFFC"/>
<path d="M50.7903 6.26462C51.0623 6.27553 51.3364 6.28863 51.6084 6.30173C51.7542 6.70339 51.9 7.10287 52.0414 7.50672C52.6093 7.47398 53.175 7.44123 53.7429 7.42159C53.212 7.70319 52.6398 7.89529 52.061 8.0481C51.5083 7.55256 50.7228 7.12689 50.7903 6.26462Z" fill="#03317F"/>
<path d="M35.7472 8.87126C36.1867 8.76211 36.6284 8.66388 37.0744 8.5853C36.8329 8.84507 36.4891 8.95422 36.1671 9.07646C36.1301 9.29039 36.0953 9.5065 36.0583 9.72262C36.661 9.75973 37.2615 9.77283 37.8642 9.79029C37.2267 9.94528 36.5849 10.0872 35.9299 10.1265C35.869 9.70952 35.8081 9.29039 35.7472 8.87126Z" fill="#374041"/>
<path d="M50.0693 9.7529C50.1933 9.95592 50.3064 10.1655 50.4217 10.375C50.1019 10.6501 49.7211 10.8138 49.2968 10.8051C49.6493 10.5322 49.9257 10.1786 50.0693 9.7529Z" fill="#424740"/>
<path d="M40.879 11.0472C42.4086 11.0974 43.9404 11.0363 45.4679 11.128C43.9731 11.51 42.4086 11.3441 40.8877 11.2524L40.879 11.0472Z" fill="#E1C278"/>
<path d="M18.0005 11.5497C18.9448 11.2397 19.9543 11.3336 20.9226 11.4318C20.9661 12.161 20.8225 12.8813 20.6876 13.5952C20.6223 13.5864 20.4896 13.5668 20.4243 13.5581C19.7107 13.4314 18.923 13.3136 18.3116 13.8091C17.6762 14.3527 17.6327 15.3372 18.044 16.0248C18.453 16.8041 19.1601 17.3848 19.9718 17.7057C20.2764 17.889 20.6963 17.9349 20.977 17.6817C22.1041 17.1621 22.0889 15.8436 21.9518 14.7914C22.5588 14.5862 23.192 14.4683 23.8273 14.3963C23.8709 14.4967 23.9535 14.7019 23.9949 14.8023C24.0667 15.5664 24.0732 16.3391 23.9971 17.1032C23.501 19.8472 20.0109 21.1613 17.6762 19.8843C16.547 19.2185 15.6962 18.1095 15.2654 16.8762C14.5605 14.7434 15.916 12.2636 18.0005 11.5497ZM16.0901 13.7589C14.4474 16.3479 16.9452 20.1812 19.937 19.8865C21.3969 19.8559 22.846 18.9347 23.3682 17.5441C23.6837 16.7364 23.625 15.8502 23.5793 15.001C23.2464 15.0861 22.7481 14.9006 22.5414 15.2346C22.4457 15.9026 22.5545 16.6404 22.1672 17.2342C21.7799 17.9327 20.9574 18.3322 20.1698 18.2099C18.9382 18.0484 17.994 17.0246 17.4804 15.9484C17.0649 15.1254 17.2998 14.0776 18.007 13.4947C18.6379 12.9228 19.5388 12.9752 20.3308 12.9643C20.3613 12.5997 20.3939 12.2352 20.4222 11.8706C18.7576 11.5432 16.9038 12.209 16.0901 13.7589ZM45.8054 74.3907C46.3342 74.2859 46.8629 74.1833 47.3894 74.0653C47.4199 74.3143 47.4504 74.561 47.483 74.8098C47.5961 75.8663 47.7267 76.925 47.9987 77.9532C48.5339 77.8725 49.0692 77.7808 49.5979 77.6585C49.6697 78.0886 49.7328 78.5186 49.7916 78.9508C49.5653 79.012 49.339 79.0665 49.1105 79.1124C48.2228 79.2128 47.3307 79.2717 46.4495 79.429L46.4343 79.215C46.3081 77.5953 45.8859 76.0147 45.8054 74.3907ZM45.9991 74.5762C46.2188 76.1109 46.4582 77.641 46.7171 79.1691C47.6679 79.0906 48.6057 78.9094 49.5392 78.7195C49.4782 78.4728 49.4151 78.2261 49.3542 77.9816C48.8385 78.0689 48.3251 78.1563 47.8094 78.2348C47.4743 76.96 47.4243 75.6327 47.1175 74.3536C46.7432 74.4255 46.3712 74.4976 45.9991 74.5762Z" fill="#A48C4D"/>
<path d="M27.088 11.746C27.5275 11.5539 27.9779 11.1959 28.4827 11.3771C28.1868 11.5212 27.8843 11.6609 27.5841 11.7962C27.5449 12.0757 27.5079 12.3529 27.4731 12.6323C27.3382 12.3398 27.2142 12.0429 27.088 11.746Z" fill="#323C41"/>
<path d="M56.9436 13.1955C57.1394 12.8004 57.3417 12.4053 57.5463 12.0145C58.0271 12.2481 58.5015 12.4926 58.9736 12.7458C58.4971 12.6541 58.0206 12.5537 57.5463 12.4533C57.5202 12.796 57.4984 13.1387 57.4854 13.4836C57.3026 13.3876 57.122 13.2915 56.9436 13.1955Z" fill="#2B3B48"/>
<path d="M41.3196 12.8547C47.1008 12.6495 52.9277 14.2583 57.795 17.3931C63.5936 21.1019 68.0519 26.9086 70.0188 33.5317C72.3383 41.1284 71.431 49.6769 67.4579 56.5663C64.2616 62.17 59.181 66.6778 53.2214 69.1249C48.5173 71.0851 43.2975 71.6899 38.256 71.048C31.7177 70.1901 25.4861 67.0293 20.9843 62.1831C16.6762 57.6862 13.9106 51.7419 13.1861 45.5511C12.6965 41.124 13.1208 36.5747 14.62 32.3704C16.9046 25.7844 21.6436 20.1065 27.6793 16.6596C31.8199 14.2911 36.5502 12.9311 41.3196 12.8547ZM39.1525 13.9483C35.6951 14.2889 32.316 15.3192 29.2285 16.9128C23.1492 20.0279 18.2928 25.446 15.8428 31.8377C13.6583 37.4828 13.3558 43.8287 14.9725 49.6616C16.6348 55.728 20.4033 61.1833 25.4709 64.8855C30.3687 68.5115 36.4762 70.463 42.562 70.332C48.4107 70.2774 54.2223 68.3063 58.9112 64.7982C63.9178 61.0938 67.6515 55.6844 69.2943 49.6616C70.9371 43.7218 70.5976 37.2405 68.2978 31.5212C66.011 25.756 61.7529 20.8138 56.4221 17.6768C51.2654 14.6141 45.1077 13.2935 39.1525 13.9483ZM62.9039 66.8829C63.6611 67.5794 64.2659 68.4198 64.9013 69.2253C65.1036 69.4938 65.2995 69.7841 65.3691 70.1225C65.3713 70.546 65.3669 70.9673 65.3582 71.393C65.0144 72.6591 63.2999 72.9516 62.3382 72.253C62.9496 72.3229 63.5958 72.5695 64.1985 72.3142C65.1015 71.9933 65.615 70.7599 65.0579 69.9347C64.4705 68.9633 63.7394 68.0901 63.0214 67.2169C62.819 67.4068 62.6188 67.6012 62.4208 67.7954C63.0323 68.7429 63.8351 69.5615 64.3965 70.5438C64.6794 71.1157 63.7873 71.7335 63.3586 71.2379C62.5775 70.4238 62.0248 69.4217 61.2698 68.5835C60.9522 68.8258 60.6367 69.0681 60.3233 69.3148C60.9348 70.1989 61.6506 71.0175 62.1772 71.9605C61.2938 71.1856 60.6562 70.1749 60.0122 69.2013C60.4408 68.8432 60.8738 68.4721 61.4069 68.2822C62.1141 69.162 62.6885 70.1552 63.4761 70.9673C63.6154 70.9825 63.8917 71.0153 64.0288 71.0328C64.0527 69.6335 62.5753 68.8848 62.1206 67.6492C62.3839 67.3959 62.6471 67.1428 62.9039 66.8829ZM39.3635 73.9077C39.8422 74.7395 40.0315 75.6868 40.3166 76.5928C40.6234 77.6515 41.0259 78.6841 41.2456 79.7668C40.7278 79.745 40.2143 79.7123 39.7008 79.662C39.4549 79.1556 39.3135 78.4155 38.6412 78.3457C38.3692 78.6797 38.1016 79.0181 37.8296 79.3521C37.488 79.3171 37.142 79.3303 36.8004 79.3804C36.8831 78.6731 37.2704 78.0641 37.5837 77.442C38.1973 76.2741 38.7282 75.0647 39.3635 73.9077ZM39.344 74.5451C38.5324 76.0688 37.6795 77.5882 37.0789 79.2102C37.2486 79.2145 37.5859 79.2211 37.7534 79.2254C37.9362 78.8739 38.119 78.5226 38.2974 78.1711C38.6695 78.2213 39.0393 78.2802 39.4092 78.3479C39.5311 78.6972 39.6573 79.0465 39.7835 79.3957C40.1643 79.4372 40.5472 79.4699 40.9323 79.494C40.4972 77.8196 40.0228 76.1366 39.344 74.5451Z" fill="#BA8A1D"/>
<path d="M18.3106 13.809C18.9221 13.3135 19.7097 13.4314 20.4234 13.558C19.7358 13.7479 19.0222 13.8112 18.3106 13.809Z" fill="#2A3843"/>
<path d="M23.9932 14.8022C24.6612 15.3065 24.2869 16.4111 24.2369 17.1489L23.9954 17.1031C24.0715 16.339 24.065 15.5663 23.9932 14.8022Z" fill="#1D2F44"/>
<path d="M63.4063 16.103C63.8524 15.8258 64.3224 15.5879 64.8141 15.4023C64.7097 15.9131 64.5508 16.4087 64.3419 16.8867C64.0199 16.6379 63.7066 16.3781 63.4063 16.103Z" fill="#B3944A"/>
<path d="M19.9727 17.7056C20.2164 17.4524 20.7256 17.4305 20.978 17.6816C20.6973 17.9348 20.2774 17.889 19.9727 17.7056Z" fill="#514E34"/>
<path d="M43.8438 22.1369C43.5304 20.8599 44.6358 19.9736 45.6279 19.4541C45.2276 20.2836 45.0601 21.1961 45.0492 22.1129C44.6466 22.1217 44.2441 22.1304 43.8438 22.1369ZM41.0021 23.1477L41.1523 23.1455C41.8529 23.1695 42.8189 22.9927 43.191 23.7676C43.8546 24.9595 43.0126 26.5203 41.7354 26.8281C42.1423 26.1165 42.6188 25.2826 42.2815 24.4443C42.1227 23.8986 41.4873 23.8462 41.0413 23.6737C41.0304 23.5428 41.0108 23.2786 41.0021 23.1477Z" fill="#596DB1"/>
<path d="M26.645 23.224C26.9518 22.1478 27.7721 21.2048 28.8404 20.8424C28.0593 21.6501 27.2521 22.5713 27.1411 23.7414C26.9409 25.0075 27.4261 26.2583 28.1572 27.269C26.7429 26.5334 26.2577 24.691 26.645 23.224ZM32.5481 62.2357C33.1007 62.1942 33.6556 62.1942 34.2104 62.1877C34.1603 62.692 34.1125 63.1984 34.0951 63.707C33.971 63.6284 33.7208 63.4691 33.5968 63.3883C33.4401 62.8186 33.2487 62.2335 32.5481 62.2357Z" fill="#586EB1"/>
<path d="M33.5749 22.4576C34.3473 22.5253 34.6976 23.3024 34.9761 23.9246C35.4395 25.1951 35.235 26.7013 34.4169 27.7841C33.8751 28.559 33.0483 29.0545 32.228 29.4868C31.8429 29.203 31.4208 28.9716 31.003 28.7402C31.2075 28.0962 31.9386 27.9172 32.3934 27.4937C33.8795 26.3346 34.3255 24.1647 33.5749 22.4576ZM60.8598 39.4323C61.7715 39.7489 62.4003 40.6592 62.4003 41.6262C62.496 42.9949 61.5082 44.2501 60.2702 44.7348C60.2158 44.1781 60.1418 43.6236 59.9481 43.0975C61.0034 42.2113 61.4233 40.7181 60.8598 39.4323ZM41.5558 58.0923C42.0497 57.4549 42.8417 57.1929 43.5576 56.8917C44.1472 57.182 44.7499 57.4396 45.357 57.6906C44.4562 58.149 43.3618 58.4023 42.7525 59.2798C42.0476 60.2512 42.0563 61.5392 41.4361 62.5477C40.9618 63.3205 39.9588 63.1153 39.2364 63.4231C38.9513 63.8575 38.8708 64.3967 38.662 64.8704C38.1811 64.5779 37.7372 64.2286 37.3565 63.816C37.5588 63.327 37.5914 62.7245 37.9809 62.3403C38.6533 62.05 39.5889 62.2683 40.0588 61.5959C40.7616 60.5197 40.7508 59.1139 41.5558 58.0923Z" fill="#D3D3D6"/>
<path d="M29.7537 22.9859C30.5153 22.4009 31.7098 22.558 32.1646 23.4487C32.7673 24.7213 31.8599 26.2254 30.6872 26.793C30.5501 26.0748 30.0301 25.5792 29.4796 25.1514C30.1171 25.1077 31.1115 25.1885 31.1702 24.3088C31.3203 23.4487 30.4152 23.1321 29.7537 22.9859Z" fill="#596DB2"/>
<path d="M29.7537 22.9861C30.4152 23.1324 31.3203 23.4489 31.1702 24.309C31.1114 25.1887 30.1171 25.108 29.4796 25.1516C29.3142 24.7368 28.9965 24.2981 29.1749 23.8331C29.3272 23.5253 29.5535 23.2634 29.7537 22.9861Z" fill="#D2D3D9"/>
<path d="M47.2257 24.3943C47.3323 23.7699 48.0699 24.0756 48.5116 24.0166C48.6726 24.558 49.0925 24.9269 49.5125 25.2718C48.6835 25.7237 47.7435 25.0273 47.2257 24.3943Z" fill="#CDD3E0"/>
<path d="M49.0343 23.9858C49.3738 23.964 49.7132 23.9444 50.0526 23.9269C49.9351 24.2325 49.8155 24.5359 49.6958 24.8416C49.2236 24.7892 48.9625 24.4595 49.0343 23.9858Z" fill="#B4C8EB"/>
<path d="M53.4021 24.4444C53.8221 24.8264 54.4683 25.1036 54.6032 25.6952C54.3225 26.4134 53.7894 26.994 53.4173 27.662C53.0562 27.5616 52.7015 27.4437 52.3381 27.363C52.1945 27.5529 52.0901 27.7646 52.027 27.9982C51.433 27.4896 50.9978 28.3497 50.7019 28.7644C50.2298 28.795 49.7554 28.7841 49.2833 28.7426C49.1179 27.9633 49.5117 27.1163 50.2298 26.7714C50.7498 26.5225 51.1284 27.1141 51.5179 27.3673C52.1706 26.4112 52.9735 25.538 53.4021 24.4444ZM46.3067 63.1526C46.6179 62.9605 46.9486 62.7837 47.3185 62.7422C47.4665 62.7684 47.7645 62.823 47.9125 62.8492C48.0757 63.1613 48.241 63.4757 48.4108 63.7857C47.6732 63.9778 47.3968 64.6938 47.0966 65.3115C46.5178 64.7396 46.4721 63.9014 46.3067 63.1526Z" fill="#D3D3D7"/>
<path d="M38.8798 27.6206C38.7862 27.2342 38.9255 26.8565 39.0538 26.4963C39.3911 27.7079 40.6117 28.199 41.6431 28.6727C41.4908 30.096 40.6857 31.3119 40.0199 32.5388C39.6783 33.0234 39.9786 33.6019 39.9764 34.1345C39.9046 35.0863 39.3149 36.0511 38.3184 36.2236C38.1922 35.477 38.1966 34.6584 37.744 34.0188C37.0869 33.0867 36.2013 32.3532 35.3636 31.5935C36.3884 31.6743 37.4046 31.8533 38.4316 31.9079C39.1017 31.0631 39.6674 30.1419 40.1657 29.1857C39.6696 28.736 38.9755 28.3518 38.8798 27.6206ZM55.9144 29.8952C57.2939 29.4783 58.7778 30.812 58.6363 32.2157C58.5254 33.0321 57.9771 33.7001 57.407 34.2568C56.256 35.3548 54.883 36.2498 53.9801 37.5858C53.3121 38.5397 53.2794 39.8408 53.7559 40.8842C54.5697 42.6633 56.2995 43.864 56.9501 45.7369C57.2721 46.7367 57.2786 47.9243 56.6846 48.8258C56.0428 49.7536 54.7982 50.0679 53.7364 49.8496C52.3482 49.5899 51.1906 48.5835 50.5966 47.3196C50.9469 47.6208 51.3147 47.9068 51.6976 48.1709C52.6724 48.7232 53.9561 49.0114 54.9831 48.4395C55.8078 47.981 56.0536 46.9005 55.7838 46.0447C55.3944 44.7022 54.3021 43.7548 53.4948 42.6677C52.4352 41.3186 51.7368 39.4326 52.4026 37.7539C53.2816 35.7543 55.3095 34.6933 56.6672 33.0823C57.0066 32.7134 57.1198 32.2135 57.1372 31.7245C56.9087 31.0041 56.1864 30.513 55.4379 30.7793C55.1333 30.9736 54.8352 31.1788 54.5479 31.3949C54.8743 30.8033 55.192 30.072 55.9144 29.8952ZM29.3649 34.3834C29.6738 34.4205 29.9871 34.451 30.2983 34.4838C30.3744 37.1535 30.2069 39.8277 30.3723 42.4931C30.616 42.4581 30.8618 42.4188 31.1077 42.3796C31.5472 42.2726 31.978 42.122 32.3849 41.9233C33.5359 41.275 34.5738 40.4476 35.677 39.7251C36.6126 39.1291 37.6026 38.6205 38.5403 38.0267C39.4259 38.3192 40.3593 38.3891 41.2841 38.4568C39.9677 39.4129 38.5055 40.1289 37.1108 40.9584C35.9424 41.6024 34.8197 42.3293 33.6469 42.9624C32.1913 43.7483 30.4811 43.2898 28.9319 43.6609C28.1616 43.9207 27.3609 44.4752 27.2325 45.3396L27.1673 45.5841C26.8061 45.403 27.0432 44.9576 27.0824 44.6607C27.3283 43.5234 28.4924 43.0519 29.3844 42.5127C29.3866 39.8037 29.4084 37.0946 29.3649 34.3834ZM44.5761 43.1458C45.2898 43.4645 46.1014 43.8814 46.2733 44.7306C46.5344 45.6169 45.9208 46.4486 45.2115 46.907C43.0661 48.339 40.392 48.8498 38.4359 50.5897C37.8615 51.0546 37.5242 51.7838 37.6243 52.5281C37.6178 53.4712 38.5947 53.8728 39.241 54.3422C38.8406 56.0951 38.4337 58.1733 36.7736 59.1774C35.207 60.0899 33.3031 59.1119 31.6604 59.7385C31.2274 59.9044 30.938 60.3628 30.9837 60.8299C31.025 61.7075 31.1621 62.5785 31.2252 63.4539C30.9532 63.1592 30.7857 62.7902 30.8118 62.382C30.8031 61.4172 30.5986 60.3104 31.2448 59.4918C31.7017 59.1774 32.2217 58.9657 32.7592 58.8347C34.0103 58.8172 35.5943 59.3914 36.5647 58.3086C37.311 57.2979 37.5656 55.9859 37.6243 54.7526C37.3676 54.0409 36.4037 53.744 36.234 52.9451C35.9359 51.4126 36.965 50.057 37.9746 49.0332C39.3149 47.7715 40.8293 46.6407 42.5395 45.9443C43.2619 45.6824 44.2193 45.7282 44.698 45.0384C44.8111 44.4075 44.6392 43.7723 44.5761 43.1458ZM45.3442 52.0392C45.9034 52.0435 46.4843 52.0239 47.0196 52.2138C47.5679 52.7071 47.668 53.5694 48.2837 54.0082C48.9778 54.3007 49.7764 54.1501 50.4726 54.4251C51.0797 54.9076 51.306 55.724 51.3386 56.4706C51.3734 57.7934 50.7838 59.0268 50.1223 60.1379C48.745 60.2798 47.211 59.9851 45.986 60.7797C44.9308 61.5001 45.5726 62.9038 45.5683 63.9385C45.0352 62.9954 44.9917 61.7075 45.4987 60.7492C46.3886 59.6664 47.9421 59.8367 49.1867 59.6162C49.5827 59.5966 49.6436 59.1469 49.7307 58.8434C49.8416 58.206 49.8329 57.5424 49.7241 56.905C49.6632 56.6256 49.5936 56.3505 49.524 56.0755C49.1758 55.9641 48.8255 55.855 48.4796 55.7349C47.3024 55.2721 46.3755 54.3029 45.8142 53.183C45.6401 52.8076 45.49 52.4234 45.3442 52.0392Z" fill="#5A6DB2"/>
<path d="M53.4168 27.6617C54.2915 27.9455 55.0074 27.1902 55.6884 26.7689C55.5252 27.7163 54.9508 28.6288 53.9695 28.8711C53.6975 28.834 53.4255 28.7947 53.1535 28.7488C52.7619 28.5218 52.3985 28.2555 52.0265 27.9979C52.0896 27.7643 52.194 27.5526 52.3376 27.3627C52.701 27.4434 53.0556 27.5613 53.4168 27.6617Z" fill="#EA0E16"/>
<path d="M29.3414 28.4959C29.6721 28.5177 30.005 28.5352 30.3379 28.5549C30.3379 28.7098 30.3357 29.022 30.3357 29.177C30.0028 29.1661 29.6699 29.153 29.337 29.1464C29.337 28.9827 29.3392 28.6575 29.3414 28.4959Z" fill="#536EB5"/>
<path d="M31.003 28.7403C31.4208 28.9717 31.8429 29.2031 32.228 29.4869C32.5109 29.8056 32.7546 30.1571 32.9983 30.5063C32.4151 30.3077 31.7885 30.1745 31.2837 29.8078C31.0748 29.4956 31.077 29.0962 31.003 28.7403Z" fill="#5A6EAE"/>
<path d="M53.1544 28.7489C53.4264 28.7947 53.6983 28.834 53.9703 28.8711C54.3011 28.9803 54.6187 29.1266 54.9429 29.2619C54.6927 29.5391 54.4708 29.836 54.2662 30.146C53.9225 29.9779 53.5678 29.8295 53.2632 29.5981C53.1631 29.3274 53.1761 29.0327 53.1544 28.7489Z" fill="#D7D3D5"/>
<path d="M7.6014 29.2512C9.20286 28.7623 11.0936 29.3604 12.0684 30.74C13.1867 32.2353 13.1019 34.5144 11.8225 35.8874C10.7412 37.1252 8.87427 37.588 7.34463 36.9876C5.92168 36.455 4.86207 35.0732 4.72719 33.5539C4.52049 31.6787 5.79113 29.7686 7.6014 29.2512ZM6.9683 30.1201C7.20975 30.2336 7.43822 30.4933 7.72984 30.4213C8.56965 30.2532 9.41822 30.1353 10.2647 30.0087C9.24849 29.4084 7.96263 29.5438 6.9683 30.1201ZM5.87162 31.1635C7.26204 31.8424 8.58275 32.6457 9.93609 33.3945C10.0209 33.0234 10.1015 32.6523 10.1798 32.279C9.1267 31.4255 7.93 30.7509 6.62883 30.358C6.36995 30.62 6.11751 30.8885 5.87162 31.1635ZM8.12582 30.5283C8.46086 30.8055 8.79811 31.2094 9.28334 31.1308C10.0427 31.0937 10.8042 31.0587 11.5657 31.0216C11.3852 30.8011 11.1894 30.6025 10.9739 30.4191C10.0318 30.2183 9.05921 30.3362 8.12582 30.5283ZM9.43787 31.3665C9.73372 31.6285 10.0275 31.9014 10.3799 32.0869C10.961 32.1349 11.544 32.0913 12.125 32.0716C12.0271 31.8424 11.9292 31.6154 11.8291 31.3905C11.0392 31.2486 10.2298 31.2486 9.43787 31.3665ZM5.32988 32.6217C6.60707 33.4862 8.00393 34.1935 9.4835 34.6366C9.52268 34.2808 9.94919 33.7852 9.54877 33.5146C8.34995 32.6894 7.05966 31.9887 5.72153 31.4146C5.53869 31.7988 5.40814 32.2026 5.32988 32.6217ZM11.5832 32.2856C11.4744 33.7547 10.876 35.0907 10.1668 36.3546C11.7486 35.8132 12.5058 34.0188 12.2729 32.4384C12.0423 32.386 11.8139 32.3358 11.5832 32.2856ZM9.04622 35.9551C9.17022 36.0512 9.41611 36.2389 9.54011 36.3349C10.752 35.3985 11.1677 33.8158 11.3308 32.362C11.1285 32.351 10.7237 32.3314 10.5213 32.3205C10.1406 33.5757 9.66633 34.8003 9.04622 35.9551ZM5.24495 32.9645C5.30379 33.4884 5.21454 34.1716 5.70843 34.5165C6.60707 35.2173 7.69066 35.656 8.81554 35.8154C8.97873 35.5032 9.13969 35.1889 9.29855 34.8745C7.89514 34.3506 6.57876 33.639 5.24495 32.9645ZM5.90647 35.0754C5.80634 35.3766 5.90647 35.4923 6.21109 35.4203C6.31555 35.1169 6.2132 35.0012 5.90647 35.0754ZM6.50916 35.3919C6.53746 36.0512 7.10751 36.3459 7.66668 36.4921C7.67978 35.8045 7.11617 35.4814 6.50916 35.3919ZM7.71452 35.9049C7.86905 36.1538 7.9996 36.4288 8.22152 36.6318C8.60662 36.7825 9.02879 36.682 9.42699 36.6558C9.06354 36.0555 8.36949 35.8874 7.71452 35.9049Z" fill="#FDF7FB"/>
<path d="M74.3999 29.2471C76.7803 28.459 79.5588 30.3582 79.6024 32.8926C79.8286 34.9992 78.1315 37.0272 76.0405 37.2171C73.7842 37.5707 71.4778 35.6519 71.4952 33.3423C71.332 31.5021 72.6506 29.7382 74.3999 29.2471ZM73.708 30.1181C73.9561 30.2425 74.1998 30.4979 74.5044 30.4193C75.3464 30.2534 76.195 30.1312 77.0458 30.0068C76.0122 29.4152 74.7198 29.5549 73.708 30.1181ZM72.6397 31.1681C74.0279 31.8514 75.3464 32.6634 76.7107 33.3882C76.7847 33.0302 77.0044 32.6721 76.937 32.2989C75.9339 31.3929 74.6937 30.797 73.4252 30.3604C73.1575 30.6223 72.8964 30.8909 72.6397 31.1681ZM74.8982 30.5241C75.1941 30.7621 75.4617 31.1375 75.8795 31.1288C76.6933 31.1135 77.507 31.0524 78.323 31.0589C78.1533 30.8406 77.9879 30.6202 77.7855 30.4368C76.8347 30.2032 75.8425 30.3342 74.8982 30.5241ZM76.2189 31.3667C76.5127 31.6331 76.7977 31.9299 77.1632 32.1002C77.742 32.133 78.3208 32.0937 78.8996 32.0675C78.806 31.8492 78.7124 31.6287 78.6211 31.4104C77.8312 31.2423 77.0153 31.2423 76.2189 31.3667ZM72.396 31.5392C72.2306 31.8863 72.1588 32.2639 72.0827 32.6372C73.349 33.4711 74.7198 34.1369 76.1471 34.6412C76.2951 34.3443 76.4387 34.0452 76.5801 33.7462C75.5684 32.945 74.4173 32.336 73.2729 31.7531C72.9878 31.6724 72.6963 31.3864 72.396 31.5392ZM77.1741 32.67C76.8195 33.8029 76.3625 34.8988 75.8208 35.9553C75.947 36.0557 76.195 36.2566 76.3212 36.357C77.5136 35.3703 78.014 33.7855 78.0314 32.2792C77.7355 32.3643 77.2546 32.2639 77.1741 32.67ZM78.3404 32.2552C78.2142 33.7876 77.6724 35.2437 76.7324 36.4596C78.3382 35.9531 79.35 34.1675 79.0258 32.5215C78.8691 32.3032 78.5645 32.3403 78.3404 32.2552ZM72.0544 32.9974C72.0783 33.4755 71.9804 34.0714 72.3742 34.4316C73.225 35.1695 74.3107 35.5864 75.403 35.8047C75.7968 35.6934 75.8643 35.1847 76.071 34.8791C74.6784 34.3661 73.3773 33.6567 72.0544 32.9974ZM72.6745 35.0974C72.5875 35.4008 72.6941 35.51 72.9965 35.427C73.0857 35.1192 72.9769 35.0079 72.6745 35.0974ZM73.299 35.403C73.3294 36.0623 73.8647 36.3788 74.4478 36.4967C74.4326 35.8265 73.9082 35.4816 73.299 35.403ZM74.4935 35.8811C74.6371 36.1321 74.7524 36.4116 74.9613 36.6211C75.3094 36.7565 75.6946 36.715 76.0623 36.7412C75.9731 35.9924 75.0832 35.9182 74.4935 35.8811Z" fill="#FDF8FD"/>
<path d="M6.96884 30.1199C7.96318 29.5436 9.24903 29.4083 10.2652 30.0086C9.41876 30.1352 8.57019 30.2531 7.73038 30.4212C7.43876 30.4932 7.21029 30.2334 6.96884 30.1199Z" fill="#C6363B"/>
<path d="M73.7071 30.1176C74.7189 29.5544 76.0113 29.4147 77.0449 30.0063C76.1941 30.1307 75.3455 30.253 74.5035 30.4189C74.1989 30.4974 73.9552 30.242 73.7071 30.1176Z" fill="#C63136"/>
<path d="M28.4338 29.8386C29.3499 29.5592 30.0592 30.3145 30.6227 30.9192C29.8786 31.0371 29.1214 31.0436 28.3751 30.9476C28.386 30.5765 28.4077 30.2076 28.4338 29.8386Z" fill="#576DB5"/>
<path d="M50.6858 29.8428C51.0927 29.8537 51.5017 29.8624 51.9086 29.8733C51.9782 30.6461 52.0435 31.4167 52.1044 32.1894C51.3407 31.8009 50.4051 30.9583 49.5565 31.6197C48.5883 32.2811 48.8864 33.5887 49.0474 34.5667C48.4447 34.296 47.8746 33.8507 47.7245 33.1718C47.4634 32.268 47.4286 30.9495 48.3946 30.4562C49.265 30.0567 50.0983 30.7465 50.8142 31.1656C50.7619 30.7247 50.7075 30.2859 50.6858 29.8428ZM51.1101 34.8308C51.1449 34.9225 51.2145 35.1059 51.2493 35.1976C51.5061 35.0971 51.765 34.9967 52.0239 34.8985C52.4417 35.7673 52.6419 36.9417 51.9325 37.7145C51.282 38.5004 50.1875 38.496 49.2671 38.6357C49.1366 39.9477 50.0178 41.0392 50.1766 42.3053C50.4704 44.3092 50.8816 46.3088 51.6997 48.1709C51.3168 47.9068 50.9491 47.6208 50.5987 47.3195C49.5 45.3898 49.1888 43.161 48.8385 41.0021C48.6862 39.7883 47.7266 38.806 47.9246 37.5268C48.8298 37.4744 49.8742 37.4831 50.5444 36.7584C51.0818 36.2738 51.0992 35.501 51.1101 34.8308Z" fill="#D2D3D8"/>
<path d="M60.6377 30.0391C61.7212 30.419 62.2739 31.5781 62.2326 32.6762C62.2957 33.9641 61.5428 35.1145 60.6398 35.9615C59.9109 36.6164 59.1255 37.2014 58.3922 37.8476C57.0737 37.7603 55.927 38.4545 54.9022 39.1945C55.1742 38.6182 55.4918 38.0484 55.9727 37.6184C57.4435 36.2584 59.3539 35.3219 60.4288 33.5668C61.0859 32.5124 61.0837 31.1721 60.6377 30.0391ZM55.8813 42.2855C56.0728 41.7376 56.3404 41.1177 56.9801 40.9954C57.7895 40.6876 58.5793 41.2574 58.8883 41.993C58.4357 42.1109 57.8831 42.1044 57.5632 42.4995C57.1737 42.9186 57.1846 43.6128 57.6024 44.0079C58.5271 45.0819 59.541 46.1647 59.924 47.5727C60.2982 48.7668 60.1481 50.2184 59.1929 51.1047C58.0332 52.3403 56.1511 52.3948 54.6106 52.0063C53.6315 51.729 52.574 51.3645 51.9496 50.5044C53.5923 51.1549 55.5658 51.502 57.1912 50.6266C58.5619 49.9019 59.1124 48.1424 58.6664 46.6995C58.2595 44.9422 56.8865 43.7001 55.8813 42.2855ZM36.0421 47.1907C38.1613 46.7104 39.7693 45.1474 41.09 43.508C41.4077 44.0952 41.7123 44.689 42.0778 45.25C40.6135 46.3917 39.2797 47.8696 37.3671 48.2276C36.871 47.8783 36.4119 47.4068 35.8071 47.2671C34.8497 47.2605 33.8379 47.6796 33.2483 48.4502C32.9741 49.0964 32.6478 49.7229 32.3649 50.3669C32.2822 51.6024 32.3257 52.8467 32.3344 54.0845C32.3062 54.8092 33.1917 55.2633 32.9611 56.0186C32.7979 56.9485 32.7152 57.8894 32.7609 58.8346C32.2235 58.9656 31.7034 59.1773 31.2465 59.4916C30.7722 59.3083 30.3283 59.0245 30.1651 58.5159C30.659 58.2757 31.3118 58.112 31.512 57.5292C31.6208 56.9572 31.4206 56.3722 31.5381 55.8024C31.6425 55.2676 31.6947 54.7241 31.6991 54.1805C31.4706 53.9338 31.0398 53.7788 31.0463 53.3903C30.9789 51.8709 31.0768 50.3494 31.0159 48.8301C31.1464 48.7951 31.4054 48.7296 31.5359 48.6947C31.5011 47.0837 33.2178 46.0599 34.6756 46.2738C35.2087 46.4397 35.6069 46.861 36.0421 47.1907ZM41.808 54.2067C42.4259 52.8664 43.9577 52.2137 45.3459 52.039C45.4917 52.4232 45.6418 52.8074 45.8159 53.1829C44.9543 53.5736 44.0165 53.9316 43.4051 54.6935C43.0591 55.117 43.0439 55.6933 42.9416 56.2107C42.1801 55.9007 41.4294 55.0755 41.808 54.2067ZM32.0755 62.5347C32.1952 62.4583 32.4324 62.3099 32.5498 62.2356C33.2505 62.2334 33.4419 62.8185 33.5986 63.3882C33.2875 63.8008 32.9959 64.2244 32.7022 64.6478C31.945 64.2265 32.1169 63.2594 32.0755 62.5347ZM34.4994 63.6305C34.6604 63.0171 35.0782 62.5325 35.6199 62.2182C36.0573 62.5107 36.3771 62.932 36.6926 63.3468C36.2139 63.8488 35.8723 64.4579 35.5721 65.0778C35.0912 64.698 34.7235 64.2025 34.4994 63.6305ZM49.1058 63.8554C49.3647 63.3402 49.6736 62.729 50.3503 62.7748C50.6397 63.0761 50.9378 63.3708 51.2272 63.6742L51.3316 63.7921C50.8617 64.2308 50.4874 64.7526 50.1371 65.2896C49.6976 64.8857 49.3799 64.3793 49.1058 63.8554Z" fill="#D2D3D7"/>
<path d="M5.87119 31.1632C6.11708 30.8882 6.36952 30.6197 6.6284 30.3577C7.92957 30.7506 9.12627 31.4252 10.1793 32.2787C10.1011 32.652 10.0205 33.0231 9.93566 33.3942C8.58232 32.6455 7.26161 31.8421 5.87119 31.1632ZM72.0535 32.9969C73.3764 33.6562 74.6776 34.3656 76.0701 34.8786C75.8634 35.1842 75.796 35.6929 75.4021 35.8042C74.3099 35.5859 73.2241 35.169 72.3734 34.4311C71.9795 34.0709 72.0775 33.475 72.0535 32.9969Z" fill="#EF0C14"/>
<path d="M8.12607 30.5279C9.05946 30.3358 10.032 30.2179 10.9742 30.4188C11.1897 30.6021 11.3855 30.8008 11.566 31.0213C10.8045 31.0584 10.0429 31.0933 9.28359 31.1304C8.79836 31.209 8.4611 30.8052 8.12607 30.5279Z" fill="#E31219"/>
<path d="M72.6388 31.1679C72.8956 30.8906 73.1567 30.6221 73.4243 30.3602C74.6928 30.7968 75.933 31.3927 76.9361 32.2986C77.0035 32.6719 76.7838 33.0299 76.7098 33.3879C75.3455 32.6632 74.027 31.8511 72.6388 31.1679Z" fill="#EF0D14"/>
<path d="M74.8966 30.5241C75.8409 30.3342 76.8331 30.2032 77.7839 30.4368C77.9863 30.6201 78.1516 30.8406 78.3213 31.0589C77.5054 31.0524 76.6916 31.1135 75.8779 31.1288C75.4601 31.1375 75.1925 30.762 74.8966 30.5241Z" fill="#DC151B"/>
<path d="M55.4389 30.7793C56.1874 30.513 56.9098 31.0041 57.1383 31.7245C56.4529 32.0214 55.8915 32.5213 55.4172 33.0889C55.4694 32.3205 55.489 31.5499 55.4389 30.7793Z" fill="#D3D3D8"/>
<path d="M9.43759 31.3665C10.2296 31.2486 11.0389 31.2486 11.8288 31.3905C11.9289 31.6154 12.0268 31.8424 12.1247 32.0716C11.5437 32.0913 10.9607 32.1349 10.3796 32.0869C10.0272 31.9013 9.73344 31.6285 9.43759 31.3665Z" fill="#E1131A"/>
<path d="M28.6679 31.4666C29.3707 31.4579 30.0343 31.7439 30.6457 32.0669C29.9821 32.497 29.1161 32.7327 28.3459 32.473C28.4177 32.1324 28.224 31.5976 28.6679 31.4666Z" fill="#566DB5"/>
<path d="M76.2198 31.3666C77.0162 31.2422 77.8321 31.2422 78.6219 31.4103C78.7133 31.6286 78.8069 31.8491 78.9004 32.0674C78.3217 32.0936 77.7429 32.1328 77.1641 32.1001C76.7986 31.9298 76.5136 31.6329 76.2198 31.3666Z" fill="#E21219"/>
<path d="M5.33017 32.6215C5.40843 32.2024 5.53898 31.7986 5.72182 31.4144C7.05996 31.9885 8.35025 32.6892 9.54907 33.5144C9.94948 33.7851 9.52298 34.2806 9.48379 34.6364C8.00423 34.1933 6.60736 33.486 5.33017 32.6215ZM8.28497 50.0176C8.87678 49.5919 9.82105 50.0569 9.82981 50.7903C9.90153 51.5413 8.9899 52.1503 8.33937 51.7421C7.67785 51.419 7.60392 50.3603 8.28497 50.0176ZM9.90597 51.7748C10.6979 51.8251 11.7314 52.1481 12.0034 52.982C11.7967 53.5343 11.1418 53.6587 10.7175 53.9993C10.2759 54.2285 9.89942 54.724 9.35979 54.6607C8.66574 54.0735 8.9768 53.0431 9.08126 52.2682C9.47724 52.4537 9.81239 52.7332 10.1496 53.006C10.0669 52.5956 9.97768 52.1874 9.90597 51.7748Z" fill="#F10B13"/>
<path d="M72.3963 31.5387C72.6966 31.3859 72.9881 31.6718 73.2732 31.7526C74.4176 32.3355 75.5687 32.9445 76.5804 33.7457C76.439 34.0447 76.2954 34.3438 76.1474 34.6407C74.7201 34.1364 73.3493 33.4706 72.083 32.6367C72.1591 32.2634 72.2309 31.8858 72.3963 31.5387ZM5.43287 52.7614C5.41544 51.742 6.85582 51.6459 7.62824 51.5892C7.48681 52.0061 7.32151 52.4143 7.17131 52.8291C7.52821 52.6043 7.87202 52.3576 8.21793 52.1153C8.48769 52.7833 8.44417 53.5844 8.14178 54.2327C7.96116 54.6344 7.37158 54.5515 7.1278 54.2589C6.60127 53.7154 5.92243 53.3377 5.43287 52.7614Z" fill="#F10C13"/>
<path d="M11.5834 32.2852C11.8141 32.3354 12.0426 32.3856 12.2732 32.438C12.5061 34.0185 11.7488 35.8129 10.167 36.3542C10.8763 35.0903 11.4746 33.7543 11.5834 32.2852Z" fill="#E11219"/>
<path d="M77.1748 32.6699C77.2553 32.2639 77.7361 32.3643 78.032 32.2792C78.0146 33.7854 77.5142 35.3702 76.3218 36.3569C76.1956 36.2565 75.9476 36.0557 75.8214 35.9553C76.3632 34.8987 76.8201 33.8029 77.1748 32.6699Z" fill="#EB0F16"/>
<path d="M78.3395 32.2548C78.5636 32.34 78.8682 32.3029 79.0248 32.5212C79.349 34.1671 78.3373 35.9528 76.7315 36.4592C77.6715 35.2433 78.2133 33.7873 78.3395 32.2548Z" fill="#E41118"/>
<path d="M9.04501 35.9549C9.66513 34.8001 10.1394 33.5755 10.5201 32.3203C10.7225 32.3312 11.1273 32.3508 11.3296 32.3617C11.1665 33.8156 10.7508 35.3982 9.53891 36.3347C9.41491 36.2387 9.16901 36.0509 9.04501 35.9549Z" fill="#E90F16"/>
<path d="M28.6378 33.1C29.2514 32.8053 29.9041 33.0716 30.398 33.4689C29.8388 33.6916 29.2448 33.7985 28.6465 33.7964C28.6443 33.6217 28.64 33.2724 28.6378 33.1Z" fill="#556DB6"/>
<path d="M5.24516 32.9645C6.57897 33.639 7.89535 34.3507 9.29876 34.8746C9.1399 35.1889 8.97894 35.5033 8.81575 35.8154C7.69086 35.6561 6.60728 35.2173 5.70864 34.5166C5.21474 34.1717 5.304 33.4884 5.24516 32.9645ZM77.1347 51.5982C77.8114 51.6223 78.5164 51.7336 79.0777 52.1396C79.4759 52.3252 79.3432 52.9167 79.0168 53.1067C78.536 53.4909 78.0529 53.8729 77.596 54.2876C77.3501 54.5911 76.7278 54.602 76.5908 54.1872C76.3427 53.6109 76.3362 52.9648 76.3493 52.3492C76.8192 52.1287 77.163 52.657 77.5634 52.8185C77.4219 52.4103 77.2653 52.0086 77.1347 51.5982Z" fill="#F00C14"/>
<path d="M31.0934 34.652C32.1117 34.8855 33.1365 35.1147 34.1113 35.5011C34.1983 35.702 34.2832 35.9072 34.3659 36.1102C33.7022 35.9748 33.0364 35.8548 32.3685 35.75C32.301 37.8063 32.3184 39.8671 32.3859 41.9234C31.979 42.122 31.5482 42.2727 31.1087 42.3796C31.076 39.8037 31.0912 37.2278 31.0934 34.652Z" fill="#D1D3D8"/>
<path d="M5.90574 35.0753C6.21247 35.001 6.31482 35.1167 6.21036 35.4202C5.90574 35.4922 5.80561 35.3765 5.90574 35.0753Z" fill="#BC7D80"/>
<path d="M72.674 35.0971C72.9765 35.0076 73.0853 35.119 72.9961 35.4268C72.6936 35.5097 72.587 35.4006 72.674 35.0971Z" fill="#C86D70"/>
<path d="M6.50986 35.392C7.11687 35.4815 7.68048 35.8046 7.66738 36.4922C7.10821 36.3459 6.53816 36.0512 6.50986 35.392Z" fill="#C33539"/>
<path d="M34.113 35.5009C34.6831 35.7607 35.3489 36.2628 35.1291 36.9853C34.9942 37.8148 33.9324 37.5791 33.3341 37.7625C33.7018 37.4961 34.1652 37.3193 34.4285 36.9307C34.4829 36.6579 34.4133 36.3806 34.3676 36.11C34.2849 35.9069 34.2001 35.7017 34.113 35.5009Z" fill="#566DAF"/>
<path d="M73.2979 35.4024C73.9072 35.481 74.4315 35.8259 74.4468 36.4961C73.8637 36.3782 73.3284 36.0617 73.2979 35.4024Z" fill="#CE3439"/>
<path d="M7.71497 35.9049C8.36993 35.8874 9.06398 36.0555 9.42743 36.6558C9.02923 36.682 8.60706 36.7824 8.22196 36.6318C8.00004 36.4288 7.86949 36.1537 7.71497 35.9049Z" fill="#CC2B30"/>
<path d="M74.4931 35.8809C75.0828 35.918 75.9727 35.9922 76.0619 36.741C75.6942 36.7148 75.3091 36.7562 74.9609 36.6209C74.7521 36.4113 74.6367 36.1319 74.4931 35.8809Z" fill="#CA1D23"/>
<path d="M36.4837 38.3581C37.0951 38.0677 37.5412 37.5438 37.985 37.0483C38.1743 37.3714 38.3615 37.6966 38.5421 38.0263C37.6043 38.62 36.6143 39.1287 35.6787 39.7246C35.2783 39.3666 34.8758 39.0108 34.4493 38.6855C35.1347 38.6637 35.8571 38.679 36.4837 38.3581Z" fill="#CDD3DF"/>
<path d="M56.2943 40.5655C57.1016 39.5395 58.8684 39.6028 59.5951 40.6965C60.2304 41.4169 59.9193 42.421 59.7844 43.2658C59.5385 43.4907 59.2056 43.5736 58.9119 43.7111C58.9097 43.137 58.9445 42.5629 58.8879 41.9932C58.579 41.2575 57.7891 40.6877 56.9797 40.9955C56.34 41.1178 56.0724 41.7378 55.8809 42.2857C55.8744 41.6963 55.8744 41.0327 56.2943 40.5655ZM28.7135 46.3809C29.0007 46.2958 29.2923 46.2259 29.5838 46.1582C29.4968 46.6603 29.4163 47.1646 29.3532 47.671C29.8514 47.4375 30.3628 47.2279 30.8893 47.0685C30.935 47.5925 30.9785 48.1164 31.0068 48.6425C30.7871 48.4089 30.5673 48.1753 30.3454 47.9439C30.2496 49.9129 30.3432 51.8863 30.3236 53.8554C30.2823 54.1763 30.3519 54.6194 29.9907 54.7809C29.5468 54.9512 29.0638 54.9665 28.5982 55.032C28.5851 54.7111 28.5699 54.3902 28.5546 54.0693C28.8136 53.9711 29.0747 53.875 29.3358 53.7811C29.4598 52.2072 29.3554 50.6246 29.3989 49.0463C29.4859 48.0924 28.8919 47.2868 28.7135 46.3809Z" fill="#5A6DB1"/>
<path d="M27.5147 45.2392C27.9216 45.1256 28.3415 45.0973 28.7615 45.058C28.459 45.5731 28.2154 46.1233 28.1 46.7127L28.0326 46.9746C27.8302 46.4027 27.8193 45.7696 27.5147 45.2392Z" fill="#6C81B9"/>
<path d="M6.80725 47.658C7.00741 47.2432 7.18802 46.6189 7.74719 46.6145C8.59144 46.6451 9.43135 46.7477 10.2777 46.7608C10.8848 46.7848 11.0893 47.4157 11.2765 47.8872C11.7421 48.0051 12.397 48.0662 12.5493 48.6229C12.7277 49.4328 12.9583 50.2295 13.1716 51.0329C13.3021 51.5961 12.7951 51.9672 12.3883 52.2313C12.4297 52.7574 12.5841 53.4559 12.0445 53.7856C11.3591 54.1829 10.6999 54.6195 10.0363 55.0495C9.54225 55.3639 9.02005 55.0015 8.60454 54.7352C8.14328 54.8792 7.63629 55.1761 7.15972 54.9163C6.68325 54.5911 6.3047 54.1436 5.83035 53.8161C5.51485 53.5542 5.09711 53.3533 4.96001 52.9386C4.88164 52.5413 5.02096 52.1505 5.08835 51.7642C4.72067 51.4192 4.24632 50.9565 4.49876 50.4042C4.82292 49.6772 5.10355 48.935 5.37342 48.1885C5.60189 47.6078 6.2916 47.6362 6.80725 47.658ZM7.40128 47.4091C7.27939 48.1645 7.86475 48.8041 8.26939 49.3804C8.79814 49.5463 8.69812 48.6491 8.94179 48.35C9.10065 48.7189 9.18979 49.1119 9.28992 49.5026C9.90782 49.2799 10.2843 48.6905 10.5671 48.1273C10.7652 47.8501 10.6781 47.3939 10.3278 47.2956C9.72076 47.1232 9.07445 47.2192 8.45223 47.1537C8.09321 47.1603 7.60798 47.0097 7.40128 47.4091ZM5.27551 49.8541C5.14063 50.2448 4.79683 50.6727 5.05138 51.0896C5.74764 51.559 6.60055 51.0809 7.33822 50.9521C7.23809 50.5177 6.8813 50.247 6.59189 49.9414C6.95745 49.9021 7.41871 50.1597 7.71244 49.8541C7.49053 49.0769 6.95523 48.3784 6.21978 48.0313C5.63885 48.4744 5.57358 49.2363 5.27551 49.8541ZM10.0471 50.1793C10.4518 50.1968 10.8586 50.2033 11.2634 50.2186C10.9871 50.5286 10.2147 50.6377 10.4235 51.1595C10.9392 51.4454 11.5027 51.6659 12.0924 51.7205C12.4449 51.7227 12.7778 51.4127 12.6602 51.0481C12.4644 50.3081 12.2817 49.5637 12.0815 48.8237C12.0118 48.505 11.5223 48.3609 11.272 48.5683C10.7172 48.9569 10.1994 49.4939 10.0471 50.1793ZM8.28471 50.0178C7.60365 50.3605 7.67759 51.4192 8.33911 51.7423C8.98964 52.1505 9.90127 51.5415 9.82955 50.7906C9.82078 50.0571 8.87651 49.5921 8.28471 50.0178ZM5.43215 52.7618C5.92171 53.3381 6.60055 53.7157 7.12708 54.2593C7.37086 54.5518 7.96045 54.6347 8.14106 54.2331C8.44346 53.5847 8.48698 52.7836 8.21722 52.1156C7.8713 52.3579 7.5275 52.6046 7.1706 52.8294C7.32079 52.4147 7.48609 52.0065 7.62752 51.5895C6.8551 51.6463 5.41472 51.7423 5.43215 52.7618ZM9.9057 51.7751C9.97742 52.1876 10.0667 52.5959 10.1494 53.0063C9.81212 52.7334 9.47698 52.454 9.081 52.2684C8.97654 53.0434 8.66548 54.0737 9.35953 54.6609C9.89916 54.7242 10.2756 54.2287 10.7172 53.9995C11.1415 53.659 11.7965 53.5345 12.0032 52.9822C11.7312 52.1484 10.6977 51.8253 9.9057 51.7751Z" fill="#FFF3F9"/>
<path d="M74.1178 46.8746C74.5138 46.6628 74.9773 46.7567 75.4081 46.7305C75.9847 46.7349 76.5591 46.5711 77.1379 46.6366C77.6209 46.7218 77.771 47.2544 77.9364 47.6452C78.4455 47.6408 79.1005 47.5993 79.355 48.1538C79.6531 48.8982 79.9164 49.6557 80.245 50.387C80.5061 50.9458 80.0578 51.4457 79.6423 51.7579C79.7576 52.2818 80.0056 52.9694 79.4965 53.3689C78.8851 53.847 78.2889 54.3469 77.7014 54.8533C77.2075 55.2462 76.6004 54.9341 76.1457 54.6503C75.902 54.8337 75.6779 55.0563 75.3885 55.1633C74.7945 55.2659 74.3441 54.7987 73.8894 54.5062C73.4651 54.1984 72.969 54.0041 72.5643 53.668C72.1813 53.3143 72.338 52.7577 72.3684 52.3058C71.9855 51.9914 71.4916 51.6225 71.5873 51.0571C71.7875 50.2516 72.0225 49.4548 72.2009 48.645C72.3445 48.0337 73.0582 48.0075 73.5564 47.8875C73.6892 47.5295 73.7262 47.0536 74.1178 46.8746ZM75.2036 47.2064C74.8337 47.2304 74.3136 47.1627 74.1309 47.5797C74.0917 48.4398 74.7945 49.099 75.4277 49.5727C75.556 49.1667 75.6583 48.7519 75.7714 48.3415C75.9216 48.693 76.0456 49.0554 76.2001 49.4046C76.6287 49.4745 76.7571 48.9287 76.9834 48.6646C77.2488 48.2367 77.6427 47.5076 77.0704 47.154C76.4481 47.106 75.8258 47.2151 75.2036 47.2064ZM78.1235 48.2477C77.5861 48.6864 77.1966 49.3042 77.0247 49.9809C77.449 49.9787 77.8733 49.9569 78.2976 49.9504C78.0191 50.2713 77.3881 50.4263 77.4447 50.9327C78.2106 51.151 79.3442 51.6858 79.8772 50.8039C79.54 50.0639 79.2658 49.2998 78.9743 48.5424C78.8916 48.1647 78.4216 48.0053 78.1235 48.2477ZM72.6034 49.0925C72.5055 49.9504 71.9463 50.7646 72.1748 51.6378C73.0234 51.8452 73.835 51.4391 74.5378 51.0026C74.1983 50.7144 73.8284 50.4699 73.4564 50.2276C73.8959 50.2123 74.3376 50.2014 74.7771 50.1665C74.5138 49.5072 74.0569 48.9004 73.4346 48.5511C73.0364 48.2979 72.6121 48.6799 72.6034 49.0925ZM75.4929 49.9635C74.8532 50.232 74.7227 51.1837 75.2797 51.6138C75.828 52.1661 76.8855 51.771 76.9246 50.9895C77.0813 50.2145 76.1653 49.5967 75.4929 49.9635ZM74.2592 51.8364C73.6304 52.0744 72.7753 52.3516 72.7688 53.1681C73.4672 53.6505 74.1874 54.1002 74.8946 54.5717C75.197 54.8053 75.5952 54.6044 75.7192 54.2704C75.8781 53.609 75.778 52.9214 75.667 52.2599C75.2732 52.4739 74.925 52.7555 74.566 53.0196C74.6705 52.6245 74.7945 52.2359 74.9142 51.8474C74.6988 51.8037 74.4703 51.7317 74.2592 51.8364ZM77.1357 51.5985C77.2662 52.0089 77.4229 52.4106 77.5643 52.8188C77.164 52.6572 76.8202 52.129 76.3502 52.3494C76.3372 52.965 76.3437 53.6112 76.5917 54.1875C76.7288 54.6023 77.3511 54.5913 77.597 54.2879C78.0539 53.8732 78.5369 53.4911 79.0178 53.1069C79.3442 52.917 79.4769 52.3254 79.0787 52.1399C78.5173 51.7338 77.8124 51.6225 77.1357 51.5985Z" fill="#FFF2F4"/>
<path d="M7.40135 47.4092C7.60806 47.0098 8.09329 47.1604 8.4523 47.1538C9.07452 47.2193 9.72083 47.1233 10.3278 47.2957C10.6782 47.394 10.7652 47.8502 10.5672 48.1274C10.2843 48.6906 9.90789 49.28 9.29 49.5027C9.18986 49.112 9.10072 48.719 8.94186 48.3501C8.69819 48.6492 8.79822 49.5464 8.26947 49.3805C7.86483 48.8042 7.27946 48.1646 7.40135 47.4092ZM5.27558 49.8542C5.57365 49.2364 5.63893 48.4745 6.21985 48.0314C6.95531 48.3785 7.4906 49.077 7.71252 49.8542C7.41878 50.1598 6.95753 49.9022 6.59196 49.9415C6.88137 50.2471 7.23816 50.5178 7.3383 50.9522C6.60062 51.081 5.74772 51.5591 5.05145 51.0897C4.7969 50.6728 5.1407 50.2449 5.27558 49.8542ZM78.1225 48.2475C78.4205 48.0052 78.8905 48.1646 78.9732 48.5422C79.2648 49.2997 79.5389 50.0637 79.8762 50.8038C79.3431 51.6857 78.2095 51.1508 77.4436 50.9325C77.387 50.4261 78.018 50.2711 78.2965 49.9502C77.8722 49.9568 77.4479 49.9786 77.0237 49.9808C77.1955 49.3041 77.585 48.6863 78.1225 48.2475ZM10.0472 50.1794C10.1995 49.494 10.7173 48.957 11.2721 48.5684C11.5223 48.361 12.0119 48.5051 12.0816 48.8238C12.2818 49.5638 12.4645 50.3082 12.6603 51.0482C12.7779 51.4128 12.445 51.7228 12.0925 51.7206C11.5028 51.666 10.9393 51.4455 10.4235 51.1596C10.2147 50.6378 10.9871 50.5287 11.2635 50.2187C10.8587 50.2034 10.4518 50.1969 10.0472 50.1794ZM72.6024 49.0923C72.6111 48.6797 73.0353 48.2977 73.4335 48.5509C74.0558 48.9002 74.5127 49.5071 74.776 50.1663C74.3365 50.2013 73.8948 50.2122 73.4553 50.2275C73.8274 50.4698 74.1972 50.7143 74.5367 51.0024C73.8339 51.439 73.0223 51.845 72.1737 51.6376C71.9453 50.7645 72.5044 49.9502 72.6024 49.0923ZM75.4919 49.9633C76.1642 49.5966 77.0802 50.2144 76.9236 50.9893C76.8844 51.7708 75.8269 52.1659 75.2786 51.6136C74.7216 51.1836 74.8522 50.2318 75.4919 49.9633ZM74.2582 51.8363C74.4692 51.7315 74.6977 51.8035 74.9131 51.8472C74.7934 52.2358 74.6694 52.6243 74.565 53.0195C74.924 52.7553 75.2721 52.4737 75.6659 52.2598C75.7769 52.9212 75.877 53.6089 75.7182 54.2703C75.5941 54.6043 75.196 54.8051 74.8935 54.5715C74.1864 54.1 73.4662 53.6503 72.7677 53.1679C72.7742 52.3515 73.6294 52.0742 74.2582 51.8363Z" fill="#F20B13"/>
<path d="M75.2033 47.2062C75.8255 47.2149 76.4478 47.1058 77.0701 47.1538C77.6424 47.5074 77.2485 48.2365 76.9831 48.6644C76.7568 48.9285 76.6284 49.4743 76.1998 49.4044C76.0453 49.0551 75.9213 48.6928 75.7711 48.3413C75.658 48.7517 75.5557 49.1665 75.4274 49.5725C74.7942 49.0988 74.0914 48.4396 74.1306 47.5795C74.3133 47.1625 74.8334 47.2302 75.2033 47.2062Z" fill="#F30B12"/>
<path d="M30.3449 47.9438C30.5668 48.1752 30.7866 48.4088 31.0064 48.6423L31.0151 48.8301C31.076 50.3494 30.9781 51.8709 31.0455 53.3903C31.039 53.7788 31.4698 53.9338 31.6983 54.1805C31.6939 54.7241 31.6417 55.2676 31.5373 55.8025C31.4198 56.3722 31.6199 56.9572 31.5111 57.5292C31.311 58.112 30.6582 58.2757 30.1643 58.5159C29.5181 58.3129 28.9894 57.9046 28.6826 57.2912C29.1591 57.4113 29.6334 57.6056 30.1295 57.5881C30.7779 57.4135 30.9694 56.4006 30.4276 56.0033C29.8575 55.7086 29.1939 55.7042 28.5694 55.6365C28.5781 55.4837 28.5912 55.1825 28.5977 55.0319C29.0633 54.9664 29.5464 54.9511 29.9902 54.7808C30.3514 54.6193 30.2818 54.1761 30.3231 53.8552C30.3427 51.8862 30.2492 49.9128 30.3449 47.9438Z" fill="#043083"/>
<path d="M50.0645 49.3716C50.5432 49.6379 51.0023 49.9326 51.4614 50.2273C51.3613 51.1332 51.8204 51.9453 52.1316 52.7617C50.9806 52.0042 50.2843 50.7163 50.0645 49.3716Z" fill="#CFD3DE"/>
<path d="M54.8844 54.4579C55.6198 54.4383 56.3552 54.3924 57.0885 54.3269C55.3239 56.1672 54.6254 58.778 54.7756 61.2862C54.7756 62.0088 54.9845 62.7532 54.7908 63.4648C54.5036 63.9822 53.7986 63.9428 53.3047 64.1502C53.1328 64.4406 52.9588 64.7287 52.7847 65.0168C52.3386 64.6632 51.9013 64.3009 51.464 63.9385C51.7077 63.5761 51.8643 63.0391 52.3756 62.9933C52.9392 62.8863 53.655 62.6658 53.5702 61.9433C53.4113 59.4067 53.3265 56.6234 54.8844 54.4579Z" fill="#D2D3D6"/>
<path d="M28.5694 55.6367C29.1939 55.7044 29.8575 55.7087 30.4276 56.0034C30.9694 56.4007 30.7779 57.4136 30.1295 57.5883C29.6334 57.6057 29.1591 57.4114 28.6826 57.2914C28.6565 56.774 28.8871 56.309 29.1678 55.8921C28.9676 55.807 28.7674 55.7218 28.5694 55.6367Z" fill="#586DB3"/>
<path d="M48.4814 55.735C48.8274 55.855 49.1777 55.9642 49.5258 56.0755C49.5955 56.3506 49.6651 56.6256 49.726 56.905C49.2517 56.5841 48.7621 56.2523 48.4814 55.735Z" fill="#C8CDE1"/>
<path d="M35.6202 62.2182C36.0663 62.203 36.5123 62.2139 36.9605 62.2226C37.0889 62.7531 37.2216 63.2857 37.3565 63.8162C37.1215 63.6786 36.8996 63.5215 36.6929 63.3468C36.3774 62.9321 36.0576 62.5107 35.6202 62.2182Z" fill="#586EAF"/>
<path d="M47.3194 62.7421C47.7328 62.6767 48.1528 62.6439 48.5705 62.6134C48.5945 63.1482 48.6206 63.683 48.651 64.22C48.5901 64.1108 48.4704 63.8948 48.4117 63.7856C48.242 63.4756 48.0766 63.1613 47.9134 62.8491C47.7655 62.8229 47.4674 62.7683 47.3194 62.7421Z" fill="#4C68A4"/>
<path d="M50.3497 62.7749C50.4998 62.7902 50.7979 62.8208 50.9481 62.8361C51.0373 63.1155 51.1265 63.3971 51.2266 63.6743C50.9372 63.3709 50.6391 63.0762 50.3497 62.7749Z" fill="#5A72AE"/>
<path d="M65.794 64.1479C65.8745 63.6938 66.9451 63.6916 66.9973 64.1719C66.5947 64.1675 66.1944 64.1784 65.794 64.1479Z" fill="#2A3A46"/>
<path d="M65.771 64.4778C66.1626 64.1264 66.7806 64.2158 67.1788 64.5149C67.5312 64.8227 67.7075 65.2746 68.0208 65.6195C68.4386 65.9513 69.1479 66.1041 69.2023 66.7328C69.409 68.0906 67.9751 68.8328 67.1766 69.6864C66.0582 68.5906 64.8985 67.5253 63.8758 66.3355C64.4981 65.7068 65.0747 65.0258 65.771 64.4778ZM65.14 65.8771C65.4598 66.2787 65.8276 66.6389 66.2453 66.938C66.5086 66.5625 66.9459 66.0343 66.5347 65.5999C66.1061 65.0869 65.5273 65.5933 65.14 65.8771ZM67.1374 66.8397C67.046 66.9402 66.8633 67.1432 66.7719 67.2458L66.613 67.1301C66.8002 67.6169 67.1613 67.9946 67.5682 68.3068C67.8598 67.9619 68.3494 67.5055 67.9751 67.0341C67.788 66.7241 67.429 66.8267 67.1374 66.8397ZM15.5745 66.746C16.397 66.0124 17.1563 65.2091 17.9788 64.4778C18.7142 65.0651 19.3931 65.7243 19.9697 66.4709C19.7999 66.6368 19.6303 66.8049 19.4627 66.973C19.0733 66.6259 18.6882 66.2744 18.3052 65.9186C18.0702 66.1566 17.833 66.3945 17.598 66.6324C17.9244 66.9839 18.2508 67.3354 18.5794 67.6846C18.4531 67.8985 18.3269 68.1103 18.2007 68.3242C17.7786 67.9771 17.3652 67.6235 16.9496 67.2699C16.4448 67.7675 15.9314 68.2566 15.4614 68.787C15.1502 68.4661 14.839 68.1452 14.5323 67.8221C14.8696 67.4532 15.2089 67.0864 15.5745 66.746ZM33.4838 73.7226C34.3933 73.8668 35.3681 73.9453 36.1557 74.4692C36.7127 74.8971 36.5626 75.6852 36.4016 76.2724C36.3798 76.3401 36.3385 76.4797 36.3167 76.5496C36.0034 77.2788 36.1884 78.3702 35.318 78.7348C34.3563 78.9705 33.4055 78.4903 32.4829 78.2741C32.6744 76.7286 33.1596 75.242 33.4838 73.7226ZM34.4607 74.6745C34.4216 75.0761 34.3846 75.4799 34.3541 75.886C34.6762 75.7965 35.3485 75.9558 35.305 75.4342C35.4203 74.9408 34.8589 74.7029 34.4607 74.6745ZM34.0691 76.5016C33.9081 76.9557 33.8167 77.4293 33.7841 77.9118C34.1757 77.8791 34.7044 78.01 34.922 77.5735C34.959 77.2788 34.872 76.9905 34.8328 76.7046C34.5782 76.6369 34.3237 76.5693 34.0691 76.5016Z" fill="#FFFFF8"/>
<path d="M65.1408 65.8766C65.5281 65.5929 66.1069 65.0864 66.5355 65.5994C66.9467 66.0338 66.5094 66.5621 66.2461 66.9375C65.8283 66.6385 65.4606 66.2783 65.1408 65.8766ZM65.539 65.8744C65.75 66.1277 65.9785 66.3635 66.2265 66.5795C66.3005 66.4551 66.4506 66.2019 66.5246 66.0775C66.455 65.9487 66.3157 65.6911 66.2483 65.5622C66.0089 65.6627 65.774 65.7675 65.539 65.8744Z" fill="#A69A77"/>
<path d="M65.5382 65.8747C65.7732 65.7678 66.0082 65.663 66.2475 65.5625C66.315 65.6914 66.4542 65.949 66.5238 66.0778C66.4499 66.2022 66.2997 66.4554 66.2257 66.5798C65.9777 66.3638 65.7492 66.128 65.5382 65.8747Z" fill="#323B38"/>
<path d="M62.9044 66.8835C63.098 66.6936 63.2938 66.508 63.4918 66.3247C63.8509 66.7002 64.2055 67.08 64.5624 67.4576C64.4492 68.0732 64.7299 68.6517 64.9018 69.2258C64.2664 68.4204 63.6616 67.5799 62.9044 66.8835Z" fill="#143362"/>
<path d="M67.1387 66.8396C67.4303 66.8266 67.7893 66.724 67.9764 67.034C68.3507 67.5054 67.8611 67.9617 67.5695 68.3066C67.1627 67.9945 66.8015 67.6168 66.6143 67.13L66.7732 67.2457C67.0604 67.4531 67.3411 67.667 67.6239 67.8831C67.7023 67.6648 67.7806 67.4444 67.8611 67.2282C67.6218 67.0951 67.3802 66.9641 67.1387 66.8396Z" fill="#9B916E"/>
<path d="M66.7725 67.2459C66.8639 67.1433 67.0467 66.9403 67.1381 66.8398C67.3796 66.9643 67.6211 67.0953 67.8605 67.2284C67.78 67.4446 67.7016 67.665 67.6233 67.8833C67.3404 67.6672 67.0598 67.4533 66.7725 67.2459Z" fill="#3B4342"/>
<path d="M62.4218 67.7958C62.6198 67.6015 62.82 67.4072 63.0223 67.2173C63.7403 68.0905 64.4714 68.9637 65.0589 69.9351C65.6159 70.7603 65.1024 71.9936 64.1994 72.3145C63.5967 72.5699 62.9505 72.3233 62.3391 72.2534C62.2978 72.1792 62.2173 72.0351 62.1781 71.9609C61.6515 71.0179 60.9357 70.1993 60.3243 69.3152C60.6376 69.0685 60.9531 68.8261 61.2708 68.5839C62.0258 69.4221 62.5784 70.4241 63.3596 71.2383C63.7882 71.7339 64.6803 71.1161 64.3974 70.5442C63.8361 69.5619 63.0332 68.7432 62.4218 67.7958Z" fill="#FFFFF4"/>
<path d="M19.8172 68.0163C20.4242 67.5972 21.2336 67.6627 21.9147 67.8111C22.6914 68.0054 23.1592 68.6908 23.4813 69.3763C23.7097 70.5551 23.1571 71.7186 22.2323 72.4368C20.9094 73.2205 19.073 72.4958 18.5117 71.0812C18.3789 69.8958 18.8119 68.6931 19.8172 68.0163ZM21.1096 68.7869C20.1001 69.1842 19.1361 70.8804 20.2567 71.6444C21.4751 71.8277 22.587 70.4001 22.2389 69.2345C22.0104 68.835 21.5448 68.6603 21.1096 68.7869Z" fill="#FFFFF6"/>
<path d="M21.3036 68.9982C21.8367 68.852 22.3458 69.4741 22.1196 69.9718C21.8889 70.5918 21.4168 71.1659 20.788 71.3972C20.2527 71.5828 19.7305 70.9804 19.9416 70.4804C20.2005 69.8671 20.5987 69.1422 21.3036 68.9982Z" fill="#023185"/>
<path d="M23.4804 69.3765C23.513 69.2803 23.5826 69.0904 23.6175 68.9966C23.9112 69.5532 23.9264 70.1885 23.9395 70.8041C24.2441 70.7015 24.5465 70.5378 24.8751 70.5378L25.0361 70.5508C24.4116 71.0246 23.7241 71.5135 23.4543 72.2885C23.0713 73.1421 23.3868 74.0851 23.822 74.8491C22.9952 74.3732 22.8885 73.3931 22.8516 72.533C22.6971 72.509 22.3881 72.4609 22.2314 72.4369C23.1562 71.7187 23.7088 70.5553 23.4804 69.3765Z" fill="#28334A"/>
<path d="M65.3703 70.1226C65.8294 70.223 65.825 71.3057 65.3594 71.3931C65.3681 70.9674 65.3725 70.5461 65.3703 70.1226Z" fill="#2F3C42"/>
<path d="M57.1545 70.9128C57.4983 70.7491 57.842 70.5854 58.1858 70.4282C58.7276 71.3035 59.2259 72.203 59.7307 73.098C59.8786 73.2813 59.9374 73.5956 60.1919 73.6633C60.675 73.4712 61.1123 73.1874 61.5671 72.943C61.6911 73.1831 61.8129 73.4276 61.9326 73.672C61.1384 74.1545 60.3421 74.637 59.5109 75.0561C58.6536 73.7223 57.7985 72.3645 57.1545 70.9128ZM29.2886 72.3165C30.3047 72.6112 31.3012 72.9735 32.2825 73.3664C32.2368 73.6022 32.189 73.838 32.1433 74.0759C31.7843 74.0039 31.4253 73.934 31.0662 73.8598C30.6158 75.0561 30.222 76.2763 29.7325 77.4595C29.3669 77.3132 29.0014 77.167 28.6358 77.0208C28.923 76.1388 29.2277 75.2613 29.5366 74.3859C29.6215 74.1763 29.7063 73.969 29.7868 73.7616C29.8108 73.6961 29.8543 73.5651 29.8782 73.4996C29.5758 73.2726 29.2603 73.063 28.9492 72.8513C29.034 72.716 29.2037 72.4496 29.2886 72.3165Z" fill="#FFFFF7"/>
<path d="M25.0381 70.5506C25.9933 70.6402 27.129 70.7034 27.7122 71.5963C28.4498 72.5655 28.0472 73.8448 27.5446 74.8206C26.6112 75.8946 24.7922 75.8552 23.8239 74.849C23.3888 74.0849 23.0733 73.1419 23.4562 72.2883C23.726 71.5134 24.4136 71.0244 25.0381 70.5506ZM25.4798 71.8386C24.7596 72.404 24.1677 73.7116 24.9684 74.4276C26.1064 74.8228 27.0007 73.4212 26.8288 72.4084C26.9484 71.7055 25.9149 71.3431 25.4798 71.8386ZM54.8252 71.9958C55.5019 71.7688 56.1612 72.1683 56.7878 72.38C56.6703 72.5917 56.555 72.8035 56.4397 73.0174C55.8 73.0328 54.9797 72.6899 54.4988 73.262C53.9179 73.9015 54.3313 74.8533 54.7534 75.4623C55.095 75.9907 55.7804 75.792 56.3026 75.792C56.3548 75.7156 56.4593 75.5605 56.5115 75.4841C56.6877 75.2244 56.8596 74.9647 57.0315 74.7027C57.2578 74.7201 57.4862 74.7419 57.7125 74.7638C57.5624 75.4995 57.2404 76.2526 56.5506 76.6281C55.726 77.1432 54.7251 76.8616 53.8787 76.5647C53.7177 76.4337 53.5676 76.2941 53.4261 76.1456C53.1803 75.5824 52.9018 75.0018 52.9018 74.373C52.7799 73.227 53.7591 72.2228 54.8252 71.9958Z" fill="#FFFFF3"/>
<path d="M25.4779 71.8389C25.913 71.3434 26.9466 71.7058 26.8269 72.4087C26.9988 73.4215 26.1045 74.8231 24.9666 74.4279C24.1658 73.7119 24.7577 72.4043 25.4779 71.8389Z" fill="#06317B"/>
<path d="M28.1149 71.8713C28.4282 71.963 28.7459 72.0416 29.0701 72.1005C28.9635 72.4367 28.8569 72.7729 28.7481 73.1091C29.0962 73.3229 29.4422 73.5391 29.786 73.7618C29.7055 73.9691 29.6206 74.1765 29.5357 74.3861C29.4139 74.5608 29.2942 74.7375 29.1745 74.9165C29.1789 74.504 29.2028 74.0914 29.2398 73.681C28.772 73.382 28.3825 73.6919 28.0997 74.0805C28.3194 73.3623 28.3412 72.5917 28.1149 71.8713Z" fill="#374654"/>
<path d="M29.4356 72.0916C30.2907 72.0807 31.3221 72.216 31.8639 72.9604C31.0349 72.7269 30.2407 72.3929 29.4356 72.0916Z" fill="#253C58"/>
<path d="M31.2858 74.233C31.6057 74.2198 31.9233 74.281 32.241 74.3312L32.3716 74.353C31.7036 74.5189 31.1291 74.8879 30.6983 75.4248C30.8615 75.0166 30.9399 74.5298 31.2858 74.233Z" fill="#2A3E55"/>
<path d="M45.9999 74.5757C46.372 74.497 46.744 74.425 47.1183 74.353C47.4251 75.6322 47.4751 76.9594 47.8102 78.2342C48.3259 78.1557 48.8393 78.0684 49.355 77.9811C49.4159 78.2256 49.479 78.4722 49.54 78.7189C48.6065 78.9088 47.6687 79.09 46.7179 79.1686C46.459 77.6405 46.2196 76.1103 45.9999 74.5757ZM39.3462 74.545C40.025 76.1365 40.4994 77.8195 40.9345 79.4939C40.5494 79.4698 40.1665 79.4371 39.7857 79.3957C39.6595 79.0464 39.5333 78.6971 39.4115 78.3478C39.0416 78.2801 38.6717 78.2212 38.2996 78.171C38.1212 78.5225 37.9384 78.8739 37.7557 79.2254C37.5881 79.221 37.2509 79.2145 37.0811 79.2101C37.6817 77.5881 38.5346 76.0688 39.3462 74.545ZM38.8849 77.0445C38.5172 77.1363 38.6325 77.7824 39.0198 77.6973C39.3766 77.6143 39.233 76.9878 38.8849 77.0445Z" fill="#FFFFF5"/>
<path d="M42.1537 74.5671C42.6368 74.5541 43.1176 74.5518 43.6007 74.5584C43.7573 75.8354 43.7573 77.1234 43.7704 78.407C44.3339 78.4113 44.8996 78.4157 45.4654 78.4266C45.4871 78.7781 45.511 79.1317 45.5372 79.4875L45.2826 79.4766C45.2325 79.2954 45.1346 78.9309 45.0846 78.7497C44.5646 78.7104 44.0445 78.6755 43.5245 78.6428C43.481 77.3635 43.4636 76.0865 43.4092 74.8094C43.0567 74.8138 42.7064 74.8181 42.3583 74.8247C42.3561 75.8332 42.3974 76.8418 42.3996 77.8503L42.2016 77.9529C42.1711 77.5054 42.1559 77.0557 42.1494 76.6082C42.1494 75.9271 42.1494 75.246 42.1537 74.5671Z" fill="#C2B388"/>
<path d="M32.5981 76.4119C32.4458 75.8181 32.6133 75.244 32.9811 74.7703C32.8766 75.3226 32.7569 75.8727 32.5981 76.4119Z" fill="#3E4B53"/>
<path d="M42.3576 74.825C42.7057 74.8185 43.056 74.8141 43.4085 74.8098C43.4629 76.0868 43.4803 77.3638 43.5238 78.6431C44.0439 78.6758 44.5639 78.7107 45.0839 78.75C45.134 78.9312 45.2319 79.2958 45.2819 79.477C44.8032 79.4726 44.3289 79.4879 43.8524 79.5054C43.3846 79.429 42.9124 79.3285 42.4359 79.3699C42.412 78.8635 42.4055 78.3571 42.3989 77.8507C42.3968 76.8422 42.3554 75.8335 42.3576 74.825Z" fill="#FFFFF9"/>
<path d="M47.4825 74.8092C47.8763 74.8594 47.7915 75.3527 47.8655 75.6344C47.9264 76.2761 47.9851 76.9223 48.1113 77.5575C48.6074 77.551 49.1079 77.5488 49.5974 77.6579C49.0687 77.7802 48.5334 77.8719 47.9982 77.9526C47.7262 76.9244 47.5957 75.8657 47.4825 74.8092Z" fill="#293E58"/>
<path d="M34.0713 76.5014C34.3258 76.5691 34.5804 76.6367 34.835 76.7044C34.8741 76.9903 34.9612 77.2786 34.9242 77.5733C34.7066 78.0099 34.1779 77.8789 33.7862 77.9116C33.8189 77.4291 33.9102 76.9555 34.0713 76.5014ZM34.2649 76.7481C34.1844 77.0603 34.1061 77.3723 34.0321 77.6889C34.4934 77.7871 34.7523 77.451 34.8219 77.0406C34.6827 76.9685 34.4042 76.8223 34.2649 76.7481Z" fill="#A0936B"/>
<path d="M34.2651 76.748C34.4044 76.8222 34.6829 76.9685 34.8221 77.0405C34.7525 77.4509 34.4936 77.7871 34.0323 77.6888C34.1063 77.3723 34.1846 77.0602 34.2651 76.748Z" fill="#363A31"/>
<path d="M38.8827 77.0448C39.2308 76.9882 39.3744 77.6146 39.0176 77.6976C38.6303 77.7827 38.515 77.1366 38.8827 77.0448Z" fill="#AB955C"/>
<path d="M32.1988 78.5027C32.4686 78.4154 32.7297 78.5551 32.9691 78.6686C32.8102 78.9699 32.1618 78.876 32.1988 78.5027Z" fill="#464B44"/>
<path d="M33.8419 78.9178C34.4381 78.931 35.0342 78.9222 35.6304 78.9528C35.1626 79.3632 34.2596 79.4265 33.8419 78.9178Z" fill="#3B4544"/>
<path d="M46.4493 79.4288C47.3305 79.2715 48.2226 79.2126 49.1103 79.1123C48.3205 79.4352 47.4284 79.7649 46.5733 79.5925L46.4493 79.4288Z" fill="#2C3F56"/>
<path d="M36.8009 79.3807C37.1425 79.3305 37.4884 79.3174 37.83 79.3524C37.8322 79.8042 36.8553 79.8086 36.8009 79.3807Z" fill="#2F3D49"/>
<path d="M42.4356 79.3694C42.9121 79.328 43.3843 79.4284 43.8521 79.5048C43.4322 79.6401 42.5879 79.9915 42.4356 79.3694Z" fill="#B0A789"/>
</svg>
