<svg width="98" height="97" viewBox="0 0 98 97" fill="none" xmlns="http://www.w3.org/2000/svg">
<g filter="url(#filter0_dd_1_925)">
<ellipse cx="49.2594" cy="46.104" rx="35.926" ry="35.9043" fill="white"/>
</g>
<path d="M40.3135 58.8739C38.7994 58.8739 37.5744 60.1155 37.5744 61.633C37.5744 63.1505 38.7994 64.3922 40.3135 64.3922C41.8277 64.3922 43.0665 63.1505 43.0665 61.633C43.0665 60.1155 41.8277 58.8739 40.3135 58.8739ZM32.0547 36.8007V39.5598H34.8076L39.763 50.0308L37.9047 53.4107C37.6845 53.797 37.5606 54.2523 37.5606 54.7351C37.5606 56.2527 38.7994 57.4943 40.3135 57.4943H56.8313V54.7351H40.8917C40.699 54.7351 40.5475 54.5834 40.5475 54.3902L40.5888 54.2247L41.8277 51.976H52.0824C53.1148 51.976 54.0233 51.4104 54.4913 50.555L59.419 41.6016C59.5292 41.4084 59.5842 41.1739 59.5842 40.9394C59.5842 40.1806 58.9648 39.5598 58.2077 39.5598H37.8497L36.5558 36.8007H32.0547ZM54.0783 58.8739C52.5642 58.8739 51.3391 60.1155 51.3391 61.633C51.3391 63.1505 52.5642 64.3922 54.0783 64.3922C55.5924 64.3922 56.8313 63.1505 56.8313 61.633C56.8313 60.1155 55.5924 58.8739 54.0783 58.8739Z" fill="#333333"/>
<path d="M67.3467 37.4904C67.3467 42.1704 63.5617 45.9623 58.895 45.9623C54.2283 45.9623 50.4433 42.1704 50.4433 37.4904C50.4433 32.8105 54.2283 29.0186 58.895 29.0186C63.5617 29.0186 67.3467 32.8105 67.3467 37.4904Z" fill="#40B756" stroke="#3DB657" stroke-width="0.990764"/>
<path d="M61.865 33.3394V34.1479L58.5004 41.6619H57.2401L60.5334 34.3738H56.7289V35.86H55.5875V33.3394H61.865Z" fill="white"/>
<defs>
<filter id="filter0_dd_1_925" x="0.948828" y="0.29207" width="96.6211" height="96.5777" filterUnits="userSpaceOnUse" color-interpolation-filters="sRGB">
<feFlood flood-opacity="0" result="BackgroundImageFix"/>
<feColorMatrix in="SourceAlpha" type="matrix" values="0 0 0 0 0 0 0 0 0 0 0 0 0 0 0 0 0 0 127 0" result="hardAlpha"/>
<feOffset dy="2.47691"/>
<feGaussianBlur stdDeviation="6.19227"/>
<feColorMatrix type="matrix" values="0 0 0 0 0 0 0 0 0 0 0 0 0 0 0 0 0 0 0.25 0"/>
<feBlend mode="normal" in2="BackgroundImageFix" result="effect1_dropShadow_1_925"/>
<feColorMatrix in="SourceAlpha" type="matrix" values="0 0 0 0 0 0 0 0 0 0 0 0 0 0 0 0 0 0 127 0" result="hardAlpha"/>
<feOffset dy="1.98153"/>
<feGaussianBlur stdDeviation="2.47691"/>
<feColorMatrix type="matrix" values="0 0 0 0 0.2 0 0 0 0 0.2 0 0 0 0 0.2 0 0 0 0.1 0"/>
<feBlend mode="normal" in2="effect1_dropShadow_1_925" result="effect2_dropShadow_1_925"/>
<feBlend mode="normal" in="SourceGraphic" in2="effect2_dropShadow_1_925" result="shape"/>
</filter>
</defs>
</svg>
