<svg width="98" height="97" viewBox="0 0 98 97" fill="none" xmlns="http://www.w3.org/2000/svg">
<g filter="url(#filter0_dd_1_917)">
<ellipse cx="48.7052" cy="45.9574" rx="35.926" ry="35.9043" fill="white"/>
</g>
<path d="M47.5212 66.8688C49.584 66.8688 51.2718 65.1935 51.2718 63.1459H43.7707C43.7707 65.1935 45.4397 66.8688 47.5212 66.8688ZM58.7728 55.6999V46.3925C58.7728 40.6778 55.6974 35.8938 50.3341 34.628V33.3622C50.3341 31.8171 49.0777 30.5699 47.5212 30.5699C45.9648 30.5699 44.7084 31.8171 44.7084 33.3622V34.628C39.3264 35.8938 36.2697 40.6592 36.2697 46.3925V55.6999L32.5192 59.4229V61.2844H62.5233V59.4229L58.7728 55.6999Z" fill="#333333"/>
<path d="M67.5818 37.3441C67.5818 42.024 63.7968 45.8159 59.1301 45.8159C54.4634 45.8159 50.6784 42.024 50.6784 37.3441C50.6784 32.6641 54.4634 28.8722 59.1301 28.8722C63.7968 28.8722 67.5818 32.6641 67.5818 37.3441Z" fill="#00ADEE" stroke="#00ADEE" stroke-width="0.990764"/>
<path d="M62.1002 33.1931V34.0016L58.7356 41.5155H57.4754L60.7687 34.2274H56.9641V35.7136H55.8228V33.1931H62.1002Z" fill="white"/>
<defs>
<filter id="filter0_dd_1_917" x="0.394629" y="0.145463" width="96.6211" height="96.5778" filterUnits="userSpaceOnUse" color-interpolation-filters="sRGB">
<feFlood flood-opacity="0" result="BackgroundImageFix"/>
<feColorMatrix in="SourceAlpha" type="matrix" values="0 0 0 0 0 0 0 0 0 0 0 0 0 0 0 0 0 0 127 0" result="hardAlpha"/>
<feOffset dy="2.47691"/>
<feGaussianBlur stdDeviation="6.19227"/>
<feColorMatrix type="matrix" values="0 0 0 0 0 0 0 0 0 0 0 0 0 0 0 0 0 0 0.25 0"/>
<feBlend mode="normal" in2="BackgroundImageFix" result="effect1_dropShadow_1_917"/>
<feColorMatrix in="SourceAlpha" type="matrix" values="0 0 0 0 0 0 0 0 0 0 0 0 0 0 0 0 0 0 127 0" result="hardAlpha"/>
<feOffset dy="1.98153"/>
<feGaussianBlur stdDeviation="2.47691"/>
<feColorMatrix type="matrix" values="0 0 0 0 0.2 0 0 0 0 0.2 0 0 0 0 0.2 0 0 0 0.1 0"/>
<feBlend mode="normal" in2="effect1_dropShadow_1_917" result="effect2_dropShadow_1_917"/>
<feBlend mode="normal" in="SourceGraphic" in2="effect2_dropShadow_1_917" result="shape"/>
</filter>
</defs>
</svg>
