<svg width="25" height="25" viewBox="0 0 25 25" fill="none" xmlns="http://www.w3.org/2000/svg">
<g clip-path="url(#clip0_1_627)">
<path fill-rule="evenodd" clip-rule="evenodd" d="M0.488724 15.452C0.488724 10.4485 4.54489 6.39229 9.54844 6.39229C14.552 6.39229 18.6082 10.4485 18.6082 15.452C18.6082 20.4556 14.552 24.5117 9.54844 24.5117C4.54489 24.5117 0.488724 20.4556 0.488724 15.452Z" fill="#00ADEE"/>
<path fill-rule="evenodd" clip-rule="evenodd" d="M12.9483 23.8513L9.55645 21.7761V18.6332L12.3883 16.5757L15.693 17.3175L16.3514 21.433L12.9483 23.8513Z" fill="white"/>
<path fill-rule="evenodd" clip-rule="evenodd" d="M18.5498 14.4356L15.6928 17.3176L12.3881 16.5759L11.3065 13.2466L13.3488 10.1037L17.3669 10.875L18.5498 14.4356Z" fill="white"/>
<path fill-rule="evenodd" clip-rule="evenodd" d="M6.47031 23.9758L9.53867 21.7767V18.6337L6.70663 16.5763L3.40196 17.318L2.90281 21.61L6.47031 23.9758Z" fill="white"/>
<path fill-rule="evenodd" clip-rule="evenodd" d="M0.550804 14.3893L3.40248 17.3176L6.70715 16.5759L7.789 13.2466L5.74661 10.1037L1.73889 10.8565L0.550804 14.3893Z" fill="white"/>
<path fill-rule="evenodd" clip-rule="evenodd" d="M7.78854 6.56391L5.74654 10.1041L7.78893 13.2471H11.3072L13.3496 10.1041L11.3072 6.56391H7.78854Z" fill="white"/>
<path d="M1.29092 10.6634C0.649666 11.7653 0.22261 13.0062 0.0669708 14.3291C0.0663986 14.3333 0.0660172 14.3375 0.0654449 14.3417C0.0231018 14.706 0.000595093 15.0764 0.000595093 15.452C0.000595093 17.9319 0.951218 20.1939 2.50685 21.8931C2.53165 21.9278 2.56083 21.9595 2.59402 21.9868C3.60453 23.0616 4.86033 23.9033 6.27158 24.4205C6.29694 24.432 6.32327 24.4415 6.35016 24.4484C7.35056 24.8051 8.42707 25 9.54859 25C10.7994 25 11.9948 24.7578 13.0905 24.3185C13.1203 24.3095 13.1489 24.2977 13.1766 24.2832C14.5239 23.7278 15.7171 22.8725 16.6731 21.8012C16.7044 21.7735 16.7322 21.7424 16.7557 21.7081C18.2131 20.0312 19.0966 17.8429 19.0966 15.452C19.0966 15.0936 19.076 14.7398 19.0373 14.3915C19.0369 14.3871 19.0363 14.3829 19.0357 14.3787C18.9648 13.7466 18.8318 13.1332 18.6432 12.5444L23.7723 7.41539C23.963 7.22466 23.963 6.91547 23.7723 6.72474C23.6769 6.62937 23.552 6.58169 23.427 6.58169C23.3021 6.58169 23.1772 6.62937 23.0818 6.72474L18.2604 11.5459C18.1261 11.2478 17.977 10.9575 17.8139 10.6766C17.799 10.643 17.7801 10.6115 17.7582 10.5824C16.5478 8.54969 14.6046 7.00245 12.2956 6.30741L15.7353 2.86789C15.9258 2.67715 15.9258 2.36797 15.7353 2.17724C15.6399 2.08187 15.5148 2.03419 15.3898 2.03419C15.2649 2.03419 15.14 2.08187 15.0446 2.17724L11.1782 6.04382C10.6484 5.95226 10.104 5.90401 9.54859 5.90401C6.07054 5.90401 3.02126 7.77378 1.35195 10.5606C1.32754 10.5923 1.30694 10.6266 1.29092 10.6634ZM5.51569 10.6441L7.25291 13.3175L6.32918 16.1604L4.13363 16.6534L3.56238 16.7816L1.06623 14.2183C1.21786 13.1708 1.55966 12.184 2.05557 11.294L5.51569 10.6441ZM11.8441 13.3175L13.5805 10.6455L17.0513 11.3115C17.5486 12.2089 17.8892 13.2046 18.0369 14.2612L15.5375 16.7824L12.7678 16.1604L12.1523 14.2658L11.8441 13.3175ZM16.6558 20.2385L16.2153 17.4856L18.1185 15.5659C18.0958 17.2937 17.56 18.9001 16.6558 20.2385ZM10.953 13.735L11.8155 16.3895L9.55756 18.0298L7.29964 16.3893L8.16214 13.735H10.953ZM0.978111 15.5275L2.89118 17.4921L2.55301 20.3997C1.57454 19.0201 0.993942 17.3401 0.978111 15.5275ZM3.4157 21.4336L3.84791 17.7183L4.89848 17.4826L6.59926 17.1007L9.05135 18.8822V21.5256L6.40128 23.4249C5.26812 22.9759 4.25322 22.2919 3.4157 21.4336ZM7.56609 23.7915L9.56919 22.3558L11.8023 23.7221C11.0838 23.9182 10.3283 24.0234 9.54859 24.0234C8.86633 24.0234 8.20258 23.9429 7.56609 23.7915ZM12.9874 23.3025L10.0458 21.5027V18.8822L11.7754 17.6256L12.4977 17.1007L15.2642 17.7217L15.8325 21.2746C15.0381 22.1313 14.0713 22.8258 12.9874 23.3025ZM16.2962 10.1723L13.6616 9.66644L12.3198 7.34062C13.905 7.88364 15.2821 8.87909 16.2962 10.1723ZM10.998 7.00378L12.7777 10.0887L11.0428 12.7584H8.05437L6.31945 10.0887L8.09882 7.00397C8.57031 6.92329 9.05459 6.88076 9.54859 6.88076C10.0426 6.88057 10.5267 6.9231 10.998 7.00378ZM6.77721 7.34062L5.43616 9.66549L2.81165 10.1585C3.82464 8.87203 5.19755 7.88174 6.77721 7.34062Z" fill="#334382"/>
<path d="M18.2753 7.41569L24.8569 0.833807C25.0477 0.643072 25.0477 0.333891 24.8569 0.143156C24.7616 0.0479794 24.6367 0.000295639 24.5117 0.000295639C24.3868 0.000295639 24.2619 0.0479794 24.1665 0.143347L17.5846 6.72503C17.3941 6.91577 17.3941 7.22495 17.5846 7.41569C17.7753 7.60623 18.0845 7.60623 18.2753 7.41569Z" fill="#334382"/>
<path d="M16.8875 1.51318C17.0159 1.51318 17.1418 1.46092 17.2326 1.37013C17.3234 1.27934 17.3758 1.15346 17.3758 1.02452C17.3758 0.896156 17.3236 0.770653 17.2326 0.679672C17.1418 0.58831 17.0159 0.53624 16.8875 0.53624C16.759 0.53624 16.6331 0.58831 16.5423 0.679672C16.4515 0.770462 16.3993 0.896156 16.3993 1.02452C16.3993 1.15346 16.4513 1.27934 16.5423 1.37013C16.6331 1.46092 16.759 1.51318 16.8875 1.51318Z" fill="#334382"/>
</g>
<defs>
<clipPath id="clip0_1_627">
<rect width="25" height="25" fill="white" transform="translate(25 25) rotate(-180)"/>
</clipPath>
</defs>
</svg>
