<svg width="48" height="48" viewBox="0 0 48 48" fill="none" xmlns="http://www.w3.org/2000/svg">
<mask id="mask0_1_545" style="mask-type:alpha" maskUnits="userSpaceOnUse" x="0" y="0" width="48" height="48">
<path d="M24 48C37.2548 48 48 37.2548 48 24C48 10.7452 37.2548 0 24 0C10.7452 0 0 10.7452 0 24C0 37.2548 10.7452 48 24 48Z" fill="white"/>
</mask>
<g mask="url(#mask0_1_545)">
<path d="M24 48C37.2548 48 48 37.2548 48 24C48 10.7452 37.2548 0 24 0C10.7452 0 0 10.7452 0 24C0 37.2548 10.7452 48 24 48Z" fill="#C4C4C4"/>
<path d="M7.25903 33.1363L27.3853 48.1071L76.8864 51.2203L38.9538 16.1107V24.1147L35.415 21.5803L28.8296 16.1107L24.9093 22.5013L19.3978 17.9001L9.70685 17.2856L7.25922 33.1365L7.25903 33.1363Z" fill="#828282"/>
<path d="M22.282 24.5923C22.282 19.5053 19.1554 16.0558 13.1997 16.0558H7.31854V33.1783H13.3238C19.1057 33.1783 22.282 29.6796 22.282 24.5923ZM18.0139 24.6171C18.0139 28.2898 16.1279 29.8779 13.1005 29.8779H11.5619V19.3564H13.1005C16.0037 19.3564 18.0139 21.0189 18.0139 24.6171ZM39.1812 33.1783V16.0558H35.2356V25.6346L28.9326 16.0556H24.8132V33.1781H28.7588V22.9294L35.5086 33.1781H39.1812V33.1783Z" fill="white"/>
</g>
</svg>
