<svg width="110" height="32" viewBox="0 0 110 32" fill="none" xmlns="http://www.w3.org/2000/svg">
<path fill-rule="evenodd" clip-rule="evenodd" d="M39.4145 14.7788C42.1919 14.7788 43.1173 12.9197 43.1173 10.3633C43.1173 5.42524 39.4721 5.83202 39.1834 5.83202H37.8523V14.7788H39.4145ZM39.5885 13.2102V7.45855C41.0349 7.45855 41.3823 9.25984 41.3823 10.3633C41.3823 11.4667 40.9766 13.268 39.5885 13.2102ZM48.3248 5.83202V14.7788H51.9118V13.1523H50.118V11.1184H51.6802V9.43342H50.118V7.51641H51.9118V5.83202H48.3248ZM60.8791 6.18035C60.4164 5.88988 59.8961 5.71512 59.3746 5.71512C57.813 5.71512 57.0034 6.93546 57.0034 8.32938C57.0034 9.66603 57.6395 10.3048 58.6814 11.0021C59.1441 11.3504 59.7226 11.583 59.7226 12.2803C59.7226 12.8612 59.2599 13.268 58.6814 13.268C58.1599 13.268 57.756 13.0939 57.3503 12.8034V14.4884C57.7554 14.7788 58.3915 14.8946 58.8548 14.8946C60.5328 14.8946 61.4006 13.7327 61.4006 12.164C61.4006 9.7239 58.739 9.66604 58.739 8.15522C58.739 7.63213 59.0871 7.28379 59.6074 7.28379C60.1277 7.28379 60.5328 7.57427 60.8797 7.86474V6.18035H60.8791ZM66.7227 14.7788H68.4595V5.83202H66.7227V14.7788ZM76.8477 9.8402V11.4667H77.9465C77.9465 12.1061 77.8319 13.268 76.9059 13.268C75.6324 13.268 75.5748 11.2347 75.5748 10.3048C75.5748 9.49187 75.6894 7.2838 76.9059 7.34225C77.542 7.34225 77.7155 8.0395 77.7731 8.50414L79.5093 7.80688C79.1042 6.58713 78.2358 5.71512 76.8477 5.71512C74.3607 5.71512 73.7233 8.32938 73.7233 10.3633C73.7233 12.3387 74.4753 14.8946 76.8477 14.8946C79.2776 14.8946 79.7403 12.3966 79.7403 10.5375V9.8402H76.8477ZM84.9478 5.83202V14.7788H86.6828V10.3048L86.5681 9.43342L86.6258 9.37556L88.7665 14.7788H90.4444V5.83202H88.7094V9.89865C88.7094 10.3054 88.7094 10.7707 88.8241 11.2353L86.6263 5.83261H84.9478V5.83202ZM95.9411 5.83202V14.7788H99.527V13.1523H97.6761V11.1184H99.2965V9.43342H97.6761V7.51641H99.47V5.83202H95.9411ZM106.586 14.7788V10.6538H106.643L108.148 14.7788H110L108.495 10.7116C109.363 10.247 109.71 9.37556 109.71 8.38724C109.71 6.00559 107.743 5.83143 106.586 5.83143H104.851V14.7783H106.586V14.7788ZM106.586 7.34225H106.818C107.743 7.2838 108.033 7.80688 108.033 8.44628C108.033 9.14294 107.685 9.72448 106.933 9.72448L106.586 9.66662V7.34225ZM37.9681 20.3563V21.0536H38.9518V26.5726H39.762V21.0536H40.6874V20.3563H37.9681ZM45.3163 20.3563V26.5726H47.5728V25.8747H46.1264V23.7257H47.3987V23.029H46.1264V21.0536H47.5728V20.3563H45.3163ZM54.7469 20.4726C54.5152 20.2984 54.3418 20.2984 54.0525 20.2984C52.3745 20.2984 52.2011 22.3312 52.2011 23.5515C52.2011 24.8882 52.4327 26.6889 54.1107 26.6889C54.3424 26.6889 54.5734 26.6298 54.7475 26.5147V25.7596C54.6316 25.8747 54.4582 25.8747 54.2847 25.8747C53.1277 25.8747 53.0695 24.3066 53.0695 23.4936C53.0695 22.7385 53.0695 21.0536 54.2265 21.0536C54.4 21.0536 54.5734 21.1114 54.7475 21.2277V20.4726H54.7469ZM59.5492 20.3563V26.5726H60.4164V23.4936H61.6311V26.5726H62.4419V20.3563H61.6311V22.7964H60.4164V20.3563H59.5492ZM68.2849 21.8093L69.7318 26.5726H70.4838V20.3563H69.6742V22.5644L69.9052 25.0617H69.8476L68.4007 20.3563H67.6487V26.5726H68.4595V24.3066L68.3431 22.2149L68.2849 21.8093ZM77.1369 20.2984C75.5166 20.2984 75.5166 22.3312 75.5166 23.4936C75.5166 24.5971 75.5166 26.6889 77.1369 26.6889C78.7573 26.6889 78.7573 24.5971 78.7573 23.4936C78.7573 22.3312 78.7573 20.2984 77.1369 20.2984ZM77.1369 21.0536C77.7731 21.0536 77.8889 22.157 77.8889 23.4936C77.8889 24.7713 77.7731 25.8747 77.1369 25.8747C76.5008 25.8747 76.385 24.7713 76.385 23.4936C76.385 22.1576 76.5008 21.0536 77.1369 21.0536ZM83.7331 20.3563V26.5726H85.9896V25.8747H84.6015V20.3563H83.7331ZM92.1219 20.2984C90.5027 20.2984 90.5026 22.3312 90.5026 23.4936C90.5026 24.5971 90.5027 26.6889 92.1219 26.6889C93.6846 26.6889 93.7422 24.5971 93.7422 23.4936C93.7422 22.3312 93.6846 20.2984 92.1219 20.2984ZM92.1219 21.0536C92.7592 21.0536 92.8738 22.157 92.8738 23.4936C92.8738 24.7713 92.7592 25.8747 92.1219 25.8747C91.4857 25.8747 91.3699 24.7713 91.3699 23.4936C91.3693 22.1576 91.4857 21.0536 92.1219 21.0536ZM100.222 23.3195V24.0161H100.858V24.3645C100.858 25.8174 100.511 25.8753 100.164 25.8753C99.8163 25.8753 99.4694 25.6433 99.4694 23.4942C99.4694 21.9834 99.527 21.0541 100.164 21.0541C100.685 21.0541 100.8 21.4603 100.858 21.8671L101.669 21.5188C101.437 20.7046 101.032 20.299 100.164 20.299C98.7174 20.299 98.6016 21.7508 98.6016 23.4942C98.6016 25.2365 98.775 26.6895 100.222 26.6895C101.9 26.6895 101.726 24.5977 101.726 23.3779V23.3201H100.222V23.3195ZM106.181 20.3563L107.454 23.8998V26.5726H108.264V23.8998L109.422 20.3563H108.553L107.975 22.4481L107.859 23.261L107.107 20.3563H106.181Z" fill="#333333"/>
<path fill-rule="evenodd" clip-rule="evenodd" d="M7.53538 25.8747C7.30373 25.7005 5.62574 23.3195 5.27885 21.3428C18.5858 33.8344 34.2651 22.97 29.6944 13.6164C29.6362 13.4422 29.5209 13.268 29.3469 13.0354C29.3469 12.6871 29.2317 11.6415 29.1735 11.2926L29.5786 11.6988C35.8266 19.1354 30.504 27.5591 22.5203 29.7672C15.6931 31.3359 10.949 28.8963 7.53538 25.8747Z" fill="#828282"/>
<path fill-rule="evenodd" clip-rule="evenodd" d="M6.78346 11.8157C5.45294 13.3265 5.10547 15.1856 5.10547 15.1856C6.26254 21.112 11.4123 22.3896 11.4123 22.3896C5.91565 18.2067 6.78346 11.8157 6.78346 11.8157Z" fill="#828282"/>
<path fill-rule="evenodd" clip-rule="evenodd" d="M5.62666 5.48312C2.67577 7.28442 1.63452 10.3049 2.09723 12.2803C1.28764 13.7911 1.11361 14.1979 0.47745 16.4054C-1.4316 9.54976 3.48596 5.83205 5.62666 5.48312Z" fill="#828282"/>
<path fill-rule="evenodd" clip-rule="evenodd" d="M27.0333 22.389C25.9921 23.3195 25.3553 23.842 24.0248 24.7713C32.9345 7.45856 14.9987 -3.2317 8.11387 6.35452C7.88222 6.47083 5.97317 7.40011 5.45284 7.80689C10.2546 -5.43977 27.9011 -0.269103 29.5791 11.6994C29.926 15.0693 29.7525 18.0904 27.0333 22.389Z" fill="#C4C4C4"/>
<path fill-rule="evenodd" clip-rule="evenodd" d="M19.6278 5.30896C20.4956 5.65729 21.19 6.29668 21.8843 6.99394C9.27176 4.14706 3.83269 11.6415 3.77508 17.7421C3.71746 24.7713 9.90792 32.3242 18.4125 30.1752C18.4701 30.1752 18.8752 30.0589 19.1069 29.942C20.0323 29.8257 20.7849 29.7678 21.421 29.6515C21.3052 29.7105 21.1894 29.8257 21.1894 29.8257C10.1972 36.3324 -0.448709 27.0951 0.0145902 17.1611C1.05584 8.73678 9.387 2.0553 19.6278 5.30896Z" fill="#C4C4C4"/>
<path fill-rule="evenodd" clip-rule="evenodd" d="M7.53538 25.8747C7.30373 25.7005 5.62574 23.3195 5.27885 21.3428C11.1224 26.804 17.4287 27.7923 22.231 26.3978C22.5785 27.6175 22.9254 28.4305 22.5203 29.7672C15.6931 31.3358 10.949 28.8963 7.53538 25.8747Z" fill="#828282"/>
</svg>
