<svg width="69" height="58" viewBox="0 0 69 58" fill="none" xmlns="http://www.w3.org/2000/svg">
<path fill-rule="evenodd" clip-rule="evenodd" d="M22.9824 13.7554C21.879 12.9882 21.3512 12.7242 20.1754 12.7242C19.1682 12.7242 18.2565 13.2039 17.5849 13.8752C16.9129 14.5466 16.5294 15.4579 16.5294 16.4891C16.5294 17.4963 16.9133 18.4076 17.5849 19.079C18.2565 19.7503 19.1682 20.2543 20.1754 20.2543H32.6504L22.9824 13.7554Z" fill="#CECECE"/>
<path fill-rule="evenodd" clip-rule="evenodd" d="M27.205 7.85596C26.7012 6.60912 26.4131 6.08156 25.4535 5.43381C24.6141 4.85832 23.5821 4.7385 22.6468 4.93021C21.7112 5.09795 20.8954 5.64985 20.3196 6.48894C19.7439 7.32803 19.5518 8.31126 19.72 9.24658C19.9117 10.1819 20.3676 11.0689 21.2313 11.6444L32.0987 19.0546L27.205 7.85596Z" fill="#4E5353"/>
<path fill-rule="evenodd" clip-rule="evenodd" d="M33.9454 5.09835C34.1612 3.80359 34.2095 3.20414 33.7297 2.12504C33.3218 1.18973 32.5063 0.566315 31.6182 0.230459C30.7309 -0.105398 29.7472 -0.0814341 28.7876 0.350276C27.8519 0.758023 27.1803 1.47729 26.8443 2.36431C26.5087 3.25169 26.4368 4.28286 26.8683 5.21817L32.1939 17.4484L33.9454 5.09835Z" fill="#333939"/>
<path fill-rule="evenodd" clip-rule="evenodd" d="M45.8445 13.7554C46.948 12.9882 47.4762 12.7242 48.6508 12.7242C49.6831 12.7242 50.5705 13.2039 51.2417 13.8752C51.9137 14.5466 52.2976 15.4579 52.2976 16.4891C52.2976 17.4963 51.9373 18.4076 51.2661 19.079C50.5701 19.7503 49.6828 20.2543 48.6505 20.2543H36.2005L45.8445 13.7554Z" fill="#ADACAC"/>
<path fill-rule="evenodd" clip-rule="evenodd" d="M41.6467 7.85596C42.1265 6.60912 42.4146 6.08156 43.3742 5.43381C44.238 4.85832 45.2448 4.7385 46.1805 4.93021C47.1162 5.09795 47.9559 5.64985 48.5317 6.48894C49.1074 7.32803 49.2995 8.31126 49.1074 9.24658C48.9396 10.1819 48.4597 11.0689 47.62 11.6444L36.753 19.0546L41.6467 7.85596Z" fill="#8E8F8F"/>
<path fill-rule="evenodd" clip-rule="evenodd" d="M41.9822 2.36431C41.6465 1.47729 40.9746 0.758023 40.0393 0.350276C39.1036 -0.0814341 38.1196 -0.105398 37.2322 0.230459C36.3449 0.566315 35.5287 1.18973 35.0972 2.12504C34.7616 2.89261 34.6893 3.41981 34.7616 4.13908V4.187L35.7684 4.21097C36.3445 4.23493 36.6322 4.37908 35.9126 4.69061C35.6489 4.88268 34.9051 5.0025 35.0736 6.32159L36.6569 17.4484L41.9822 5.21817C42.3897 4.28286 42.3178 3.25206 41.9822 2.36431Z" fill="#4E5353"/>
<path fill-rule="evenodd" clip-rule="evenodd" d="M42.9176 34.4749C42.9176 38.2637 39.8229 38.5273 38.6711 38.5273C37.8796 38.5273 30.3706 38.6231 30.3706 38.6231V22.5802H37.6878C39.9907 22.5802 41.7658 24.4025 41.7658 26.609C41.7658 28.8155 40.6147 30.1342 39.7266 30.1342C39.7266 30.1342 42.9176 30.6614 42.9176 34.4749Z" fill="black"/>
<path fill-rule="evenodd" clip-rule="evenodd" d="M34.5931 25.506V28.4793H36.7285C38.2399 28.4793 38.3118 25.506 36.7285 25.506H34.5931ZM34.5931 31.8611V35.2901H37.6398C39.391 35.2901 39.4868 31.8611 37.6398 31.8611H34.5931Z" fill="white"/>
<path fill-rule="evenodd" clip-rule="evenodd" d="M16.985 36.7529C15.9535 35.9371 14.7301 35.5057 12.5708 35.8176V38.6228H16.9371C16.6734 38.4551 16.5771 38.2154 16.5292 38.0473C16.4093 37.5916 16.6734 37.1839 16.8892 36.872C16.9128 36.8252 16.9371 36.7769 16.985 36.7529ZM14.0821 32.5556C15.3534 32.5556 16.337 32.7717 17.0809 33.1072V28.7672L24.7817 38.6475L24.8057 38.6232H29.3159V22.5323H24.7817V32.4126L17.0809 22.5323H12.5708V32.6279C13.0732 32.5812 13.5775 32.5571 14.0821 32.5556ZM55.681 38.3356V37.4722H55.6567C55.417 37.856 55.1533 38.2873 54.8888 38.7194C55.1573 38.6008 55.4216 38.4728 55.681 38.3356ZM50.9787 39.3185C51.1948 38.983 51.4345 38.6228 51.6507 38.2637C50.7869 38.4554 50.2591 38.5756 50.0191 38.6475C49.3954 38.8392 49.0115 38.5273 48.8916 38.4079C48.6036 38.1199 48.5313 37.7122 48.6755 37.2801C48.8433 36.8005 49.3231 36.2489 50.1629 36.1048C51.0978 35.9614 52.1537 35.7453 53.449 35.4338C53.5449 35.2897 53.6411 35.1459 53.737 34.9781C53.2572 35.1702 52.7538 35.2417 52.2256 35.2417C51.6332 35.2425 51.0463 35.1264 50.4988 34.9C49.9513 34.6737 49.4538 34.3417 49.0348 33.9229C48.6159 33.5041 48.2837 33.0068 48.0573 32.4595C47.8309 31.9122 47.7147 31.3256 47.7155 30.7333C47.7155 28.2876 49.7303 26.2732 52.2256 26.2732C53.6164 26.2732 54.8405 26.8966 55.6803 27.8798V23.3474C54.4802 22.7 53.113 22.3402 51.6499 22.3402C46.9476 22.3402 43.1334 26.1533 43.1334 30.8288C43.1341 35.3136 46.588 38.983 50.9787 39.3185Z" fill="black"/>
<path fill-rule="evenodd" clip-rule="evenodd" d="M68.7791 34.0189C68.5147 33.7553 68.251 33.2277 66.74 33.491C65.4687 33.707 58.871 34.9542 56.0164 35.5533C56.1606 35.2661 56.3037 35.0018 56.376 34.8101C57.0963 33.2274 56.0404 32.7717 55.225 33.9231C55.0088 34.2585 54.4807 35.0501 53.8571 36.0329C52.2981 36.3931 51.2186 36.6088 50.2829 36.753C49.1319 36.9447 48.9393 38.2638 49.8271 37.9994C50.2593 37.88 51.507 37.6156 53.042 37.3045C51.6748 39.4627 50.0915 41.9807 49.5634 42.8677C48.676 44.3785 46.3731 45.8889 45.1255 46.5127C43.9017 47.1125 43.5422 46.6804 44.334 45.3621C45.1255 44.019 45.8454 42.6999 46.3731 41.9807C46.9006 41.285 46.3731 41.0214 45.845 41.1895C45.845 41.1895 46.4687 38.9834 45.1255 38.9834C43.8059 38.9834 43.2777 39.9427 42.7507 40.5661C42.2465 41.1659 40.5437 43.0122 38.7926 43.2035C39.1765 41.5014 38.0484 41.1895 38.0484 41.1895C38.0484 41.1895 38.9357 39.3425 36.2736 39.4147C35.3855 39.4391 33.5385 40.0382 32.2912 41.4771C31.9313 41.5254 31.3316 41.6931 30.6356 42.2446C29.3883 43.2282 27.445 44.6432 26.3895 45.1704C26.3895 45.1704 27.6368 43.4918 27.6368 41.9814C27.6368 40.4946 26.8214 40.4463 25.5977 40.4463C24.5661 40.4463 22.791 41.6459 21.0875 43.4199C21.1834 43.0126 21.6632 40.4942 20.3676 40.5665C19.6237 40.6147 19.2881 41.2621 19.1442 42.005C18.4247 42.1009 16.1698 42.4846 12.8829 44.0434C11.7555 43.2039 9.71632 42.9163 7.34118 42.7003C3.71872 42.3401 2.20733 42.1724 2.20733 40.9255C2.20733 39.6791 5.66198 37.0409 9.38033 35.8903C13.6025 34.5712 15.7615 34.8108 17.6089 36.4175C18.1366 36.8495 16.6492 37.7366 17.3452 38.0967C18.0647 38.4562 18.9521 38.0967 18.8566 36.6818C18.7607 35.2668 17.9688 33.2285 14.0827 33.2285C10.1722 33.2285 3.98279 35.0025 0.792205 40.3029C0.000368696 41.6212 1.67993 43.3963 4.77425 43.6596C6.83738 43.8517 9.52417 44.2351 10.9157 45.0745C10.8438 45.0981 10.7715 45.1464 10.7235 45.1704C5.39791 48.1924 0 50.5666 0 53.2276C0 54.4748 0.695946 54.8346 2.7351 54.8346C4.77425 54.8346 13.8186 50.6621 13.8186 45.9615C13.8186 45.4583 13.6984 45.0262 13.4586 44.6668C15.354 43.8273 17.2489 43.156 18.9524 42.868L19.0244 42.7003C18.9764 43.1799 18.9764 43.612 18.9524 43.9228C18.9045 44.3309 18.6648 45.4579 18.3528 46.7527C16.3136 49.3909 13.8426 52.8682 13.6268 54.7388C13.3631 57.2085 13.7227 58 14.7786 58C15.7383 58 16.7455 57.6645 19.7926 47.7839C20.0083 48.4073 20.656 48.9352 21.6875 48.7911C23.103 48.6233 25.7659 47.8318 28.2369 45.6257C30.2281 43.8517 30.7798 43.3956 31.3076 43.3956C31.2344 43.6623 31.1863 43.9351 31.1638 44.2107C30.8997 47.664 32.3152 47.9995 33.2988 48.0954C34.2345 48.192 37.2809 47.2567 38.5285 44.043C39.1046 44.1632 40.4722 44.2107 42.2952 42.4367C44.7906 40.0382 44.5261 41.0218 44.1666 41.6208C43.8062 42.2443 41.7671 44.8106 42.4866 46.585C43.1826 48.3597 44.3344 48.6233 46.6372 46.9451C48.9401 45.2659 49.8274 44.4747 49.8274 44.4747C49.8274 44.4747 49.6596 46.9451 52.131 46.9451C53.6424 46.9451 55.3212 45.6261 57.1929 43.7554C59.0399 41.9091 60.2876 40.1344 61.0791 40.1344C61.0791 40.1344 62.2302 42.6048 60.8154 44.1156C59.6396 45.3381 59.2557 45.6747 58.6084 45.3628C57.5286 44.8113 55.9453 45.6264 56.9049 46.3221C57.8882 47.0414 58.5118 47.9284 60.4554 46.5857C62.3991 45.2666 64.7019 43.3245 66.6445 41.5497C68.4199 39.9434 67.0048 39.7757 65.9492 41.0225C65.1578 41.9335 62.7583 43.4922 62.7583 43.4922C62.7583 43.4922 63.4778 40.5665 61.8709 38.6239C61.8709 38.6239 61.175 36.7541 60.1917 38.7205C60.1917 38.7205 57.1929 42.2454 56.0411 43.3967C53.5458 45.8904 49.4442 46.658 50.9792 43.7562C51.5549 42.6531 53.7862 39.2477 55.2257 36.8739C56.3532 36.6578 57.505 36.4182 58.5118 36.2265C61.7028 35.6031 67.4606 34.8115 68.348 34.8115C69.2354 34.8115 69.0428 34.2825 68.7791 34.0189Z" fill="#333939"/>
<path fill-rule="evenodd" clip-rule="evenodd" d="M11.7792 46.6804C10.9873 49.4145 5.6617 53.2272 3.62255 53.4916C1.58339 53.7552 1.15151 52.6038 3.8147 50.4939C5.32608 49.2707 8.30091 47.2567 11.5634 45.6017C11.8028 45.9136 11.899 46.2727 11.7792 46.6804ZM16.7448 52.0766C15.8571 54.2827 15.1376 55.6977 14.5139 55.5299C13.9142 55.3615 14.7536 52.2919 17.5367 49.6541C17.2726 50.5894 16.9849 51.4529 16.7448 52.0766ZM25.8611 43.2279C25.4052 44.9064 23.5579 46.777 22.5027 46.5127C21.7109 46.2974 20.7036 46.2974 20.1515 46.6329C20.1515 46.6093 20.1515 46.5846 20.1751 46.561C21.2546 44.93 21.9746 43.4675 23.3657 42.6999C25.597 41.4527 26.2926 41.5486 25.8611 43.2279ZM35.4812 46.4168C34.2574 46.9448 32.77 47.3761 32.77 46.2251C32.77 45.0738 32.77 43.2275 34.5931 41.9803L34.953 41.3569C34.953 41.3569 36.2007 41.8125 37.0881 41.6205C37.0881 41.6205 37.2559 42.6999 37.6162 43.1313C37.6162 43.1313 36.7288 45.8889 35.4812 46.4168Z" fill="white"/>
</svg>
