<svg width="80" height="72" viewBox="0 0 80 72" fill="none" xmlns="http://www.w3.org/2000/svg">
<path d="M77.2497 22.2011H76.4861L69.3266 2.92532C68.6997 1.23767 67.0691 0.10376 65.2688 0.10376H14.7311C12.9309 0.10376 11.3002 1.23767 10.6733 2.92532L3.51391 22.2011H2.75031C1.23375 22.2011 0 23.4349 0 24.9514V27.1611C0 28.6777 1.23375 29.9114 2.75031 29.9114H3.15688V55.5974C3.15688 56.2445 3.68141 56.7692 4.32875 56.7692C4.97609 56.7692 5.50062 56.2445 5.50062 55.5974V29.9114H23.9006C24.9303 29.9114 25.8984 29.5105 26.6267 28.7822L40 15.4086L53.3736 28.7822C54.1017 29.5103 55.0698 29.9113 56.0995 29.9113H74.4995V33.0181C74.4995 33.6653 75.0241 34.19 75.6714 34.19C76.3187 34.19 76.8433 33.6653 76.8433 33.0181V29.9113H77.2498C78.7662 29.9113 80.0002 28.6775 80.0002 27.1609V24.9513C80 23.4349 78.7663 22.2011 77.2497 22.2011V22.2011ZM12.8703 3.74126C13.1578 2.96735 13.9056 2.44751 14.7311 2.44751H65.2688C66.0942 2.44751 66.842 2.96751 67.1295 3.74126L73.9859 22.2011H57.6964L42.7259 7.23079C41.9978 6.50267 41.0298 6.10157 40 6.10157C38.9702 6.10157 38.0022 6.50251 37.2741 7.23079L22.3036 22.2011H6.01391L12.8703 3.74126ZM77.6562 27.1611C77.6562 27.3853 77.4739 27.5677 77.2497 27.5677H56.0995C55.6958 27.5677 55.3161 27.4105 55.0308 27.125L40.8286 12.9228C40.6088 12.703 40.3108 12.5795 39.9998 12.5795C39.6889 12.5795 39.3911 12.703 39.1711 12.9228L24.9691 27.125C24.6836 27.4105 24.3039 27.5677 23.9002 27.5677H2.75031C2.52609 27.5677 2.34375 27.3853 2.34375 27.1611V24.9514C2.34375 24.7272 2.52609 24.5449 2.75031 24.5449H22.7891C23.0998 24.5449 23.3978 24.4214 23.6178 24.2016L38.9316 8.88798C39.2169 8.60251 39.5964 8.44532 40.0002 8.44532C40.4039 8.44532 40.7834 8.60251 41.0687 8.88798L56.3825 24.2016C56.6023 24.4214 56.9003 24.5449 57.2113 24.5449H77.25C77.4742 24.5449 77.6566 24.7272 77.6566 24.9514V27.1611H77.6562Z" fill="#2B7AF1"/>
<path d="M70.4627 62.426C71.1101 62.426 71.6346 61.9013 71.6346 61.2541V40.4196C71.6346 39.7724 71.1101 39.2477 70.4627 39.2477H54.6788C54.0315 39.2477 53.507 39.7724 53.507 40.4196V61.2541C53.507 61.9013 54.0315 62.426 54.6788 62.426H70.4627ZM69.2909 55.0314H63.7426V49.4833H69.2909V55.0314ZM61.3988 55.0314H55.8507V49.4833H61.3988V55.0314ZM69.2909 60.0822H55.8507V57.3752H69.2909V60.0822ZM69.2909 47.1394H63.7426V41.5913H69.2909V47.1394ZM61.3988 41.5914V47.1396H55.8507V41.5914H61.3988Z" fill="#2B7AF1"/>
<path d="M25.3211 62.426C25.9685 62.426 26.493 61.9013 26.493 61.2541V40.4196C26.493 39.7724 25.9685 39.2477 25.3211 39.2477H9.53723C8.88989 39.2477 8.36536 39.7724 8.36536 40.4196V61.2541C8.36536 61.9013 8.88989 62.426 9.53723 62.426H25.3211ZM24.1493 55.0314H18.6011V49.4833H24.1493V55.0314ZM16.2574 55.0314H10.7091V49.4833H16.2574V55.0314ZM24.1493 60.0822H10.7091V57.3752H24.1493V60.0822ZM24.1493 47.1394H18.6011V41.5913H24.1493V47.1394ZM16.2574 41.5914V47.1396H10.7091V41.5914H16.2574Z" fill="#2B7AF1"/>
<path d="M43.7882 44.2985H36.2119C35.5646 44.2985 35.04 44.8231 35.04 45.4703V50.5211C35.04 51.1683 35.5646 51.693 36.2119 51.693H43.7882C44.4355 51.693 44.96 51.1683 44.96 50.5211V45.4703C44.96 44.8231 44.4355 44.2985 43.7882 44.2985ZM42.6163 49.3492H37.3838V46.6422H42.6163V49.3492Z" fill="url(#paint0_linear_65_363)"/>
<path d="M46.2226 29.5287C46.2226 26.0976 43.4312 23.306 39.9999 23.306C36.5687 23.306 33.7773 26.0976 33.7773 29.5287C33.7773 32.9598 36.5687 35.7515 39.9999 35.7515C43.4312 35.7515 46.2226 32.9599 46.2226 29.5287V29.5287ZM36.121 29.5287C36.121 27.3899 37.8612 25.6498 39.9999 25.6498C42.1387 25.6498 43.8788 27.3899 43.8788 29.5287C43.8788 31.6674 42.1387 33.4077 39.9999 33.4077C37.8612 33.4077 36.121 31.6676 36.121 29.5287V29.5287Z" fill="url(#paint1_linear_65_363)"/>
<path d="M78.8281 64.1858H76.8433V38.4999C76.8433 37.8527 76.3187 37.328 75.6714 37.328C75.0241 37.328 74.4995 37.8527 74.4995 38.4999V64.1858H50.0108V40.4194C50.0108 39.7722 49.4863 39.2475 48.8389 39.2475H31.1611C30.5137 39.2475 29.9892 39.7722 29.9892 40.4194V64.1858H5.50047V61.0789C5.50047 60.4318 4.97594 59.9071 4.32859 59.9071C3.68125 59.9071 3.15672 60.4318 3.15672 61.0789V64.1858H1.17188C0.524531 64.1858 0 64.7105 0 65.3577V70.7243C0 71.3714 0.524531 71.8961 1.17188 71.8961H78.8281C79.4755 71.8961 80 71.3714 80 70.7243V65.3577C80 64.7105 79.4755 64.1858 78.8281 64.1858ZM32.333 55.6388H34.0023C34.6497 55.6388 35.1742 55.1141 35.1742 54.4669C35.1742 53.8197 34.6497 53.295 34.0023 53.295H32.333V41.5913H47.6672V64.1858H32.333V55.6388ZM77.6562 69.5524H2.34375V66.5296H77.6562V69.5524Z" fill="#2B7AF1"/>
<defs>
<linearGradient id="paint0_linear_65_363" x1="35.04" y1="47.9957" x2="44.9618" y2="47.942" gradientUnits="userSpaceOnUse">
<stop stop-color="#FF7A00"/>
<stop offset="1" stop-color="#FFB039"/>
</linearGradient>
<linearGradient id="paint1_linear_65_363" x1="33.7773" y1="29.5288" x2="46.2249" y2="29.4785" gradientUnits="userSpaceOnUse">
<stop stop-color="#FF7A00"/>
<stop offset="1" stop-color="#FFB039"/>
</linearGradient>
</defs>
</svg>
