<svg width="40" height="40" viewBox="0 0 40 40" fill="none" xmlns="http://www.w3.org/2000/svg">
<circle cx="20" cy="20" r="20" fill="#2B7AF1"/>
<path d="M28.9999 13.8189C28.9999 12.3215 27.6787 11.0003 26.1813 11.0003H14.8186C13.3212 11.0003 11.9999 12.3215 11.9999 13.8189V25.1816C11.9999 26.679 13.3212 28.0003 14.8186 28.0003H20.544V21.5702H18.43V18.7516H20.544V17.6065C20.544 15.6687 21.9533 13.9951 23.715 13.9951H26.0051V16.8137H23.715C23.4507 16.8137 23.1865 17.078 23.1865 17.6065V18.7516H26.0051V21.5702H23.1865V28.0003H26.1813C27.6787 28.0003 28.9999 26.679 28.9999 25.1816V13.8189Z" fill="white"/>
</svg>
