<svg width="40" height="40" viewBox="0 0 40 40" fill="none" xmlns="http://www.w3.org/2000/svg">
<circle cx="20" cy="20" r="20" fill="#2B7AF1"/>
<path d="M26.5807 12.0002H14.4192C13.0461 12.0002 11.9999 13.0464 11.9999 14.4194V26.581C11.9999 27.9541 13.0461 29.0002 14.4192 29.0002H26.5807C27.9538 29.0002 28.9999 27.9541 28.9999 26.581V14.4194C28.9999 13.0464 27.9538 12.0002 26.5807 12.0002ZM20.4999 25.6002C23.3115 25.6002 25.5999 23.3771 25.5999 20.6964C25.5999 20.2387 25.5346 19.7156 25.4038 19.3233H26.8422V26.2541C26.8422 26.581 26.5807 26.9079 26.1884 26.9079H14.8115C14.4846 26.9079 14.1576 26.6464 14.1576 26.2541V19.2579H15.6615C15.5307 19.7156 15.4653 20.1733 15.4653 20.631C15.3999 23.3771 17.6884 25.6002 20.4999 25.6002ZM20.4999 23.6387C18.6692 23.6387 17.2307 22.2002 17.2307 20.4348C17.2307 18.6694 18.6692 17.231 20.4999 17.231C22.3307 17.231 23.7692 18.6694 23.7692 20.4348C23.7692 22.2656 22.3307 23.6387 20.4999 23.6387ZM26.7769 16.6425C26.7769 17.0348 26.4499 17.3618 26.0576 17.3618H24.2269C23.8346 17.3618 23.5076 17.0348 23.5076 16.6425V14.8771C23.5076 14.4848 23.8346 14.1579 24.2269 14.1579H26.0576C26.4499 14.1579 26.7769 14.4848 26.7769 14.8771V16.6425Z" fill="white"/>
</svg>
