<svg width="80" height="80" viewBox="0 0 80 80" fill="none" xmlns="http://www.w3.org/2000/svg">
<path d="M56.0517 26.2638C53.7181 26.2638 51.4349 26.596 49.2337 27.2501C49.3209 26.4085 49.3659 25.5546 49.3659 24.6904C49.3659 20.7358 48.4582 16.9572 46.6685 13.4599C46.2751 12.6918 45.3338 12.3879 44.566 12.7808C43.798 13.1741 43.494 14.1152 43.887 14.8833C45.4492 17.9357 46.2412 21.2352 46.2412 24.6902C46.2412 36.5777 36.5701 46.2487 24.6827 46.2487C21.9114 46.2487 19.2124 45.7298 16.661 44.7059C16.0805 44.4735 15.4169 44.609 14.9746 45.0512L11.5603 48.4657V42.5493C11.5603 42.0824 11.3514 41.6399 10.991 41.3431C5.99173 37.2276 3.12438 31.1579 3.12438 24.6902C3.12438 12.8027 12.7955 3.13174 24.6829 3.13174C27.5521 3.13174 30.3377 3.6858 32.9626 4.77862C33.8094 5.13112 34.6427 5.54284 35.4391 6.00237C36.1863 6.43331 37.1416 6.17721 37.5729 5.42987C38.004 4.68268 37.7477 3.72721 37.0004 3.29611C36.0882 2.77002 35.1337 2.29814 34.1635 1.89424C31.1563 0.642203 27.9666 0.00720215 24.683 0.00720215C11.0728 0.00720215 0 11.08 0 24.6902C0 31.846 3.06485 38.576 8.43595 43.2721V52.2371C8.43595 52.869 8.81674 53.4387 9.40033 53.6804C9.59361 53.7604 9.79658 53.7993 9.99783 53.7993C10.4044 53.7993 10.8039 53.6406 11.1028 53.3418L16.4717 47.9729C19.1043 48.9025 21.8613 49.3731 24.683 49.3731C27.2993 49.3731 29.821 48.9625 32.189 48.2048C32.1332 48.8723 32.1035 49.5423 32.1035 50.2118C32.1035 53.869 32.9068 57.38 34.491 60.6476C34.7612 61.2042 35.3179 61.5286 35.8977 61.5286C36.1265 61.5286 36.3587 61.4783 36.5782 61.3717C37.3544 60.9953 37.6787 60.0608 37.3023 59.2843C35.9257 56.4453 35.2277 53.3929 35.2277 50.212C35.2277 49.0946 35.3188 47.9757 35.4962 46.8749C41.9366 43.7229 46.8112 37.8481 48.6099 30.759C50.9817 29.8499 53.4809 29.3882 56.0515 29.3882C67.5339 29.3882 76.8755 38.7298 76.8755 50.212C76.8755 56.5906 74.009 62.5312 69.0115 66.5111C68.6392 66.8073 68.4225 67.2572 68.4225 67.7331V74.6591L64.1432 70.3798C63.7264 69.9631 63.1109 69.8164 62.5514 70.0001C60.4578 70.6873 58.2709 71.0359 56.0515 71.0359C52.8765 71.0359 49.8288 70.3403 46.9937 68.9683C46.2174 68.5926 45.2829 68.9173 44.907 69.6941C44.5312 70.4706 44.8562 71.4048 45.6327 71.7808C48.8957 73.3595 52.4012 74.1602 56.0515 74.1602C58.2765 74.1602 60.4742 73.8552 62.5976 73.2523L68.8801 79.5349C69.179 79.8338 69.5786 79.9924 69.9851 79.9924C70.1864 79.9924 70.3895 79.9534 70.5826 79.8734C71.1662 79.6316 71.547 79.062 71.547 78.4302V68.4708C76.9291 63.9045 79.9998 57.2931 79.9998 50.2118C80.0002 37.007 69.2569 26.2638 56.0517 26.2638Z" fill="#2B7AF1"/>
<path d="M41.5497 65.1562C41.5018 65.1099 41.4543 65.0633 41.4069 65.0163C40.7944 64.409 39.8051 64.4135 39.1977 65.0262C38.5904 65.6388 38.5949 66.628 39.2076 67.2354C39.2627 67.2901 39.318 67.3441 39.3736 67.3982C39.6772 67.6929 40.0696 67.8393 40.4616 67.8393C40.8693 67.8393 41.2766 67.6805 41.5829 67.3652C42.1836 66.746 42.1688 65.7569 41.5497 65.1562Z" fill="url(#paint0_linear_65_310)"/>
<path d="M42.7961 7.92211C42.1178 7.1982 41.133 7.30507 40.5727 7.82695C40.0125 8.34836 39.8357 9.3232 40.5092 10.0515C40.5139 10.0565 40.5188 10.0616 40.5235 10.0666C40.8607 10.4215 41.2708 10.5735 41.6671 10.5735C42.0739 10.5735 42.4655 10.413 42.7477 10.1471C43.3043 9.62179 43.4746 8.64586 42.7961 7.92211Z" fill="url(#paint1_linear_65_310)"/>
<path d="M17.8874 19.2995C17.5968 19.0089 17.1952 18.8417 16.7829 18.8417C16.372 18.8417 15.969 19.0089 15.6784 19.2995C15.3879 19.59 15.2207 19.9929 15.2207 20.4039C15.2207 20.8148 15.3879 21.2178 15.6784 21.5084C15.969 21.799 16.372 21.9661 16.7829 21.9661C17.1938 21.9661 17.5968 21.799 17.8874 21.5084C18.1796 21.2178 18.3451 20.8148 18.3451 20.4039C18.3451 19.9929 18.1795 19.5898 17.8874 19.2995Z" fill="url(#paint2_linear_65_310)"/>
<path d="M33.6876 19.2995C33.3971 19.0089 32.9942 18.8417 32.5831 18.8417C32.1706 18.8417 31.7676 19.0089 31.4771 19.2995C31.1865 19.59 31.0209 19.9929 31.0209 20.4039C31.0209 20.8148 31.1867 21.2178 31.4771 21.5084C31.7692 21.799 32.1721 21.9661 32.5831 21.9661C32.994 21.9661 33.3954 21.799 33.6876 21.5084C33.9782 21.2178 34.1453 20.8148 34.1453 20.4039C34.1453 19.9929 33.9784 19.5898 33.6876 19.2995Z" fill="url(#paint3_linear_65_310)"/>
<path d="M30.6647 28.5279C29.8306 28.3047 28.9748 28.8006 28.7522 29.634C28.2603 31.4758 26.587 32.762 24.6831 32.762C22.7792 32.762 21.1061 31.4758 20.614 29.634C20.3914 28.8004 19.5353 28.3045 18.7015 28.5279C17.8679 28.7508 17.3728 29.6068 17.5954 30.4404C18.4521 33.647 21.3665 35.8864 24.6831 35.8864C27.9995 35.8864 30.914 33.647 31.7708 30.4404C31.9934 29.6067 31.4983 28.7506 30.6647 28.5279Z" fill="#2B7AF1"/>
<path d="M49.5189 44.9289C49.2284 44.6382 48.827 44.4712 48.4145 44.4712C48.0035 44.4712 47.6006 44.6382 47.3099 44.9289C47.0193 45.2196 46.8523 45.6224 46.8523 46.0334C46.8523 46.4459 47.0193 46.8473 47.3099 47.1378C47.6006 47.4284 48.0035 47.5956 48.4145 47.5956C48.827 47.5956 49.2284 47.4284 49.5189 47.1378C49.8111 46.8473 49.9767 46.4443 49.9767 46.0334C49.9767 45.6224 49.8111 45.2195 49.5189 44.9289Z" fill="url(#paint4_linear_65_310)"/>
<path d="M64.7928 44.929C64.5022 44.6383 64.1006 44.4713 63.6883 44.4713C63.2774 44.4713 62.8744 44.6383 62.5838 44.929C62.2933 45.2196 62.1261 45.6226 62.1261 46.0335C62.1261 46.446 62.2933 46.8474 62.5838 47.1379C62.8744 47.4285 63.2774 47.5957 63.6883 47.5957C64.1006 47.5955 64.5022 47.4284 64.7928 47.1379C65.0833 46.8474 65.2505 46.4444 65.2505 46.0335C65.2505 45.6226 65.0835 45.2196 64.7928 44.929Z" fill="url(#paint5_linear_65_310)"/>
<path d="M49.1497 55.7507C49.9836 58.873 52.822 61.054 56.0515 61.054C59.2811 61.054 62.1194 58.8732 62.9536 55.7507C63.1764 54.9171 62.6811 54.061 61.8475 53.8382C61.0133 53.6147 60.1578 54.1108 59.935 54.9443C59.4655 56.7019 57.8683 57.9294 56.0517 57.9294C54.2347 57.9294 52.6376 56.7018 52.1683 54.9443C51.9817 54.2457 51.3503 53.7847 50.66 53.7847C50.5265 53.7847 50.3908 53.8019 50.2558 53.8382C49.422 54.061 48.9268 54.9171 49.1497 55.7507Z" fill="#2B7AF1"/>
<defs>
<linearGradient id="paint0_linear_65_310" x1="38.7451" y1="66.2015" x2="42.0245" y2="66.1883" gradientUnits="userSpaceOnUse">
<stop stop-color="#FF7A00"/>
<stop offset="1" stop-color="#FFB039"/>
</linearGradient>
<linearGradient id="paint1_linear_65_310" x1="40.074" y1="8.99043" x2="43.2392" y2="8.97766" gradientUnits="userSpaceOnUse">
<stop stop-color="#FF7A00"/>
<stop offset="1" stop-color="#FFB039"/>
</linearGradient>
<linearGradient id="paint2_linear_65_310" x1="15.2207" y1="20.4039" x2="18.3457" y2="20.3913" gradientUnits="userSpaceOnUse">
<stop stop-color="#FF7A00"/>
<stop offset="1" stop-color="#FFB039"/>
</linearGradient>
<linearGradient id="paint3_linear_65_310" x1="31.0209" y1="20.4039" x2="34.1458" y2="20.3913" gradientUnits="userSpaceOnUse">
<stop stop-color="#FF7A00"/>
<stop offset="1" stop-color="#FFB039"/>
</linearGradient>
<linearGradient id="paint4_linear_65_310" x1="46.8523" y1="46.0334" x2="49.9773" y2="46.0208" gradientUnits="userSpaceOnUse">
<stop stop-color="#FF7A00"/>
<stop offset="1" stop-color="#FFB039"/>
</linearGradient>
<linearGradient id="paint5_linear_65_310" x1="62.1261" y1="46.0335" x2="65.2511" y2="46.0209" gradientUnits="userSpaceOnUse">
<stop stop-color="#FF7A00"/>
<stop offset="1" stop-color="#FFB039"/>
</linearGradient>
</defs>
</svg>
