<svg width="40" height="40" viewBox="0 0 40 40" fill="none" xmlns="http://www.w3.org/2000/svg">
<circle cx="20" cy="20" r="20" fill="#2B7AF1"/>
<path d="M29.8062 25.115C29.8062 25.032 29.7232 25.032 29.7232 24.9489C29.3911 24.2848 28.6439 23.4545 27.6476 22.5413C27.1495 22.1262 26.9004 21.7941 26.7343 21.628C26.4853 21.2959 26.4853 21.0469 26.5683 20.7148C26.6513 20.4657 26.9834 20.0506 27.5646 19.3034C27.8967 18.8883 28.0627 18.6392 28.3118 18.3901C29.5571 16.7297 30.1383 15.6504 29.9722 15.1522L29.8892 15.0692C29.8062 14.9862 29.7232 14.9032 29.5571 14.9032C29.3911 14.8201 29.142 14.8201 28.8929 14.9032H25.7381C25.6551 14.9032 25.655 14.9032 25.489 14.9032C25.406 14.9032 25.323 14.9032 25.323 14.9032H25.2399H25.1569L25.0739 14.9862C24.9909 15.0692 24.9909 15.0692 24.9909 15.1522C24.6588 16.0655 24.2437 16.8127 23.8285 17.6429C23.5795 18.058 23.3304 18.4732 23.0813 18.8052C22.8323 19.1373 22.6662 19.3864 22.5002 19.5524C22.3341 19.7185 22.1681 19.8015 22.0851 19.9676C22.002 20.0506 21.836 20.1336 21.836 20.0506C21.753 20.0506 21.6699 20.0506 21.6699 19.9676C21.5869 19.8845 21.5039 19.8015 21.4209 19.7185C21.3379 19.6355 21.3378 19.4694 21.2548 19.3034C21.2548 19.1373 21.2548 18.9713 21.2548 18.8883C21.2548 18.8052 21.2548 18.5562 21.2548 18.3901C21.2548 18.1411 21.2548 17.975 21.2548 17.892C21.2548 17.6429 21.2548 17.3108 21.2548 16.9787C21.2548 16.6467 21.2548 16.3976 21.2548 16.2315C21.2548 16.0655 21.2548 15.8164 21.2548 15.6504C21.2548 15.4013 21.2548 15.2353 21.2548 15.1522C21.2548 15.0692 21.1718 14.9032 21.1718 14.8201C21.0888 14.7371 21.0058 14.6541 20.9227 14.5711C20.8397 14.488 20.6737 14.488 20.5906 14.405C20.1755 14.322 19.6774 14.239 19.0962 14.239C17.7679 14.239 16.8546 14.322 16.5225 14.4881C16.3565 14.5711 16.1904 14.6541 16.1074 14.8201C15.9414 14.9862 15.9414 15.0692 16.0244 15.0692C16.4395 15.1522 16.7716 15.3183 16.9376 15.5673L17.0207 15.7334C17.1037 15.8164 17.1037 15.9825 17.1867 16.2315C17.2697 16.4806 17.2697 16.7297 17.2697 17.0618C17.2697 17.5599 17.2697 18.058 17.2697 18.3901C17.2697 18.8052 17.1867 19.0543 17.1867 19.3034C17.1867 19.5524 17.1037 19.7185 17.0207 19.8015C16.9377 19.9676 16.9376 20.0506 16.8546 20.0506C16.8546 20.0506 16.8546 20.1336 16.7716 20.1336C16.6886 20.1336 16.6055 20.2166 16.4395 20.2166C16.3565 20.2166 16.1904 20.1336 16.1074 20.0506C15.9414 19.9676 15.7753 19.8015 15.6923 19.6355C15.5263 19.4694 15.3602 19.2204 15.1942 18.8883C15.0281 18.5562 14.779 18.2241 14.613 17.7259L14.447 17.3939C14.3639 17.2278 14.1979 16.8957 14.0318 16.4806C13.8658 16.0655 13.6997 15.7334 13.5337 15.3183C13.4507 15.1522 13.3677 15.0692 13.2846 14.9862H13.2016C13.2016 14.9862 13.1186 14.9032 13.0356 14.9032C12.9525 14.9032 12.8695 14.8201 12.7865 14.8201H9.79767C9.46558 14.8201 9.29953 14.9032 9.21651 14.9862L9.13348 15.0692C9.13348 15.0692 9.13348 15.1522 9.13348 15.2353C9.13348 15.3183 9.13349 15.4013 9.21651 15.5673C9.63163 16.5636 10.1298 17.5599 10.6279 18.5562C11.126 19.4694 11.6242 20.2997 11.9563 20.8808C12.3714 21.462 12.7035 22.0431 13.1186 22.5413C13.5337 23.0394 13.7828 23.3715 13.8658 23.5375C14.0318 23.7036 14.1149 23.7866 14.1979 23.8696L14.447 24.1187C14.613 24.2848 14.8621 24.5338 15.1942 24.7829C15.5263 25.032 15.9414 25.281 16.3565 25.5301C16.7716 25.7792 17.2697 25.9452 17.7679 26.1113C18.349 26.2773 18.8472 26.3603 19.3453 26.2773H20.5906C20.8397 26.2773 21.0058 26.1943 21.1718 26.0282L21.2548 25.9452C21.2548 25.8622 21.3379 25.8622 21.3379 25.7792C21.3379 25.6961 21.3379 25.6131 21.3379 25.4471C21.3379 25.115 21.3379 24.8659 21.4209 24.6168C21.5039 24.3678 21.5039 24.2017 21.5869 24.0357C21.67 23.8696 21.753 23.7866 21.836 23.7036C21.919 23.6206 22.002 23.5375 22.002 23.5375H22.0851C22.2511 23.4545 22.5002 23.5375 22.6662 23.7036C22.9153 23.8696 23.1644 24.1187 23.3304 24.3678C23.4964 24.6168 23.7455 24.8659 24.0776 25.198C24.4097 25.5301 24.6588 25.7792 24.8248 25.8622L25.0739 26.0282C25.2399 26.1113 25.406 26.1943 25.6551 26.2773C25.9041 26.3603 26.0702 26.3603 26.2362 26.3603L29.059 26.2773C29.3081 26.2773 29.5571 26.1943 29.7232 26.1113C29.8892 26.0282 29.9722 25.9452 29.9722 25.7792C29.9722 25.6961 29.9722 25.5301 29.9722 25.4471C29.8062 25.281 29.8062 25.198 29.8062 25.115Z" fill="white"/>
</svg>
