<svg width="40" height="40" viewBox="0 0 40 40" fill="none" xmlns="http://www.w3.org/2000/svg">
<path  d="M4.21642 32.75L6.44976 33.6833V18.6333L2.39976 28.4C1.71643 30.1 2.53309 32.05 4.21642 32.75V32.75ZM36.7164 26.5833L28.4498 6.63331C27.9331 5.38331 26.7164 4.61665 25.4331 4.58331C24.9998 4.58331 24.5498 4.64998 24.1164 4.83331L11.8331 9.91665C10.5831 10.4333 9.81642 11.6333 9.78309 12.9166C9.76642 13.3666 9.84976 13.8166 10.0331 14.25L18.2998 34.2C18.8164 35.4666 20.0498 36.2333 21.3498 36.25C21.7831 36.25 22.2164 36.1666 22.6331 36L34.8998 30.9166C36.5998 30.2166 37.4164 28.2666 36.7164 26.5833V26.5833ZM13.1331 14.5833C12.2164 14.5833 11.4664 13.8333 11.4664 12.9166C11.4664 12 12.2164 11.25 13.1331 11.25C14.0498 11.25 14.7998 12 14.7998 12.9166C14.7998 13.8333 14.0498 14.5833 13.1331 14.5833V14.5833ZM9.79976 32.9166C9.79976 34.75 11.2998 36.25 13.1331 36.25H15.5498L9.79976 22.35V32.9166Z" fill="white"/>
</svg>
