<svg width="40" height="40" viewBox="0 0 40 40" fill="none" xmlns="http://www.w3.org/2000/svg">
<path d="M12.6338 6.80002L10.2505 4.41669C6.25046 7.46669 3.61712 12.1667 3.38379 17.5H6.71712C6.96712 13.0834 9.23379 9.21669 12.6338 6.80002V6.80002ZM33.2838 17.5H36.6171C36.3671 12.1667 33.7338 7.46669 29.7505 4.41669L27.3838 6.80002C30.7505 9.21669 33.0338 13.0834 33.2838 17.5ZM30.0005 18.3334C30.0005 13.2167 27.2671 8.93335 22.5005 7.80002V6.66669C22.5005 5.28335 21.3838 4.16669 20.0005 4.16669C18.6171 4.16669 17.5005 5.28335 17.5005 6.66669V7.80002C12.7171 8.93335 10.0005 13.2 10.0005 18.3334V26.6667L6.66712 30V31.6667H33.3338V30L30.0005 26.6667V18.3334ZM20.0005 36.6667C20.2338 36.6667 20.4505 36.65 20.6671 36.6C21.7505 36.3667 22.6338 35.6334 23.0671 34.6334C23.2338 34.2334 23.3171 33.8 23.3171 33.3334H16.6505C16.6671 35.1667 18.1505 36.6667 20.0005 36.6667Z" fill="white"/>
</svg>
