<svg width="40" height="40" viewBox="0 0 40 40" fill="none" xmlns="http://www.w3.org/2000/svg">
<path d="M26.667 18.3333C29.4337 18.3333 31.6503 16.1 31.6503 13.3333C31.6503 10.5667 29.4337 8.33334 26.667 8.33334C23.9003 8.33334 21.667 10.5667 21.667 13.3333C21.667 16.1 23.9003 18.3333 26.667 18.3333ZM13.3337 18.3333C16.1003 18.3333 18.317 16.1 18.317 13.3333C18.317 10.5667 16.1003 8.33334 13.3337 8.33334C10.567 8.33334 8.33366 10.5667 8.33366 13.3333C8.33366 16.1 10.567 18.3333 13.3337 18.3333ZM13.3337 21.6667C9.45033 21.6667 1.66699 23.6167 1.66699 27.5V31.6667H25.0003V27.5C25.0003 23.6167 17.217 21.6667 13.3337 21.6667ZM26.667 21.6667C26.1837 21.6667 25.6337 21.7 25.0503 21.75C26.9837 23.15 28.3337 25.0333 28.3337 27.5V31.6667H38.3337V27.5C38.3337 23.6167 30.5503 21.6667 26.667 21.6667Z" fill="white"/>
</svg>
