<svg width="95" height="20" viewBox="0 0 95 20" fill="none" xmlns="http://www.w3.org/2000/svg">
<path d="M10 0L12.2451 6.90983H19.5106L13.6327 11.1803L15.8779 18.0902L10 13.8197L4.12215 18.0902L6.36729 11.1803L0.489435 6.90983H7.75486L10 0Z" fill="#FCC226"/>
<path d="M35 0L37.2451 6.90983H44.5106L38.6327 11.1803L40.8779 18.0902L35 13.8197L29.1221 18.0902L31.3673 11.1803L25.4894 6.90983H32.7549L35 0Z" fill="#FCC226"/>
<path d="M60 0L62.2451 6.90983H69.5106L63.6327 11.1803L65.8779 18.0902L60 13.8197L54.1221 18.0902L56.3673 11.1803L50.4894 6.90983H57.7549L60 0Z" fill="#FCC226"/>
<path d="M85 0L87.2451 6.90983H94.5106L88.6327 11.1803L90.8779 18.0902L85 13.8197L79.1221 18.0902L81.3673 11.1803L75.4894 6.90983H82.7549L85 0Z" fill="#FCC226"/>
</svg>
